<svg xmlns="http://www.w3.org/2000/svg" xmlns:xlink="http://www.w3.org/1999/xlink" id="_圖層_2" data-name="圖層 2" viewBox="0 0 90.1 112.99"><defs><linearGradient id="_未命名漸層_200" x1="66.55" x2="66.55" y1="123.23" y2="42.75" data-name="未命名漸層 200" gradientUnits="userSpaceOnUse"><stop offset="0" stop-color="#ff8c55"/><stop offset="1" stop-color="#d5433c"/></linearGradient><linearGradient xlink:href="#_未命名漸層_200" id="_未命名漸層_200-2" x1="32.76" x2="32.76" y1="79.1" y2="-1.38" data-name="未命名漸層 200"/><style>.cls-2{stroke-width:0;fill:#fff}</style></defs><path d="M87.02 66.93C81.8 78.76 75.67 80.95 80.4 92.42c1.8 3.61 5.35 5.69 5.35 5.69-.47.12-.94 3.89-.5 7.19 0 0-8.7 4.72-17.86.06-4.13-2.1-11.01-9.5-17.17-5.67-6.17 3.84 1.84 14.84-12.01 11.01-3.94-1.09-6.14-2.13-7.31-3.29-.91-.9-1.19-1.87-1.19-2.99 0-1.88.81-4.18.81-7.29 0-1-.08-2.08-.31-3.27-.47-2.56-1.17-4.04-1.97-4.78-2.29-2.13-5.47 1.65-7.2 3.17-2.33 2.05-5.84 11.78-12.83 9.44-.75-.25-1.41-.68-2-1.24C2.13 96.57 1.6 86.23 1.55 82.8c6.85 1.12 25.37.35 25.37-19.92 0 0-.96-11.7-5.73-17.19-4.77-5.49-3.34-16.47 5.73-16.71 9.07-.23 9.79 5.97 16.71-.23 5.21-4.68 9.01-3.94 10.57-3.28 1.92 3.03 4.5 5.3 8.55 4.95 9.23-.8 17.06 4.81 18.66 11.63 1.6 6.82 10.84 13.05 5.62 24.89Z" style="fill:#50606e;stroke:#ffdf9c;stroke-miterlimit:10;stroke-width:3px"/><path d="M66.55 44.13c-9.19 0-16.64 7.45-16.64 16.64 0 5.31 5.55 17.88 10.24 27.55 2.59 5.34 10.2 5.34 12.79 0 4.69-9.67 10.25-22.24 10.25-27.55 0-9.19-7.45-16.64-16.64-16.64Zm0 26.99c-5.74 0-10.39-4.65-10.39-10.39s4.65-10.39 10.39-10.39 10.38 4.65 10.38 10.39-4.65 10.39-10.38 10.39Z" style="stroke-width:0;fill:url(#_未命名漸層_200)"/><path d="M76.93 60.73c0 5.74-4.65 10.39-10.38 10.39s-10.39-4.65-10.39-10.39 4.65-10.39 10.39-10.39 10.38 4.65 10.38 10.39Z" class="cls-2"/><path d="M32.76 0c-9.19 0-16.64 7.45-16.64 16.64 0 5.31 5.55 17.88 10.24 27.55 2.59 5.34 10.2 5.34 12.8 0 4.69-9.67 10.24-22.24 10.24-27.55C49.4 7.45 41.95 0 32.76 0Zm0 26.98c-5.74 0-10.39-4.65-10.39-10.39S27.02 6.21 32.76 6.21s10.39 4.65 10.39 10.38-4.65 10.39-10.39 10.39Z" style="fill:url(#_未命名漸層_200-2);stroke-width:0"/><path d="M43.15 16.59c0 5.74-4.65 10.39-10.39 10.39s-10.39-4.65-10.39-10.39S27.02 6.21 32.76 6.21s10.39 4.65 10.39 10.38Z" class="cls-2"/></svg>