<svg xmlns="http://www.w3.org/2000/svg" data-name="圖層 2" viewBox="0 0 219.83 111.48"><defs><linearGradient id="a" x1="98.83" x2="98.83" y1="101.47" y2="21" data-name="未命名漸層 200" gradientUnits="userSpaceOnUse"><stop offset="0" stop-color="#ff8c55"/><stop offset="1" stop-color="#d5433c"/></linearGradient></defs><path d="M89.4 109.67c-2.86-5.33-8.81-8.73-19.02-10.9-2.36-.5-4.5-.74-6.55-.74-4.42 0-8.17 1.12-13.35 2.66-1.42.42-2.95.88-4.64 1.36-2.77.78-5.1 1.16-7.13 1.16-2.8 0-4.61-.71-6.71-1.52-1.17-.45-2.37-.92-3.79-1.28-1.34-.34-2.45-.75-3.43-1.12-1.4-.53-2.61-.99-3.94-.99-1.71 0-3.28.77-5.08 2.49-3.72 3.67-8.29 7.85-9.48 8.5-.67-.03-2.18-.34-3.34-1.53-1.01-1.04-1.5-2.51-1.45-4.37l.03-1.14c.1-4.95.1-5.14 7.89-12.3 23.38-21.49 24.63-24.79 25.05-25.87.53-1.38.55-2.93.56-4.42.03-2.87.07-5.58 3.39-7.66 1.55-.98 2.48-2.18 2.74-3.58.48-2.52-1.27-4.9-2.82-7-.87-1.18-1.85-2.52-1.93-3.31-.19-1.96.95-3.63 4.27-8.16 1.11-1.52 2.5-3.41 4.07-5.68 1.7-2.45 3.58-5.63 5.76-9.31 2.26-3.82 4.81-8.12 7.72-12.58 2.19-.29 7.13-.87 11-.87s4.44.54 4.47.56c.51.45 1 .99 1.57 1.61 1.97 2.16 4.66 5.12 11.28 7.52 3.11 1.13 5.97 2.01 8.49 2.79 4.01 1.24 7.18 2.21 9 3.47 1.74 1.2 3.98 1.35 6.59 1.52 3.05.2 6.84.44 10.91 2.54l.1.05.11.04c2.73.91 5.44 1.12 7.83 1.31 3.98.31 6.49.62 8 2.82 1.7 2.48 3.74 3.7 5.38 4.68 1.73 1.03 2.98 1.78 3.59 3.62 1.07 3.2 3.57 10.71 9.54 10.7 1.18 0 2.41-.31 3.67-.92 3.59-1.73 5.92-4.71 7.97-7.34 1.8-2.31 3.36-4.31 5.08-4.4.7-.04 1.36-.06 1.98-.06 2.21 0 2.96.37 3.19.67.27.35.26 1.14-.02 2.21-.12.46-.27.95-.42 1.46-1.4 4.68-3.74 12.52 6 22.49 8.78 8.99 16.36 14.74 20.79 15.76.62.14 1.28.21 2.06.21.36 0 .71-.01 1.07-.03.31-.01.63-.02.94-.02.82 0 1.41.1 1.96.33.92.38 1.82 1.17 2.75 2.42 1.45 1.93 2.9 2.98 3.95 3.75 1.32.95 1.3 1.05 1.25 1.4-.06.49-.36 1.21-.87 2.15-2.08 3.81-11.55 7.69-18.76 7.69-1.08 0-2.05-.09-2.88-.27-1.88-.4-4.19-1.09-6.63-1.82-4.47-1.33-9.09-2.71-12.28-2.71-2 0-3.4.56-4.17 1.68-1.57 2.27-2.84 3.59-4.66 3.59-1.22 0-2.7-.59-4.41-1.75l-.28-.19-.33-.05c-.24-.04-.47-.05-.69-.05-2.32 0-3.42 1.83-4.22 3.17-.52.87-1.02 1.7-1.65 1.87-2.74-.01-18.61-9.28-21.62-12.04-.67-.61-1.53-.93-2.5-.93-3.18 0-7.27 3.41-11.2 6.89-.67.6-1.25 1.11-1.6 1.39-1.03.8-4.32 1.4-6.73 1.85-2.42.44-3.96.74-4.91 1.22-1.69.84-2.63 3.23-3.72 6-.58 1.48-1.19 3.02-1.79 3.88-.62.89-5.27 3.01-13.02 5.43Z" style="fill:#50606e;stroke-width:0"/><path d="M69.23 3c2.41 0 3.35.23 3.63.32.4.37.82.83 1.3 1.36 2.07 2.27 4.91 5.39 11.88 7.92 3.15 1.14 6.02 2.03 8.56 2.81 3.73 1.15 6.96 2.15 8.58 3.27 2.08 1.44 4.64 1.6 7.34 1.78 3.06.2 6.52.42 10.32 2.38l.21.11.22.07c2.9.97 5.71 1.19 8.18 1.38 3.74.29 5.75.52 6.88 2.17 1.88 2.75 4.08 4.06 5.85 5.12 1.74 1.04 2.52 1.55 2.94 2.8 1.07 3.21 3.91 11.73 10.96 11.73 1.4 0 2.86-.36 4.32-1.06 3.91-1.88 6.45-5.14 8.5-7.76 1.45-1.85 2.94-3.77 3.97-3.83.78-.04 1.39-.06 1.91-.06 1.02 0 1.58.08 1.88.15-.02.18-.06.46-.16.85-.12.45-.26.92-.41 1.42-1.49 5-3.99 13.36 6.36 23.97 9.11 9.33 16.75 15.07 21.52 16.18.74.17 1.5.25 2.4.25.38 0 .75-.01 1.13-.03.29-.01.59-.02.88-.02.62 0 1.02.06 1.39.21l.76-1.83-.76 1.83c.66.27 1.37.92 2.13 1.93 1.58 2.11 3.2 3.28 4.27 4.06.17.12.36.26.53.39-.1.26-.27.65-.58 1.22-1.83 3.36-10.8 6.91-17.45 6.91-.97 0-1.83-.08-2.56-.23-1.82-.39-4.1-1.07-6.51-1.79-4.57-1.36-9.3-2.77-12.71-2.77-2.52 0-4.34.78-5.41 2.32-1.52 2.2-2.39 2.94-3.42 2.94-.63 0-1.75-.26-3.56-1.49l-.56-.38-.67-.1c-.31-.05-.61-.07-.91-.07-3.17 0-4.63 2.44-5.51 3.9-.2.33-.47.78-.68 1.05-3.59-.92-17.41-8.91-20.29-11.55-.95-.87-2.16-1.33-3.52-1.33-3.71 0-7.88 3.44-12.19 7.27-.62.55-1.21 1.08-1.53 1.32-.8.59-4.23 1.22-6.08 1.56-2.55.47-4.18.78-5.31 1.35-2.2 1.1-3.29 3.87-4.44 6.8-.51 1.29-1.08 2.74-1.57 3.49-.89.8-4.97 2.59-11.16 4.58-3.27-5.13-9.4-8.45-19.4-10.58-2.46-.52-4.71-.78-6.86-.78-4.64 0-8.47 1.14-13.78 2.72-1.45.43-2.94.88-4.62 1.35-2.64.74-4.84 1.11-6.72 1.11-2.51 0-4.21-.66-6.17-1.42-1.21-.47-2.46-.95-3.97-1.33-1.26-.31-2.27-.7-3.26-1.07-1.48-.56-2.87-1.09-4.47-1.09-2.76 0-4.81 1.66-6.15 2.94-3.23 3.18-7.24 6.89-8.78 8.01-.48-.11-1.26-.38-1.89-1.02-.72-.74-1.06-1.84-1.03-3.28l.03-1.15q.09-4.5 7.4-11.23C34.05 69.32 35.35 65.9 35.84 64.61c.62-1.63.64-3.31.66-4.94.04-3.13.17-4.83 2.68-6.41 1.92-1.21 3.07-2.74 3.42-4.57.6-3.16-1.44-5.94-3.08-8.17-.62-.84-1.55-2.11-1.64-2.56-.14-1.42.92-2.94 3.99-7.13 1.12-1.53 2.51-3.43 4.09-5.72 1.73-2.49 3.62-5.69 5.82-9.4 2.15-3.64 4.57-7.72 7.31-11.94 2.39-.3 6.7-.77 10.12-.77m.02-3c-4.37 0-9.93.7-11.87.97-5.92 8.98-10.35 17.4-13.84 22.44-6.07 8.77-8.94 11.3-8.6 14.84.34 3.54 8.6 8.77 2.7 12.48-5.9 3.71-3.2 9.28-4.55 12.82-1.35 3.54-15.85 17.2-24.66 25.3C-.4 96.94.17 96.94 0 103.35c-.16 6.04 4.62 7.44 6.31 7.44.1 0 .19 0 .27-.01 1.35-.17 10.22-8.91 10.22-8.91 1.61-1.54 2.82-2.07 4.04-2.07 1.86 0 3.73 1.25 7 2.07 3.81.95 6.14 2.84 10.87 2.84 1.99 0 4.41-.34 7.54-1.22 7.81-2.2 12.21-3.96 17.58-3.96 1.89 0 3.91.22 6.23.71 12.08 2.58 16.59 6.69 18.54 11.25 2.66-.81 13.52-4.21 15.04-6.38 1.73-2.48 2.97-8.42 4.95-9.41 1.98-.99 9.65-1.49 11.88-3.22 1.92-1.49 8.27-7.96 11.88-7.96.58 0 1.08.16 1.49.54 2.87 2.63 19.13 12.42 22.69 12.42.13 0 .24-.01.33-.04 2.59-.71 2.72-4.99 5.48-4.99.15 0 .3.01.46.04 2.11 1.44 3.83 2.01 5.25 2.01 2.74 0 4.42-2.12 5.89-4.24.51-.74 1.55-1.03 2.94-1.03 4.67 0 13.25 3.35 18.6 4.5.96.2 2.03.3 3.19.3 7.23 0 17.52-3.78 20.08-8.47.64-1.17.95-2.01 1.04-2.67-.67.03-1.07.05-1.07.05s.4-.02 1.07-.05c.32-2.43-2.58-2.36-5.5-6.25-1.21-1.62-2.32-2.46-3.38-2.9-.34.54-.54.85-.54.85s.2-.31.54-.85c-.87-.36-1.71-.44-2.54-.44-.67 0-1.34.05-2.01.05-.56 0-1.14-.04-1.73-.17-3.22-.74-9.9-4.95-20.05-15.35-10.15-10.4-6.44-17.82-5.2-22.53 1.05-3.98-1.09-4.77-4.62-4.77-.64 0-1.34.03-2.06.06-4.7.25-6.93 8.66-13.62 11.88-1.11.53-2.11.77-3.02.77-4.6 0-6.88-5.96-8.12-9.68-1.49-4.46-5.94-3.96-9.16-8.66-3.22-4.7-9.9-2.48-16.59-4.7-7.67-3.96-14.11-1.73-17.33-3.96-3.22-2.23-9.65-3.47-17.82-6.44S77.14 3.12 74.66.94c-.77-.7-2.9-.94-5.43-.94Z" style="fill:#ffdf9c;stroke-width:0"/><path d="M98.83 22.38c-9.19 0-16.64 7.44-16.64 16.63 0 5.31 5.56 17.88 10.25 27.55 2.59 5.34 10.2 5.34 12.79 0 4.69-9.67 10.24-22.24 10.24-27.55 0-9.19-7.45-16.63-16.64-16.63Zm0 26.98c-5.73 0-10.38-4.65-10.38-10.39s4.65-10.39 10.38-10.39 10.39 4.65 10.39 10.39-4.65 10.39-10.39 10.39Z" style="stroke-width:0;fill:url(#a)"/><path d="M109.22 38.97c0 5.74-4.65 10.39-10.39 10.39s-10.38-4.65-10.38-10.39 4.65-10.39 10.38-10.39 10.39 4.65 10.39 10.39Z" style="fill:#fff;stroke-width:0"/></svg>