<svg xmlns="http://www.w3.org/2000/svg" id="_圖層_2" data-name="圖層 2" viewBox="0 0 146.89 186.31"><defs><linearGradient id="_未命名漸層_200" x1="79.71" x2="79.71" y1="159.19" y2="78.7" data-name="未命名漸層 200" gradientUnits="userSpaceOnUse"><stop offset="0" stop-color="#ff8c55"/><stop offset="1" stop-color="#d5433c"/></linearGradient><style>.cls-2{stroke-width:0;fill:#dc8f1b}</style></defs><path d="M31.68 175.61c5.49-10.13 13.23-4.22 16.18-3.8 2.96.42 34.46 14.94 44.63 12.78 10.17-2.16 5.19-14.5 6.28-19.04 1.08-4.54 5.84-6.28 12.55-7.79 6.71-1.51-1.51-10.6 1.73-19.26 2.63-7 7.54-10.21 9.32-11.17.02-.31.17-.63.41-.99 2.87-.67 17.03.34 19.4-1.01 2.36-1.35 3.04-4.38 3.2-7.25-1.01-4.55-5.23-5.06-10.79-6.91-5.57-1.86-4.89-4.72-4.22-7.24s8.26-7.94 10.63-10.98c2.36-3.04.67-4.72-5.23-5.73-5.9-1.01-9.11-4.55-10.29-8.26-1.18-5.06-3.37-4.39-5.9-10.29-2.53-5.9-4.05-9.28-6.24-9.78-10.96-1.35-11.3 4.55-13.49-.84-2.19-5.4 3.37-4.55 4.22-7.42.84-2.87.67-5.57-1.01-7.42-6.75-3.54-4.55-6.91-3.71-11.81s11.64-4.22 16.87-5.57c5.23-1.35 6.75-1.69 6.07-4.05-1.18-5.06-14.17-4.89-19.4-5.4-5.23-.51-5.06-3.37-7.25-6.24-1.11-1.45-1.4-2.29-1.2-2.95 0 0-6.74 8.55-16.49 13.47-23.5 11.9-26.27 7.18-35.91 4.31-9.65-2.87-15.6 7.39-19.5 7.8-.19.02-.4.04-.61.07-2.48 4.92-10.16 20.62-10.16 26.67 0 7.22 1.99 22.9-1.88 27.94-.93 1.21-3.11 1.85-4.43 2.14 0 9.01-.04 21.15-.04 21.15s-.04 4.5 3.9 3.94 5.63-2.11 9.29-5.63c3.66-3.52 6.47.66 8.58 5.68 2.11 5.02 14.92 6.85 8.44 14.73-6.47 7.88-13.65 13.23-16.32 16.89s-1.27 9.43-3.52 12.67S4.38 169.09 1.85 181.5c.91 0 1.52.4 1.93 1.1 0 0 4.69-3.32 10.18-3.32s12.24 6.47 17.73-3.66Z" style="fill:#50606e;stroke:#ffdf9c;stroke-miterlimit:10;stroke-width:3px"/><path d="M51.15 73.74v1.93h-16.7v-1.88c.65.04.71-.35.7-.88-.02-1.52 0-3.04 0-4.56v-.6h15.28c.01.2.03.38.03.57v4.62c0 .47-.06.97.7.81Zm-8.56.94v-4.62h-2.14v4.62h2.14Zm2.74 0v-4.61h-2.16v4.61h2.16ZM53.94 63.85c-.57 1.08-.66 2.29-1.8 2.88-.53.28-1.03.48-1.65.48-5.16-.02-10.32 0-15.49 0-1.37 0-2.55-.97-2.86-2.3-.07-.32-.29-.61-.36-1 .12.07.25.15.36.23 1.08.72 2.24 1.13 3.55.96.28-.03.55-.12.82-.2.45-.15.69-.43.63-.95-.05-.51-.03-1.03 0-1.54.01-.17.15-.44.28-.47.18-.04.4.1.59.18.17.07.33.24.49.24 2.85.02 5.69.02 8.54 0 .17 0 .33-.17.5-.24.19-.08.42-.22.59-.18.13.03.27.3.28.47.04.53.05 1.06 0 1.59-.04.48.18.73.58.88 1.16.44 2.3.3 3.4-.18.48-.21.92-.51 1.52-.84Z" class="cls-2"/><path d="M79.71 80.09c-9.19 0-16.64 7.45-16.64 16.64 0 5.31 5.55 17.88 10.24 27.55 2.59 5.34 10.2 5.34 12.79 0 4.69-9.67 10.25-22.24 10.25-27.55 0-9.19-7.45-16.64-16.64-16.64Zm0 26.98c-5.74 0-10.39-4.65-10.39-10.38S73.97 86.3 79.71 86.3s10.38 4.65 10.38 10.39-4.65 10.38-10.38 10.38Z" style="stroke-width:0;fill:url(#_未命名漸層_200)"/><path d="M90.09 96.69c0 5.73-4.65 10.38-10.38 10.38s-10.39-4.65-10.39-10.38S73.97 86.3 79.71 86.3s10.38 4.65 10.38 10.39Z" style="fill:#fff;stroke-width:0"/></svg>