<svg xmlns="http://www.w3.org/2000/svg" data-name="圖層 2" viewBox="0 0 142.76 146.78"><defs><linearGradient id="a" x1="71.74" x2="71.74" y1="104.3" y2="23.82" data-name="未命名漸層 200" gradientUnits="userSpaceOnUse"><stop offset="0" stop-color="#ff8c55"/><stop offset="1" stop-color="#d5433c"/></linearGradient></defs><path d="M33.76 83.25c6.57-6 13.43-1.06 15.71 6.9s12 8.24 18 8.53 19.43 3.71 22 14.86c2.57 11.14 8.38 19.5 13.55 23.21 5.17 3.71 8.23 9.53 12.11 8.4 3.78-1.1 4.44-6.62 14.68-5.66.86-1.86 2.04-4.07 3.64-6.71 10.9-18.06 7.98-38.58 5.51-48.43-1.87-7.47-1.26-11.88-.85-13.57-4.09-3.88-4.6-14.23-4.66-17.65-.65-.1-1.2-.23-1.61-.35-4.77-1.43-5.73-14.8-12.17-21.01-1.75-1.69-3.07-3.59-4.13-5.56-11.12 2.72-13.44 8.62-22.82 9.56-9.58.96-5.27-13.89-4.31-17.96s-2.39-5.75-6.47-3.67-5.99 12.77-10.54 13.49c-4.55.72-3.35-11.73-3.83-15.57-.48-3.83-5.03-5.27-9.58-4.55-4.55.72-5.75 8.14-10.78 9.1-5.03.96-6.47-8.86-10.06-10.06-3.59-1.2-7.42.96-9.82-2.16C25.27 1.69 13.98 1.5 10.9 1.5c-.52 7.81-1.33 23.28 3.93 34.89 6.3 13.89 3.89 25 .93 29.82-2.57 4.18-11.3 18.09-13.54 21.67 1.05.44 2.16 1.28 3.38 2.9 2.92 3.89 5.82 3.82 5.5 6.25 3.84-.16 16.84-.64 18.28.01 0 0-2.17-7.79 4.4-13.79Z" style="fill:#50606e;stroke:#ffdf9c;stroke-miterlimit:10;stroke-width:3px"/><path d="M110.96 90.54v1.93h-16.7v-1.88c.65.04.71-.35.7-.88-.02-1.52 0-3.04 0-4.56v-.6h15.28c.01.2.03.38.03.57v4.62c0 .47-.06.97.7.81Zm-8.57.95v-4.62h-2.14v4.62h2.14Zm2.75 0v-4.61h-2.16v4.61h2.16Zm8.61-10.84c-.57 1.08-.66 2.29-1.8 2.88-.53.28-1.03.48-1.65.48-5.16-.02-10.32 0-15.49 0-1.37 0-2.55-.97-2.86-2.3-.07-.32-.29-.61-.36-1 .12.07.25.15.36.23 1.08.72 2.24 1.13 3.55.96.28-.03.55-.12.82-.2.45-.15.69-.43.63-.95-.05-.51-.03-1.03 0-1.54.01-.17.15-.44.28-.47.18-.04.4.1.59.18.17.07.33.24.49.24 2.85.02 5.69.02 8.54 0 .17 0 .33-.17.5-.24.19-.08.42-.22.59-.18.13.03.27.3.28.47.04.53.05 1.06 0 1.59-.04.48.18.73.58.88 1.16.44 2.3.3 3.4-.18.48-.21.92-.51 1.52-.84Z" style="stroke-width:0;fill:#dc8f1b"/><path d="M71.74 25.2c-9.19 0-16.64 7.45-16.64 16.64 0 5.31 5.55 17.88 10.24 27.55 2.59 5.34 10.2 5.34 12.79 0 4.69-9.67 10.25-22.24 10.25-27.55 0-9.19-7.45-16.64-16.64-16.64Zm0 26.98c-5.74 0-10.39-4.65-10.39-10.38S66 31.41 71.74 31.41s10.38 4.65 10.38 10.39-4.65 10.38-10.38 10.38Z" style="stroke-width:0;fill:url(#a)"/><path d="M82.12 41.8c0 5.73-4.65 10.38-10.38 10.38S61.35 47.53 61.35 41.8 66 31.41 71.74 31.41s10.38 4.65 10.38 10.39Z" style="fill:#fff;stroke-width:0"/></svg>