<svg xmlns="http://www.w3.org/2000/svg" xmlns:xlink="http://www.w3.org/1999/xlink" id="_圖層_1" data-name="圖層 1" viewBox="0 0 618.48 720.24"><defs><linearGradient id="_未命名漸層_200" x1="400.33" x2="400.33" y1="401.48" y2="321" data-name="未命名漸層 200" gradientUnits="userSpaceOnUse"><stop offset="0" stop-color="#ff8c55"/><stop offset="1" stop-color="#d5433c"/></linearGradient><linearGradient xlink:href="#_未命名漸層_200" id="_未命名漸層_200-2" x1="407.17" x2="407.17" y1="220.04" y2="139.56" data-name="未命名漸層 200"/><linearGradient xlink:href="#_未命名漸層_200" id="_未命名漸層_200-3" x1="373.38" x2="373.38" y1="175.91" y2="95.42" data-name="未命名漸層 200"/><linearGradient xlink:href="#_未命名漸層_200" id="_未命名漸層_200-4" x1="98.83" x2="98.83" y1="242.11" y2="161.63" data-name="未命名漸層 200"/><linearGradient xlink:href="#_未命名漸層_200" id="_未命名漸層_200-5" x1="280.45" x2="280.45" y1="230.79" y2="150.31" data-name="未命名漸層 200"/><style>.cls-2,.cls-3,.cls-4{stroke-width:0}.cls-2{fill:#dc8f1b}.cls-3{fill:#fff}.cls-4{fill:#ffdf9c}</style></defs><path d="M466.58 194c-4.8 0-8.46-.61-9.78-1.63-2.58-1.99-5.81-4.03-10.23-4.03-2.01 0-4.16.43-6.4 1.28-5.91 2.25-11.55 3.32-13.41 3.67-.03 0-.06.01-.08.02-.93-.65-3.07-2.31-4.29-4.72-3.03-7.38-1.22-10.35 2.04-15.73 1.42-2.34 3.03-4.99 4.59-8.53 3.91-8.88.26-15-2.68-19.91-1.24-2.08-2.41-4.04-2.86-5.92-1.73-7.34-9.62-12.87-18.36-12.87-.63 0-1.26.03-1.89.08-.23.02-.46.03-.68.03-2.47 0-4.47-1.27-6.26-3.98l.21-.29c-.05-.04-.27-.2-.64-.39-1.01-1.68-1.83-3.58-2.62-5.43-.94-2.2-1.84-4.27-2.96-5.66-2.46-3.04-3.21-5.28-2.85-6.15.23-.55 1.14-.77 1.86-.85.59-.07 1.17-.13 1.74-.19 4.59-.5 8.93-.97 13.14-3.64 1.39-.88 3.97-2.06 6.71-3.31 6.15-2.8 13.12-5.98 15.75-9.5 1.12-1.49 2.94-1.8 5.32-1.8.55 0 1.11.02 1.67.03.58.02 1.16.03 1.72.03 2.27 0 4.84-.25 6.63-2.14 2.61-2.75 6.9-4.15 12.76-4.15 2.58 0 4.4-.4 5.6-.83.73.31 1.59.47 2.56.47.56 0 1.17-.05 1.82-.15 1.62-.25 3.02-.38 4.27-.38 4.23 0 6.93 1.38 12.15 4.25 1.52.84 2.72 1.22 3.78 1.22 2.25 0 3.17-1.74 3.78-2.88.69-1.29 1.04-1.87 2.28-1.87 1.96 0 2.4.45 3.01 1.08.67.7 1.59 1.65 3.8 1.65.23 0 .47 0 .74-.03.09 0 .17-.01.25-.01.87 0 1.52.39 1.99 1.2.74 1.28.71 3.13.21 3.99-1.42 2.49-1.72 4.38-.91 5.77.45.77 1.45 1.7 3.67 1.7.83 0 1.79-.12 2.91-.37.55-.12 1.07-.18 1.55-.18 3.24 0 4.5 2.81 5.31 5.56.06.22.12.4.17.54.17.51.52 1.01.96 1.64.82 1.17 1.94 2.76 1.61 4.09-.21.86-1.06 1.68-2.51 2.42-2.19 1.12-3.57 2.1-3.68 3.52-.11 1.39 1.01 2.21 2 2.94 1.12.82 2.38 1.75 2.75 3.46.35 1.59.1 3.22-.14 4.81-.49 3.2-1.09 7.18 4.31 9.88 5.12 2.56 8.13 6.2 7.95 7.59-.07.53-1.09.81-1.53.9-1.26.27-3.09.35-5.02.42-4.85.19-10.35.41-12.2 3.91-1.19 2.25-.55 5.27 1.93 9.23l.09.14.12.12c.67.67 1.44 1.29 2.26 1.95 3.33 2.68 5.43 4.71 4.43 8.4-1.51 5.58-2.59 8.95-6.04 8.95-.81 0-1.77-.18-2.83-.54-2.02-.67-3.84-1.71-5.44-2.62-1.91-1.09-3.42-1.95-4.84-1.95-.83 0-1.57.31-2.13.88-1.09 1.12-1.48 3.15-1.37 7.01.25 8.4-4.3 13.7-13.89 16.21-3.61.95-9.06 1.56-13.88 1.56Z" class="cls-3"/><path d="M468.98 78.95c3.87 0 6.3 1.25 11.43 4.07 1.75.96 3.18 1.41 4.5 1.41 3.15 0 4.42-2.39 5.1-3.68.19-.35.5-.93.64-1.04 0 0 .08-.04.31-.04 1.33 0 1.49.17 1.93.62.76.79 2.04 2.1 4.88 2.1.27 0 .56-.01.86-.04h.13c.25 0 .45.03.7.45.5.87.42 2.13.21 2.5-1.71 3-2.01 5.37-.91 7.27.65 1.11 2.03 2.44 4.97 2.44.94 0 2-.13 3.23-.4.44-.1.86-.15 1.23-.15 1.84 0 2.92 1.26 3.87 4.49.07.24.13.44.18.59.24.71.66 1.32 1.16 2.02.5.71 1.55 2.2 1.38 2.86-.07.29-.57.85-1.74 1.44-2.17 1.11-4.31 2.39-4.49 4.74-.18 2.22 1.5 3.45 2.61 4.27 1.16.85 1.94 1.49 2.18 2.57.29 1.32.07 2.75-.16 4.26-.5 3.29-1.25 8.25 5.12 11.44 3.74 1.87 6.21 4.37 6.92 5.65-.04.01-.09.02-.14.03-1.13.24-2.9.31-4.76.39-5.26.21-11.22.45-13.47 4.71-1.46 2.76-.81 6.27 1.99 10.73l.18.29.24.24c.72.72 1.57 1.4 2.38 2.06 3.3 2.66 4.67 4.11 3.93 6.84l-.02.07c-1.57 5.83-2.46 7.77-4.57 7.77-.65 0-1.45-.15-2.36-.46-1.88-.63-3.63-1.62-5.17-2.5-2.11-1.2-3.77-2.15-5.58-2.15-1.25 0-2.36.46-3.21 1.34-1.4 1.44-1.92 3.79-1.79 8.1.22 7.59-3.95 12.41-12.77 14.72-3.49.92-8.79 1.51-13.5 1.51-5.65 0-8.23-.83-8.86-1.32-2.78-2.15-6.28-4.34-11.15-4.34-2.19 0-4.53.47-6.94 1.38-5.29 2.01-10.38 3.07-12.6 3.5-.92-.71-2.38-2.01-3.28-3.75-2.71-6.64-1.24-9.06 1.96-14.33 1.37-2.26 3.08-5.07 4.68-8.7 4.23-9.59.19-16.35-2.76-21.28-1.18-1.97-2.29-3.84-2.68-5.5-1.88-8-10.4-14.03-19.82-14.03-.67 0-1.35.03-2.02.09-.19.02-.38.02-.55.02-1.45 0-3.2-.43-5.2-3.59l-.45.28.45-.28-.11-.17.16-.21c-.08-.06-.24-.17-.46-.3-.87-1.51-1.61-3.23-2.33-4.9-.99-2.29-1.92-4.46-3.17-6.01-1.87-2.31-2.46-3.82-2.58-4.45.13-.04.33-.08.59-.11.58-.07 1.16-.13 1.73-.19 4.77-.52 9.28-1 13.79-3.87 1.3-.83 3.84-1.99 6.53-3.21 6.31-2.88 13.47-6.14 16.33-9.96.56-.74 1.44-1.2 4.12-1.2.54 0 1.08.02 1.63.03.59.02 1.18.03 1.76.03 2.59 0 5.54-.31 7.72-2.61 2.31-2.44 6.24-3.68 11.67-3.68 2.42 0 4.26-.34 5.57-.74.78.25 1.65.38 2.59.38.63 0 1.32-.06 2.05-.17 1.55-.24 2.87-.36 4.04-.36m-8.58-3.06c-.93.41-2.75.97-5.69.97-4.62 0-10.23.8-13.85 4.62-1.36 1.43-3.37 1.68-5.54 1.68-1.11 0-2.26-.06-3.39-.06-2.54 0-4.96.32-6.52 2.4-3.61 4.82-17.66 9.63-22.07 12.44-4.41 2.81-9.03 3.01-14.25 3.61-5.22.6-3.41 5.22 0 9.43 1.91 2.36 3.26 7.44 5.7 11.31.51.21.78.42.78.42s-.27-.2-.78-.42c1.78 2.82 4.14 4.99 7.73 4.99.26 0 .54-.01.81-.04.59-.05 1.18-.08 1.76-.08 8.45 0 15.4 5.33 16.9 11.72 1.61 6.82 10.84 13.04 5.62 24.88s-11.34 14.03-6.62 25.49c1.81 3.61 5.35 5.69 5.35 5.69.67-.17 7.25-1.18 14.34-3.88 2.2-.84 4.13-1.19 5.87-1.19 3.87 0 6.75 1.74 9.31 3.72 1.79 1.38 6.01 1.94 10.7 1.94 5.03 0 10.6-.64 14.26-1.6 7.08-1.86 15.35-6.24 15.01-17.71-.14-4.79.57-6.34 2-6.34 1.99 0 5.38 3.02 9.8 4.49 1.26.42 2.35.61 3.31.61 4.79 0 6.08-4.85 7.49-10.06 1.69-6.24-4.22-8.94-7.08-11.81-8.26-13.16 8.1-9.95 14.34-11.3 6.24-1.35.67-7.93-6.07-11.3-6.75-3.37-2.19-8.26-3.37-13.66-1.18-5.4-8.77-4.72-1.86-8.26 6.92-3.54 1.18-8.43.67-9.95-.46-1.37-1.6-7.13-6.9-7.13-.57 0-1.2.07-1.87.22-1.05.23-1.9.33-2.59.33-3.87 0-2.6-3.22-1.46-5.22 1.31-2.29.4-7.44-3.51-7.44-.12 0-.24 0-.37.02-.22.02-.43.03-.62.03-3.42 0-2.01-2.72-6.8-2.72-4.05 0-3.13 4.75-6.06 4.75-.73 0-1.7-.3-3.05-1.04-5.24-2.88-8.24-4.44-12.87-4.44-1.33 0-2.8.13-4.5.39-.59.09-1.12.13-1.59.13-1.1 0-1.89-.23-2.47-.61Z" class="cls-4"/><path d="M300.57 160.78c-1.62 0-2.3-.63-2.67-1.1-2.31-2.95-.31-11.06.45-14.12.09-.35.17-.67.23-.94.56-2.37-.11-3.86-.78-4.7-.87-1.1-2.24-1.71-3.85-1.71-1.25 0-2.62.37-3.98 1.06-2.3 1.17-3.79 4.08-5.36 7.16-1.42 2.77-3.02 5.91-4.73 6.18-.05 0-.09.01-.13.01-.75 0-1.68-1.79-1.81-10.31-.02-1.61-.05-3-.17-3.97-.46-3.67-3.92-6.04-8.83-6.04-.81 0-1.64.07-2.47.2-2.85.45-4.5 2.74-6.11 4.95-1.41 1.95-2.74 3.78-4.72 4.16-.14.03-.27.04-.4.04-1.63 0-2.96-2.4-4.26-4.71-1.33-2.39-2.59-4.65-4.65-5.33-1.29-.43-2.54-.48-3.49-.48-.42 0-.84.01-1.25.02-.37.01-.74.02-1.1.02-1.75 0-2.57-.31-3.27-1.21-2.03-2.63-9.51-3.35-16.02-3.45.06-.84.1-1.55.12-2.09.07-2.04.92-4.02 1.91-6.3 1.28-2.96 2.72-6.31 2.72-10.61 0-5.95-3.9-7.82-7.34-9.46-1.43-.68-2.91-1.39-4.23-2.38-2.9-3.36-2.08-5.15-.94-7.62.65-1.42 1.39-3.03 1.39-4.99.24-5.87-1.81-7.55-3.45-8.9-1.05-.86-1.75-1.44-1.92-3.28-.39-3.99 2.59-10.9 3.9-13.72 3.39-.99 6.29-2.05 8.87-2.98.83-.3 1.63-.59 2.4-.86 6.9-2.44 27.14-10.72 37.74-19.66 4.17-3.52 7.5-6.81 10.17-9.46 4.17-4.13 7.19-7.12 10.1-7.76 1.29-.28 3.12-.32 4.56-.32.86 0 1.77.01 2.71.03 1.04.02 2.12.03 3.23.03 4.98 0 10.73-.32 15.64-2.73 2.05-1.01 4.31-2.32 6.7-3.72 3.4-1.98 7.2-4.2 10.97-5.82 1.94 6.68 6.79 22.45 11.63 30.64 2.96 5.01 6.74 8.73 10.08 12.01 3.5 3.44 6.52 6.41 7.39 9.75 1.38 5.29-4.5 14-7.01 17.73-.57.84-.98 1.45-1.21 1.86-.13.24-3.37 5.94-9.53 5.94-.24 0-.49 0-.75-.03-.47-.04-.91-.05-1.32-.05-4.9 0-6.12 2.53-7.66 5.72-.46.95-.97 2.02-1.65 3.19-1.19 2.05-1.5 4.18-1.76 6.06-.53 3.7-.95 6.63-7.34 9.04l-.12.05-.11.07c-5.31 3.14-7.82 8.28-8.37 17.19-.35 5.55 2.65 8.57 5.29 11.24 1.38 1.4 2.69 2.72 3.44 4.3.68 1.42 1.25 3.31 1.85 5.3.73 2.43 1.55 5.14 2.77 7.81-4.55 1.35-7.6 3.23-10.32 4.91-3.2 1.97-5.96 3.67-10.5 4.13-.25.02-.48.04-.71.04Z" class="cls-3"/><path d="M325.51 5.97c2.2 7.42 6.74 21.62 11.29 29.33 3.06 5.18 6.92 8.97 10.32 12.31 3.34 3.28 6.23 6.12 6.99 9.05 1.21 4.63-4.61 13.26-6.81 16.51-.61.9-1.01 1.5-1.27 1.97-.03.05-2.93 5.17-8.22 5.17-.21 0-.42 0-.63-.02-.5-.04-.99-.06-1.43-.06-5.84 0-7.45 3.34-9.01 6.57-.44.92-.95 1.97-1.6 3.09-1.34 2.3-1.66 4.59-1.95 6.6-.51 3.59-.82 5.75-6.39 7.85l-.24.09-.22.13c-3.85 2.27-8.36 6.42-9.11 18.39-.39 6.22 3 9.64 5.72 12.39 1.29 1.3 2.51 2.53 3.15 3.89.63 1.32 1.18 3.15 1.77 5.09.61 2.02 1.27 4.22 2.18 6.45-3.86 1.34-6.6 3.03-9.08 4.56-3.17 1.95-5.67 3.49-9.86 3.91-.2.02-.38.03-.56.03-1.07 0-1.35-.36-1.49-.53-1.23-1.57-.99-5.89.72-12.83.09-.36.17-.68.23-.96.54-2.31.17-4.43-1.06-5.98-1.16-1.47-2.95-2.27-5.03-2.27-1.48 0-3.09.42-4.66 1.22-2.73 1.4-4.4 4.66-6.01 7.81-.72 1.42-2.1 4.11-3.09 5.05-.64-1.9-.72-6.6-.74-8.51-.03-1.65-.05-3.08-.18-4.13-.56-4.47-4.61-7.36-10.32-7.36-.89 0-1.8.07-2.7.22-3.46.55-5.47 3.32-7.09 5.55-1.28 1.77-2.39 3.3-3.78 3.57-.04 0-.08.01-.12.01-.75 0-2.23-2.66-2.95-3.94-1.41-2.53-2.87-5.15-5.49-6.02-1.49-.5-2.9-.56-3.96-.56-.44 0-.87.01-1.29.03-.36.01-.71.02-1.05.02-1.49 0-1.78-.24-2.08-.63-.71-.93-2.78-3.61-15.62-4l.03-.58c.06-1.76.86-3.61 1.79-5.76 1.33-3.09 2.85-6.6 2.85-11.2 0-6.9-4.54-9.07-8.19-10.81-1.38-.66-2.68-1.28-3.84-2.13-2.15-2.53-1.69-3.54-.61-5.89.68-1.47 1.52-3.29 1.53-5.55.24-6.12-1.76-8.29-4-10.13-.97-.8-1.27-1.04-1.38-2.26-.23-2.43 1.09-7.08 3.48-12.33 3.16-.95 5.88-1.94 8.31-2.82.82-.3 1.61-.59 2.38-.86 6.97-2.46 27.44-10.84 38.21-19.93 4.21-3.55 7.56-6.88 10.26-9.55 3.99-3.96 6.88-6.81 9.36-7.36 1.15-.25 2.87-.28 4.24-.28.85 0 1.75.01 2.69.03 1.05.02 2.14.03 3.26.03 5.15 0 11.12-.34 16.3-2.88 2.1-1.03 4.38-2.36 6.8-3.77 2.89-1.69 6.08-3.54 9.25-5.04m1.94-4.08c-6.99 2.69-13.96 7.59-19.31 10.21-4.57 2.24-10.04 2.58-14.98 2.58-2.12 0-4.14-.06-5.95-.06-1.91 0-3.58.07-4.88.35-5.4 1.18-10.12 8.43-20.91 17.54-10.79 9.11-31.54 17.37-37.27 19.4-3.29 1.16-7.09 2.66-11.83 4.01-1.36 2.85-4.77 10.51-4.33 15.12.56 5.74 5.74 2.96 5.37 12.04 0 4.82-5.52 7.41.02 13.71 4.8 3.7 11.09 3.52 11.09 10.74s-4.45 11.67-4.63 16.85c-.03.85-.12 2.1-.22 3.64 3.08 0 14.37.19 16.44 2.88 1.2 1.56 2.75 1.8 4.46 1.8.76 0 1.55-.05 2.35-.05 1 0 2.02.07 3.01.41 3.43 1.14 4.89 10.12 9.38 10.12.22 0 .44-.02.68-.07 5.03-.96 6.23-8.38 10.78-9.1.75-.12 1.5-.18 2.24-.18 3.71 0 6.94 1.53 7.34 4.73.47 3.72-.65 15.6 3.46 15.6.12 0 .24 0 .37-.03 4.55-.72 6.47-11.41 10.54-13.49 1.19-.61 2.32-.89 3.29-.89 2.37 0 3.85 1.68 3.17 4.56-.93 3.94-5 18 3.46 18 .27 0 .56-.01.85-.04 9.38-.94 11.7-6.84 22.82-9.56-2.82-5.28-3.68-11.08-5.42-14.73-2.39-5.01-9.07-7.16-8.59-14.8.48-7.64 2.39-12.89 7.64-15.99 10.74-4.06 6.68-10.26 9.87-15.75 2.97-5.12 2.82-8.16 8.01-8.16.38 0 .78.02 1.21.05.29.02.58.03.86.03 5.95 0 9.7-4.66 10.84-6.72 1.19-2.15 10.22-13.58 8.36-20.69-1.86-7.11-11.6-11.92-17.64-22.14-5.27-8.91-10.65-27.35-11.94-31.9Z" class="cls-4"/><path d="M322.86 270.27c-1.49 0-3.24-1.76-5.26-3.79-1.44-1.45-3.07-3.09-4.99-4.47-4.32-3.1-10.31-10.82-12.96-22.33-1.21-5.26-4.84-9.58-10.49-12.49-4.58-2.36-9.66-3.37-12.9-3.52l-.39-.02c-5.69-.27-14.3-.67-16.24-7.43-1.83-6.37-6.3-10.64-11.13-10.64-2.45 0-4.82 1.03-7.04 3.06-5.06 4.62-5.43 10.16-5.18 13.14-.87-.05-2.07-.08-3.74-.08-3.79 0-8.6.16-11.43.27-.42-1.11-1.4-1.82-2.3-2.48-.95-.69-2.14-1.55-3.31-3.12-.8-1.07-1.62-1.9-2.48-2.52 3.19-5.09 10.4-16.59 12.72-20.36 3.54-5.75 5.44-17.37-.84-31.22-4.95-10.92-4.35-25.42-3.89-32.76 8.04.12 13.02 1.21 13.84 2.28 1.61 2.1 3.76 2.38 5.65 2.38.39 0 .79-.01 1.19-.02.38-.01.77-.02 1.16-.02.72 0 1.66.04 2.54.33.96.32 2.03 2.25 2.98 3.95 1.63 2.93 3.48 6.25 6.88 6.25.31 0 .64-.03.96-.09 3.15-.6 4.97-3.12 6.58-5.35 1.36-1.87 2.53-3.49 4.15-3.75.67-.11 1.35-.16 2-.16 2.62 0 5.54.9 5.85 3.41.1.81.12 2.12.14 3.65.09 5.91.2 13.26 4.81 13.26.19 0 .39-.02.6-.05 3.22-.51 5.11-4.21 6.93-7.78 1.29-2.52 2.62-5.12 4.05-5.85.94-.48 1.84-.73 2.61-.73.48 0 1.13.1 1.5.57.35.45.43 1.21.21 2.15l-.22.91c-1.01 4.09-3.1 12.59.11 16.68 1.16 1.47 2.9 2.25 5.03 2.25.32 0 .65-.02 1-.05 5.22-.52 8.4-2.48 11.77-4.56 2.8-1.72 5.69-3.5 10.16-4.75 1.11 1.89 2.37 3.5 3.83 4.9 2.95 2.84 4.73 7.51 6.31 11.63 1.8 4.72 3.36 8.8 6.48 9.73.17.05.37.1.57.15.17 4.49.96 12.77 4.5 16.88-.42 2.36-.66 6.75 1.02 13.47 2.04 8.18 5.61 29.15-5.34 47.29-1.31 2.17-2.4 4.15-3.27 5.91-.46-.03-.91-.04-1.35-.04-5.84 0-8.42 2.36-10.31 4.08-.92.83-1.64 1.49-2.53 1.75-.19.06-.38.08-.57.08Z" class="cls-3"/><path d="M222.45 131.03c6.5.21 10.44 1.08 11.28 1.73 2.02 2.56 4.68 2.9 6.78 2.9.4 0 .82-.01 1.23-.02.37-.01.74-.02 1.11-.02.89 0 1.5.07 2.02.24.55.34 1.57 2.17 2.18 3.27 1.74 3.13 3.91 7.02 8.19 7.02.41 0 .83-.04 1.24-.12 3.73-.71 5.83-3.61 7.52-5.94 1.11-1.54 2.16-2.99 3.16-3.14.6-.09 1.19-.14 1.77-.14.42 0 4.11.06 4.37 2.1.09.73.11 2.07.13 3.48.09 6.22.22 14.74 6.31 14.74.28 0 .56-.02.84-.07 3.97-.63 6.04-4.67 8.03-8.58 1.01-1.98 2.4-4.69 3.4-5.2.96-.49 1.62-.57 1.93-.57.15 0 .26.02.32.03.02.12.04.38-.07.84-.06.26-.13.56-.22.9-1.7 6.91-2.83 13.86.38 17.97 1.01 1.29 2.91 2.83 6.21 2.83.37 0 .76-.02 1.15-.06 5.56-.56 9.04-2.7 12.41-4.77 2.47-1.52 5.02-3.09 8.7-4.26 1.03 1.58 2.17 2.97 3.46 4.22 2.71 2.61 4.43 7.11 5.95 11.08 1.87 4.89 3.49 9.13 6.99 10.48.45 9.04 2.58 13.76 4.37 16.16-.37 2.63-.45 7.04 1.15 13.43 2 7.99 5.49 28.49-5.17 46.15a81.658 81.658 0 0 0-2.89 5.15h-.44c-6.42 0-9.37 2.69-11.32 4.47-.77.7-1.38 1.26-1.93 1.42-.07.02-.12.02-.15.02-.86 0-2.71-1.86-4.2-3.35-1.48-1.49-3.16-3.17-5.18-4.63-4.11-2.95-9.81-10.34-12.38-21.45-2.95-12.79-17.5-16.83-24.78-17.18l-.39-.02c-6.97-.33-13.35-1.06-14.87-6.34-2.05-7.13-6.98-11.73-12.57-11.73-2.8 0-5.58 1.19-8.05 3.45-4.66 4.26-5.68 9.26-5.72 12.69-.63-.01-1.35-.02-2.19-.02-3.43 0-7.66.13-10.55.23-.65-.96-1.58-1.63-2.3-2.16-.92-.66-1.95-1.42-2.99-2.8-.56-.74-1.12-1.39-1.71-1.94 3.45-5.5 9.87-15.74 12.03-19.26 3.73-6.06 5.77-18.24-.75-32.63-1.34-2.96-4.81-10.61-3.83-30.61m-2.79-3.03c-.52 7.81-1.33 23.28 3.93 34.89 6.3 13.89 3.89 25 .93 29.82-2.57 4.18-11.3 18.09-13.54 21.67 1.05.44 2.16 1.28 3.38 2.9 2.92 3.89 5.82 3.82 5.5 6.25 2.38-.1 8.27-.32 12.75-.32 2.76 0 4.98.08 5.53.33 0 0-2.17-7.79 4.4-13.79 2.03-1.85 4.09-2.66 6.03-2.66 4.34 0 8.11 4.06 9.69 9.56 2.29 7.96 12 8.24 18 8.53 6 .29 19.43 3.71 22 14.86 2.57 11.14 8.38 19.5 13.55 23.21 4.72 3.39 7.69 8.54 11.12 8.54.32 0 .65-.05.99-.14 3.48-1.01 4.32-5.77 12.42-5.77.7 0 1.45.04 2.26.11.86-1.86 2.04-4.07 3.64-6.71 10.9-18.06 7.98-38.58 5.51-48.43-1.87-7.47-1.26-11.88-.85-13.57-4.09-3.88-4.6-14.23-4.66-17.65-.65-.1-1.2-.23-1.61-.35-4.77-1.43-5.73-14.8-12.17-21.01-1.75-1.69-3.07-3.59-4.13-5.56-11.12 2.72-13.44 8.62-22.82 9.56-.3.03-.58.04-.85.04-8.46 0-4.38-14.06-3.46-18 .68-2.88-.8-4.56-3.17-4.56-.98 0-2.11.29-3.29.89-4.07 2.08-5.99 12.77-10.54 13.49-.13.02-.25.03-.37.03-4.12 0-3-11.87-3.46-15.6-.4-3.2-3.64-4.73-7.34-4.73-.73 0-1.48.06-2.24.18-4.55.72-5.75 8.14-10.78 9.1-.23.04-.46.07-.68.07-4.49 0-5.95-8.98-9.38-10.12-1-.33-2.01-.41-3.01-.41-.8 0-1.59.05-2.35.05-1.71 0-3.26-.24-4.46-1.8-2.06-2.68-13.36-2.87-16.44-2.88Z" class="cls-4"/><path d="M346.41 178.42c-1.79 0-3.17-.16-4.01-.3-.72-.12-1.17-.23-1.42-.31-1.7-.51-3.14-4.28-4.54-7.93-1.69-4.41-3.6-9.41-7.03-12.72-1.48-1.43-2.74-3.13-3.84-5.19l-.5 1.11-.33-1.48.83.37c-1.57-2.94-2.53-6.13-3.38-8.94-.63-2.11-1.24-4.1-2.01-5.73-.97-2.04-2.52-3.61-4.02-5.12-2.52-2.54-4.69-4.74-4.43-8.94.49-7.84 2.46-12.12 6.8-14.73 7.94-3.04 8.57-7.47 9.13-11.38.25-1.77.49-3.43 1.39-4.98.74-1.27 1.28-2.4 1.76-3.39 1.45-3.01 1.94-4.02 4.95-4.02.34 0 .71.02 1.1.04.33.02.65.04.97.04 6.31 0 10.61-4.71 12.15-7.49.16-.3.58-.92 1.07-1.64 2.97-4.4 9.15-13.56 7.43-20.16-1.08-4.14-4.38-7.38-8.19-11.13-3.21-3.15-6.84-6.72-9.6-11.39-4.77-8.07-9.76-24.53-11.4-30.2 2.58-.88 4.85-1.31 6.93-1.31 1.14 0 2.24.14 3.25.4 3.41.89 5.26 1.72 6.74 2.38 2.42 1.08 4.17 1.85 9.71 1.85 1.35 0 2.91-.04 4.75-.13.28-.01.55-.02.81-.02 5.91 0 7.58 3.29 9.89 7.83 2.15 4.23 4.59 9.03 11.12 11.49 5.93 2.23 7.92 4.18 9.67 5.9 2.06 2.02 3.84 3.76 10.18 4.81 6.48 1.06 15.61 6.63 22.27 10.69 5.77 3.52 8.87 5.35 10.69 5.35.46 0 1-.02 1.6-.05.68-.03 1.45-.07 2.25-.07 5.54 0 8.33 1.94 9.34 6.48.8 5.5 6.88 10.92 8.6 12.18.09.26.15.91.19 1.35.09.94.19 2.09.63 3.13-.82.16-1.88.28-3.19.28-6.71 0-11.74 1.71-14.94 5.08-.81.86-2.1 1.21-4.45 1.21-.54 0-1.09-.02-1.64-.03-.58-.02-1.17-.03-1.75-.03-2.71 0-5.74.36-7.72 3-2.18 2.9-9.36 6.18-14.6 8.57-2.96 1.35-5.52 2.52-7.08 3.51-3.62 2.3-7.43 2.72-11.85 3.19-.58.06-1.17.13-1.76.19-2.77.32-3.86 1.64-4.29 2.7-1.14 2.8 1.16 6.53 3.3 9.17.86 1.06 1.67 2.95 2.53 4.95.47 1.09.98 2.27 1.54 3.43-2.85.08-5.81 1.47-8.78 4.14-2.36 2.11-3.6 2.38-4.42 2.38-.89 0-1.8-.37-2.97-.84-1.88-.76-4.21-1.7-7.81-1.7h-.55c-4.07.11-7.3 2.21-8.87 5.78-1.9 4.32-1.06 9.84 2.05 13.41 4.23 4.86 5.28 15.39 5.36 16.27-.04 16.86-13.73 18.68-19.62 18.68Z" class="cls-3"/><path d="M336.21 3c1.01 0 1.98.12 2.87.35 3.29.86 5 1.62 6.51 2.29 2.76 1.23 4.74 1.98 10.31 1.98 1.37 0 2.95-.04 4.83-.13.25-.01.5-.02.74-.02 4.78 0 6.15 2.28 8.56 7.01 2.16 4.25 4.85 9.55 11.93 12.21 5.64 2.12 7.5 3.95 9.14 5.56 2.52 2.47 4.65 4.17 10.99 5.22 6.19 1.02 15.17 6.49 21.73 10.49 6.34 3.86 9.24 5.57 11.47 5.57.51 0 1.08-.03 1.67-.05.7-.03 1.42-.07 2.18-.07 4.8 0 7.01 1.47 7.87 5.25.85 5.61 6.37 10.89 8.7 12.74.02.2.05.44.06.64.05.5.1 1.1.22 1.74-.39.03-.81.04-1.28.04-7.14 0-12.53 1.87-16.02 5.55-.49.52-1.5.74-3.36.74-.52 0-1.06-.02-1.6-.03-.6-.02-1.2-.03-1.79-.03-1.86 0-6.22 0-8.92 3.6-1.95 2.6-9.21 5.91-14.02 8.1-3.01 1.37-5.61 2.56-7.26 3.61-3.32 2.11-6.98 2.51-11.21 2.97-.58.06-1.17.13-1.77.2-3.5.4-4.93 2.19-5.51 3.62-1.14 2.79.05 6.38 3.52 10.68.73.9 1.5 2.7 2.32 4.6.23.52.46 1.06.7 1.62-2.51.57-5.05 1.99-7.57 4.25-1.48 1.33-2.63 2-3.42 2-.6 0-1.39-.32-2.41-.73-1.89-.76-4.48-1.81-8.37-1.81h-.59c-4.67.12-8.39 2.56-10.21 6.68-2.13 4.83-1.18 11 2.29 15 3.33 3.83 4.72 12.26 4.99 15.34-.03 6.38-2.1 11.04-6.18 13.87-4.07 2.83-9.23 3.25-11.94 3.25-1.69 0-2.98-.15-3.77-.28l-.3 1.84.3-1.84c-.67-.11-1.06-.21-1.23-.26-1.01-.33-2.67-4.69-3.57-7.03-1.74-4.56-3.71-9.73-7.39-13.27-1.37-1.32-2.53-2.89-3.56-4.82l-1.99 1.06 1.99-1.06c-1.5-2.81-2.44-5.92-3.27-8.66-.65-2.16-1.27-4.21-2.09-5.94-1.08-2.27-2.72-3.93-4.31-5.53-2.62-2.64-4.21-4.43-4-7.79.45-7.21 2.18-11.14 5.97-13.47 8.64-3.36 9.36-8.43 9.95-12.52.24-1.69.45-3.15 1.2-4.44.77-1.32 1.32-2.48 1.82-3.5 1.41-2.94 1.53-3.17 3.6-3.17.3 0 .63.01.99.04s.72.04 1.08.04c8.63 0 12.99-7.41 13.46-8.26.13-.24.57-.89 1-1.53 3.09-4.59 9.53-14.13 7.64-21.38-1.19-4.54-4.78-8.08-8.59-11.82-3.14-3.09-6.7-6.58-9.36-11.09-4.34-7.34-8.9-21.88-10.84-28.45 1.86-.54 3.54-.8 5.08-.8m.02-2.97c-2.84 0-5.8.74-8.76 1.88 1.28 4.55 6.67 22.98 11.94 31.9 6.03 10.21 15.78 15.03 17.64 22.14 1.86 7.11-7.17 18.54-8.36 20.69-1.14 2.05-4.89 6.72-10.84 6.72-.28 0-.57-.01-.86-.03-.43-.03-.84-.05-1.21-.05-5.19 0-5.04 3.04-8.01 8.16-3.19 5.49.87 11.7-9.87 15.75-5.25 3.1-7.16 8.35-7.64 15.99-.48 7.64 6.21 9.79 8.59 14.8 1.74 3.65 2.6 9.45 5.42 14.73.23-.06.46-.11.7-.17-.24.05-.47.11-.7.17 1.05 1.97 2.37 3.88 4.13 5.56 6.45 6.21 7.4 19.57 12.17 21.01.41.12.96.24 1.61.35v-1.12 1.12c1.14.18 2.6.32 4.25.32 8.25 0 21.12-3.34 21.12-20.24 0 0-.95-11.7-5.73-17.19-4.77-5.49-3.34-16.47 5.73-16.71h.51c5.65 0 7.94 2.54 10.78 2.54 1.48 0 3.1-.69 5.42-2.77 3.33-2.99 6.09-3.76 8.05-3.76 1.11 0 1.96.25 2.53.48-2.44-3.86-3.79-8.94-5.7-11.31-3.41-4.21-5.22-8.83 0-9.43 5.22-.6 9.83-.8 14.25-3.61 4.42-2.81 18.46-7.63 22.07-12.44 1.56-2.08 3.98-2.4 6.52-2.4 1.13 0 2.28.06 3.39.06 2.17 0 4.18-.24 5.54-1.68 3.61-3.81 9.23-4.62 13.85-4.62 2.94 0 4.76-.56 5.69-.97-2.34-1.55-1.1-5.56-2.35-6.43-1.69-1.18-7.42-6.41-8.1-11.3-1.48-6.8-6.69-7.71-10.82-7.71-1.5 0-2.86.12-3.85.12-3.71 0-21.42-14.17-32.72-16.02-11.3-1.86-6.58-5.73-19.56-10.63-12.71-4.79-8.62-19.42-21.55-19.42-.29 0-.58 0-.88.02-1.84.09-3.38.13-4.68.13-8.63 0-7.13-1.83-16.06-4.18-1.18-.31-2.4-.45-3.63-.45Z" class="cls-4"/><path d="M340.22 273.81c-.99 0-1.61-.18-1.84-.54-.21-.33-.74-1.8 1.51-6.68.88-1.89 2.07-4.1 3.56-6.56 11.12-18.4 8.33-38.96 5.69-49.57-1.24-4.97-1.34-8.5-1.17-10.69l.39.15c.86.29 1.73.44 2.58.44 4.83 0 7.91-4.67 9.94-7.76.69-1.04 1.33-2.03 1.77-2.42.27-.24.57-.52.89-.83 1.02-.97 2.73-2.6 3.77-2.6.14 0 .3.03.53.24.36.33 1.02 1.28 1.51 3.95.19 1 .28 1.98.28 2.99 0 1.62-.24 3.04-.46 4.3-.18 1.05-.35 2.04-.35 2.99 0 1.66.52 2.95 1.63 4.05 1.42 1.41 3.87 2.54 7.97 3.67 2.07.57 3.76.85 5.15.85 5.21 0 5.59-3.88 5.87-6.71.26-2.62.53-4.29 2.19-5.32.93-.58 1.9-.86 2.96-.86 3.07 0 6.45 2.38 9.17 4.29 1.28.9 2.49 1.75 3.57 2.3a20.38 20.38 0 0 0 9.32 2.22c3.46 0 6.35-.83 8.1-1.49.26.99.61 1.82 1.04 2.47 1.7 2.54 3.45 16.51 2.13 25.25-.84 5.55-2.98 7.17-6.52 9.85-1.67 1.26-3.55 2.69-5.65 4.77l-.23.18c-.73.58-1.43 1.13-1.79 1.95-.94 1.15-7.2 8.53-15.85 12.9-10.29 5.21-17.15 7.53-22.27 7.53-3.19 0-5.61-.89-8.41-1.91-1.28-.47-2.61-.96-4.13-1.41-1.27-.38-2.55-.57-3.81-.57-5.27 0-9.37 3.33-12.36 5.76-1.49 1.21-3.04 2.46-3.9 2.56-.17.01-.38.04-.59.06-.72.09-1.5.18-2.19.18Z" class="cls-3"/><path d="M367.02 188.39c.21.39.56 1.22.86 2.83.17.91.25 1.79.25 2.71 0 1.49-.22 2.79-.44 4.05-.19 1.12-.37 2.17-.37 3.25 0 2.06.68 3.73 2.08 5.11 1.63 1.62 4.21 2.83 8.62 4.05 2.21.61 4.02.91 5.55.91 6.57 0 7.08-5.25 7.36-8.07.24-2.42.45-3.55 1.48-4.19.69-.43 1.38-.63 2.17-.63 2.59 0 5.76 2.23 8.3 4.02 1.33.93 2.58 1.81 3.76 2.41 3.11 1.58 6.47 2.38 10 2.38 2.83 0 5.31-.52 7.16-1.09.22.52.46.99.74 1.41 1.27 1.9 3.27 15.05 1.89 24.19-.75 4.95-2.48 6.26-5.94 8.88-1.69 1.28-3.6 2.72-5.74 4.85l-.16.13c-.77.61-1.62 1.28-2.14 2.32-1.19 1.43-7.09 8.24-15.25 12.37-10.06 5.1-16.72 7.37-21.59 7.37-2.92 0-5.12-.8-7.89-1.82-1.31-.48-2.66-.97-4.22-1.44a14.87 14.87 0 0 0-4.24-.63c-5.8 0-10.14 3.52-13.31 6.09-1.09.89-2.58 2.1-3.11 2.23-.21.02-.43.05-.66.07-.67.08-1.36.16-1.97.16-.24 0-.42-.01-.55-.03 0-.55.17-2.01 1.58-5.05.86-1.84 2.03-4 3.49-6.42 11.39-18.87 8.56-39.87 5.86-50.71-.9-3.58-1.18-6.35-1.19-8.37.52.09 1.03.13 1.55.13 5.64 0 8.98-5.08 11.19-8.44.51-.78 1.22-1.85 1.51-2.11.28-.25.59-.54.93-.87.55-.52 1.71-1.63 2.45-2.04m.28-3.15c-2.02 0-4.29 2.6-5.65 3.8-2.08 1.83-5.11 9.8-10.72 9.8-.67 0-1.37-.11-2.11-.36-.75-.25-1.41-.68-2-1.24-.41 1.7-1.02 6.1.85 13.57 2.46 9.85 5.39 30.37-5.52 48.43-1.6 2.65-2.78 4.85-3.64 6.71-3.7 8.03-1.2 9.35 1.7 9.35.79 0 1.6-.1 2.33-.18.21-.02.41-.05.61-.07 3.42-.36 8.42-8.31 16.11-8.31 1.07 0 2.2.16 3.38.51 4.89 1.45 8.02 3.39 12.97 3.39s11.36-1.83 22.94-7.69c9.75-4.93 16.49-13.47 16.49-13.48.2-.64.87-1.1 1.7-1.77 6.57-6.58 11.3-6.58 12.65-15.52 1.35-8.94-.34-23.27-2.36-26.3-.62-.93-.98-2.31-1.17-3.77 0 0-3.9 2.12-9.22 2.12-2.63 0-5.61-.52-8.64-2.06-3.31-1.68-8.37-6.75-13.42-6.75-1.26 0-2.52.32-3.76 1.08-5.28 3.28-.18 11.81-7.26 11.81-1.2 0-2.74-.24-4.75-.8-3.94-1.09-6.14-2.13-7.31-3.29-.91-.9-1.19-1.87-1.19-2.99 0-1.88.81-4.18.81-7.29 0-1-.08-2.08-.31-3.27-.47-2.56-1.17-4.04-1.97-4.78-.48-.45-1.01-.64-1.55-.64Z" class="cls-4"/><path d="M383.57 206.8c-1.1 0-2.56-.25-4.35-.75-3.47-.96-5.65-1.91-6.65-2.91-.54-.53-.75-1.07-.75-1.92 0-.69.14-1.52.31-2.49.24-1.37.5-2.93.5-4.81 0-1.2-.11-2.36-.33-3.55-.5-2.72-1.29-4.55-2.42-5.6-.73-.68-1.62-1.04-2.57-1.04-2.25 0-4.32 1.98-5.84 3.43-.29.28-.56.54-.8.75-.74.65-1.43 1.7-2.3 3.02-1.78 2.71-4.22 6.41-7.43 6.41-.52 0-1.07-.1-1.64-.28-.51-.17-.98-.46-1.44-.9-2.67-2.53-3.87-9.05-4.15-14.87.77.07 1.67.12 2.7.12 5.31 0 22.62-1.57 22.62-21.74v-.12c-.05-.5-1.06-12.26-6.1-18.05-2.33-2.69-2.99-6.99-1.57-10.24.78-1.77 2.48-3.89 6.21-3.99h.46c3.03 0 4.98.79 6.71 1.48 1.35.54 2.62 1.06 4.09 1.06 2.01 0 3.99-.97 6.42-3.15 2.46-2.21 4.9-3.38 7.04-3.38.63 0 1.15.1 1.54.22 2.37 3.53 5.23 5.25 8.73 5.25.3 0 .61-.01.93-.04.54-.05 1.09-.07 1.63-.07 7.39 0 14.03 4.54 15.44 10.55.55 2.34 1.84 4.49 3.2 6.78 2.85 4.77 5.8 9.7 2.51 17.17-1.48 3.35-3.03 5.92-4.41 8.17-3.41 5.61-5.87 9.66-2.23 18.49l.04.1c1.35 2.72 3.56 4.63 4.87 5.59-.45 1.78-.37 4.27-.27 5.7-1.36.57-4.19 1.54-7.64 1.54-2.81 0-5.49-.64-7.96-1.89-.89-.45-2.02-1.24-3.21-2.08-3.06-2.15-6.88-4.84-10.89-4.84a8.5 8.5 0 0 0-4.55 1.31c-3.03 1.89-3.34 5.04-3.59 7.58-.3 3.04-.5 4-2.88 4Z" class="cls-3"/><path d="M392.28 124.78c.24 0 .45.02.64.05 2.58 3.6 5.82 5.42 9.63 5.42.35 0 .71-.02 1.07-.05.5-.04 1-.07 1.5-.07 6.71 0 12.72 4.04 13.98 9.4.6 2.57 2.01 4.92 3.38 7.2 2.78 4.65 5.4 9.03 2.42 15.79-1.44 3.26-2.97 5.78-4.32 8-3.5 5.76-6.26 10.31-2.34 19.84l.04.1.05.1c1.25 2.51 3.13 4.38 4.55 5.54-.04.34-.07.66-.1.95-.09 1.01-.12 2.08-.08 3.13-1.41.49-3.56 1.04-6.06 1.04s-5.02-.58-7.28-1.73c-.8-.41-1.88-1.17-3.02-1.97-3.24-2.28-7.27-5.11-11.75-5.11-1.9 0-3.7.52-5.34 1.53-3.66 2.28-4.04 6.15-4.29 8.71-.08.83-.22 2.23-.44 2.51 0 0-.23.13-.95.13-.96 0-2.29-.23-3.95-.69-3.95-1.09-5.44-1.98-6-2.53-.22-.22-.3-.35-.3-.85 0-.57.13-1.34.29-2.23.23-1.36.52-3.06.52-5.06 0-1.3-.12-2.55-.36-3.81-.57-3.1-1.49-5.14-2.87-6.43-1.01-.94-2.26-1.44-3.59-1.44-2.85 0-5.18 2.22-6.88 3.85-.28.26-.53.51-.76.71-.89.79-1.67 1.96-2.56 3.32-1.59 2.42-3.77 5.74-6.18 5.74-.37 0-.75-.07-1.17-.21-.29-.1-.57-.28-.87-.57-1.81-1.72-3.13-6.33-3.58-12.18.36.01.73.02 1.1.02 3.41 0 9.95-.56 15.36-4.32 3.99-2.77 8.75-8.3 8.75-18.92v-.25c-.05-.52-1.11-12.75-6.47-18.91-1.94-2.24-2.51-5.95-1.33-8.65.88-1.99 2.51-3.03 4.87-3.09h.42c2.73 0 4.47.7 6.15 1.37 1.42.57 2.89 1.17 4.65 1.17 2.41 0 4.7-1.09 7.43-3.53 2.76-2.48 4.81-3 6.04-3m0-3.02c-1.96 0-4.72.78-8.04 3.77-2.32 2.08-3.95 2.77-5.42 2.77-2.84 0-5.13-2.54-10.8-2.54h-.49c-9.07.24-10.5 11.22-5.73 16.71s5.73 17.19 5.73 17.19c0 16.89-12.87 20.24-21.12 20.24-1.65 0-3.11-.13-4.25-.32.06 3.43.58 13.78 4.66 17.65.59.56 1.25.99 2 1.24.74.25 1.45.36 2.11.36 5.61 0 8.64-7.97 10.72-9.8 1.36-1.2 3.63-3.8 5.65-3.8.54 0 1.07.19 1.55.64.8.74 1.5 2.22 1.97 4.78.22 1.18.31 2.27.31 3.27 0 3.11-.81 5.42-.81 7.29 0 1.12.28 2.08 1.19 2.99 1.17 1.16 3.37 2.2 7.31 3.29 2 .56 3.55.8 4.75.8 7.07 0 1.98-8.52 7.26-11.81a6.925 6.925 0 0 1 3.76-1.08c5.05 0 10.11 5.07 13.42 6.75 3.03 1.54 6.01 2.06 8.64 2.06 5.33 0 9.22-2.12 9.22-2.12-.44-3.31.03-7.08.5-7.19 0 0-3.55-2.08-5.35-5.69-4.72-11.46 1.41-13.65 6.62-25.49 5.22-11.84-4.02-18.07-5.62-24.89-1.5-6.38-8.46-11.71-16.91-11.71-.58 0-1.17.03-1.76.08-.28.02-.54.04-.81.04-3.59 0-5.96-2.17-7.74-4.99-.56-.24-1.42-.48-2.52-.48Z" class="cls-4"/><path d="M327.57 329.88c0-3.38-.02-5.59-.04-6.72-.09-4.29-1.65-6.21-5.08-6.21-.54 0-1.12.04-1.8.1-.98.09-1.92.13-2.82.13-3.84 0-4.93-.82-5.17-1.07-2.69-2.8-5.52-4.27-8.2-4.27-.62 0-1.23.08-1.81.24-1.49.41-2.93.61-4.27.61-1.84 0-3.55-.39-5.07-1.15-2.07-1.03-4.64-1.56-7.63-1.56-2.38 0-4.94.34-7.39.98-1.24.32-2.33.77-3.29 1.17-1.38.57-2.57 1.06-3.86 1.06s-2.62-.47-4.23-1.48c-2.38-1.48-4.16-2.14-5.79-2.14s-2.78.59-4.08 1.22c-.72.35-1.47.71-2.39 1.04-.78.28-1.56.43-2.32.43-1.09 0-1.98-.29-2.6-.59 8.33-16.65 6.6-28.94 4.59-43.12-.5-3.52-1.01-7.16-1.4-11.04-1.88-18.79-10.34-31.95-13.47-34.84-.31-1.59-.96-7.27 4.06-11.86 1.65-1.51 3.34-2.27 5.01-2.27 3.48 0 6.79 3.4 8.25 8.47 2.53 8.82 12.83 9.31 18.98 9.6l.39.02c4.91.23 18.17 3.15 20.61 13.69 2.84 12.31 9.17 20.52 14.14 24.09 1.72 1.23 3.19 2.71 4.61 4.15 2.5 2.51 4.65 4.68 7.39 4.68.47 0 .94-.07 1.41-.2 1.56-.45 2.65-1.45 3.71-2.42 1.78-1.62 3.62-3.3 8.29-3.3h.04c-1.35 3.49-1.49 5.91-.45 7.53 1.15 1.79 3.27 1.92 4.19 1.93-3.45 7.02-9.14 19.46-9.14 24.99 0 1.68.11 3.82.22 6.09.35 6.96.87 17.48-1.79 20.93-.28.37-.91.74-1.75 1.06Z" class="cls-3"/><path d="M248.5 210.07c2.76 0 5.55 3.04 6.8 7.39 2.83 9.86 14.23 10.39 20.35 10.68l.39.02c2.76.13 7.12 1 11.05 3.03 4.5 2.32 7.25 5.52 8.17 9.51 2.94 12.72 9.53 21.24 14.72 24.98 1.62 1.16 3.04 2.6 4.42 3.99 2.62 2.63 5.09 5.12 8.45 5.12.61 0 1.23-.09 1.83-.26 1.89-.55 3.17-1.72 4.3-2.75 1.38-1.26 2.61-2.38 5.18-2.76-.8 2.88-.65 5.02.42 6.69.73 1.14 1.8 1.92 3.2 2.31-3.79 7.87-8.39 18.51-8.39 23.79 0 1.72.11 3.88.22 6.17.26 5.3.67 13.59-.55 17.91 0-1.22-.02-2.14-.03-2.74-.1-5.1-2.32-7.68-6.58-7.68-.6 0-1.21.04-1.94.11-.93.08-1.83.13-2.68.13-2.72 0-3.89-.46-4.09-.61-2.98-3.1-6.18-4.73-9.28-4.73-.75 0-1.5.1-2.21.29-1.36.37-2.67.56-3.88.56-1.61 0-3.09-.33-4.4-.99-2.28-1.14-5.07-1.71-8.3-1.71-2.51 0-5.19.36-7.77 1.03-1.34.35-2.48.82-3.48 1.23-1.28.53-2.3.95-3.29.95s-2.09-.41-3.44-1.25c-2.63-1.64-4.66-2.37-6.59-2.37s-3.34.7-4.73 1.37c-.69.33-1.4.68-2.25.98-.62.22-1.23.34-1.81.34-.16 0-.32 0-.48-.02 7.65-16.25 5.93-28.42 3.95-42.4-.5-3.5-1.01-7.13-1.39-10.97-1.71-17.11-9.3-31.23-13.57-35.45-.25-1.81-.36-6.31 3.67-9.99 1.36-1.25 2.71-1.88 4-1.88m.01-3.02c-1.94 0-4 .81-6.03 2.66-6.57 6-4.4 13.79-4.4 13.79 1.69.77 11.33 14.2 13.33 34.16 2 19.95 7.32 33.59-3.66 54.54 0 0 1.75 1.56 4.56 1.56.85 0 1.81-.14 2.84-.52 2.68-.97 4.03-2.18 5.95-2.18 1.25 0 2.74.51 5 1.92 2.02 1.26 3.61 1.71 5.03 1.71 2.6 0 4.6-1.51 7.53-2.28 2.19-.57 4.64-.93 7.01-.93 2.53 0 4.98.41 6.96 1.4 1.95.97 3.93 1.3 5.74 1.3s3.39-.32 4.67-.67c.46-.13.93-.19 1.42-.19 2.23 0 4.71 1.31 7.11 3.81 1.14 1.19 3.74 1.53 6.25 1.53 1.03 0 2.05-.06 2.95-.14.6-.05 1.16-.1 1.67-.1 2.15 0 3.5.77 3.58 4.74.03 1.49.04 4.79.04 8.68 1.33-.29 3.5-.94 4.43-2.14 3.88-5.04 1.88-20.72 1.88-27.94 0-6.05 7.67-21.75 10.16-26.67-.73.09-1.54.18-2.33.18-2.9 0-5.41-1.31-1.7-9.34-.81-.08-1.56-.11-2.26-.11-8.1 0-8.94 4.76-12.42 5.77-.33.1-.66.14-.99.14-3.43 0-6.4-5.15-11.12-8.54-5.17-3.71-10.98-12.07-13.55-23.21-2.57-11.14-16-14.57-22-14.86-6-.29-15.71-.57-18-8.53-1.58-5.5-5.34-9.56-9.69-9.56Z" class="cls-4"/><path d="M89.4 250.31c-2.86-5.33-8.81-8.73-19.02-10.9-2.36-.5-4.5-.74-6.55-.74-4.42 0-8.17 1.12-13.35 2.66-1.42.42-2.95.88-4.64 1.36-2.77.78-5.1 1.16-7.13 1.16-2.8 0-4.61-.71-6.71-1.52-1.17-.45-2.37-.92-3.79-1.28-1.34-.34-2.45-.75-3.42-1.12-1.4-.53-2.61-.99-3.94-.99-1.71 0-3.28.77-5.08 2.49-3.72 3.67-8.29 7.85-9.48 8.5-.67-.03-2.18-.34-3.34-1.53-1.01-1.04-1.5-2.51-1.45-4.37l.03-1.14c.1-4.95.1-5.14 7.89-12.3 23.38-21.5 24.63-24.79 25.04-25.87.53-1.39.55-2.93.56-4.42.04-2.87.07-5.58 3.39-7.66 1.55-.98 2.48-2.18 2.74-3.58.48-2.52-1.27-4.9-2.82-7-.87-1.18-1.85-2.52-1.93-3.31-.19-1.96.95-3.63 4.27-8.16 1.11-1.52 2.5-3.41 4.07-5.68 1.69-2.45 3.58-5.63 5.76-9.31 2.26-3.82 4.81-8.13 7.73-12.58 2.42-.32 7.17-.86 11-.86s4.44.54 4.47.56c.51.45 1 .99 1.57 1.61 1.97 2.16 4.66 5.12 11.28 7.53 3.11 1.13 5.97 2.01 8.49 2.79 4.01 1.24 7.18 2.21 9 3.47 1.74 1.2 3.98 1.35 6.59 1.52 3.05.2 6.84.44 10.91 2.54l.1.05.11.04c2.73.91 5.44 1.12 7.83 1.31 3.98.31 6.49.62 8 2.82 1.7 2.48 3.74 3.7 5.38 4.68 1.73 1.03 2.98 1.78 3.59 3.62 1.07 3.2 3.57 10.71 9.54 10.7 1.18 0 2.41-.31 3.67-.92 3.59-1.73 5.92-4.71 7.97-7.34 1.8-2.31 3.36-4.31 5.08-4.4.7-.04 1.36-.06 1.98-.06 2.21 0 2.96.37 3.19.67.27.35.26 1.14-.02 2.22-.12.46-.27.95-.42 1.46-1.4 4.68-3.74 12.52 6 22.49 8.78 9 16.36 14.74 20.79 15.76.62.14 1.28.21 2.06.21.36 0 .71-.01 1.07-.03.31-.01.63-.03.94-.03.82 0 1.41.1 1.96.33.92.38 1.82 1.17 2.75 2.42 1.45 1.93 2.9 2.98 3.95 3.75 1.32.95 1.3 1.05 1.26 1.4-.07.49-.36 1.21-.87 2.15-2.08 3.81-11.55 7.69-18.76 7.69-1.08 0-2.05-.09-2.88-.27-1.88-.4-4.19-1.09-6.63-1.82-4.47-1.33-9.09-2.71-12.28-2.71-2 0-3.4.56-4.17 1.68-1.57 2.27-2.84 3.59-4.66 3.59-1.22 0-2.7-.59-4.41-1.75l-.28-.19-.33-.05c-.24-.04-.47-.05-.69-.05-2.32 0-3.42 1.83-4.22 3.17-.53.87-1.02 1.7-1.66 1.87-2.74-.01-18.6-9.28-21.61-12.04-.67-.61-1.53-.93-2.5-.93-3.18 0-7.27 3.41-11.2 6.9-.67.6-1.25 1.11-1.6 1.39-1.03.8-4.32 1.4-6.73 1.85-2.42.44-3.96.74-4.91 1.22-1.69.84-2.63 3.24-3.72 6-.58 1.48-1.19 3.02-1.79 3.88-.62.89-5.27 3.01-13.02 5.43Z" class="cls-3"/><path d="M69.23 143.64c2.41 0 3.35.23 3.63.32.4.37.82.83 1.3 1.36 2.07 2.27 4.91 5.39 11.88 7.93 3.15 1.14 6.02 2.03 8.56 2.81 3.73 1.15 6.96 2.15 8.58 3.27 2.08 1.44 4.64 1.6 7.34 1.78 3.06.2 6.52.42 10.32 2.38l.21.11.22.07c2.9.97 5.71 1.19 8.18 1.38 3.74.29 5.75.52 6.88 2.17 1.88 2.75 4.08 4.06 5.85 5.12 1.74 1.04 2.52 1.55 2.94 2.8 1.07 3.21 3.91 11.73 10.96 11.73 1.4 0 2.86-.36 4.32-1.06 3.91-1.88 6.45-5.14 8.5-7.76 1.45-1.85 2.94-3.77 3.97-3.83.78-.04 1.39-.06 1.91-.06 1.02 0 1.58.08 1.88.15-.02.18-.06.46-.16.85-.12.45-.26.92-.41 1.42-1.49 5-3.99 13.36 6.36 23.97 9.11 9.33 16.75 15.07 21.52 16.18.74.17 1.5.25 2.4.25.38 0 .75-.01 1.13-.03.29-.01.59-.02.88-.02.62 0 1.02.06 1.39.21.66.27 1.37.92 2.13 1.93 1.58 2.11 3.2 3.29 4.27 4.06.17.12.36.26.53.39-.1.26-.27.65-.58 1.22-1.83 3.36-10.8 6.91-17.45 6.91-.97 0-1.83-.08-2.56-.23-1.82-.39-4.1-1.07-6.51-1.79-4.57-1.36-9.3-2.77-12.71-2.77-2.52 0-4.34.78-5.41 2.32-1.52 2.2-2.39 2.94-3.42 2.94-.63 0-1.75-.26-3.56-1.49l-.56-.38-.67-.1c-.31-.05-.61-.07-.91-.07-3.17 0-4.63 2.44-5.51 3.9-.2.33-.47.78-.68 1.05-3.59-.92-17.41-8.91-20.29-11.55-.95-.87-2.16-1.33-3.52-1.33-3.71 0-7.88 3.44-12.19 7.27-.62.55-1.21 1.08-1.53 1.32-.8.59-4.23 1.22-6.08 1.56-2.55.47-4.18.78-5.31 1.35-2.2 1.1-3.29 3.87-4.44 6.8-.51 1.29-1.08 2.74-1.57 3.49-.89.8-4.97 2.59-11.16 4.58-3.27-5.13-9.4-8.45-19.4-10.58-2.46-.52-4.71-.78-6.86-.78-4.64 0-8.47 1.14-13.78 2.72-1.45.43-2.94.88-4.62 1.35-2.64.74-4.84 1.11-6.72 1.11-2.51 0-4.21-.66-6.17-1.42-1.21-.47-2.46-.95-3.97-1.33-1.26-.31-2.27-.7-3.26-1.07-1.48-.56-2.87-1.09-4.47-1.09-2.76 0-4.81 1.66-6.15 2.94-3.23 3.18-7.24 6.89-8.78 8.01-.48-.11-1.26-.38-1.89-1.02-.72-.74-1.06-1.84-1.03-3.28l.03-1.15q.09-4.5 7.4-11.23c23.64-21.73 24.94-25.15 25.43-26.44.62-1.63.64-3.31.66-4.94.04-3.13.17-4.83 2.68-6.41 1.92-1.21 3.07-2.74 3.42-4.57.6-3.16-1.44-5.94-3.08-8.17-.62-.84-1.55-2.11-1.64-2.56-.14-1.42.92-2.94 3.99-7.13 1.12-1.53 2.51-3.43 4.09-5.71 1.73-2.49 3.62-5.69 5.82-9.4 2.15-3.64 4.57-7.72 7.31-11.94 2.39-.3 6.7-.77 10.12-.77m.02-3.02c-4.37 0-9.93.7-11.87.97-5.92 8.98-10.35 17.4-13.84 22.44-6.07 8.77-8.94 11.3-8.6 14.84.34 3.54 8.6 8.77 2.7 12.48-5.9 3.71-3.2 9.28-4.55 12.82-1.35 3.54-15.85 17.2-24.66 25.3-8.81 8.09-8.24 8.09-8.41 14.5-.16 6.04 4.62 7.44 6.31 7.44.1 0 .19 0 .27-.01 1.35-.17 10.22-8.91 10.22-8.91 1.61-1.54 2.82-2.07 4.04-2.07 1.86 0 3.73 1.25 7 2.07 3.81.95 6.14 2.84 10.87 2.84 1.99 0 4.41-.34 7.54-1.22 7.81-2.2 12.21-3.96 17.58-3.96 1.89 0 3.91.22 6.23.71 12.08 2.58 16.59 6.69 18.54 11.25 2.66-.81 13.52-4.21 15.04-6.38 1.73-2.48 2.97-8.42 4.95-9.41s9.65-1.49 11.88-3.22c1.92-1.49 8.27-7.96 11.88-7.96.58 0 1.08.16 1.49.54 2.87 2.63 19.13 12.42 22.69 12.42.13 0 .24-.01.33-.04 2.59-.71 2.72-4.99 5.48-4.99.15 0 .3.01.46.04 2.11 1.44 3.83 2.01 5.25 2.01 2.74 0 4.42-2.12 5.89-4.24.51-.74 1.55-1.03 2.94-1.03 4.67 0 13.25 3.35 18.6 4.5.96.2 2.03.3 3.19.3 7.23 0 17.52-3.78 20.08-8.47.64-1.17.95-2 1.04-2.67-.67.03-1.07.05-1.07.05s.4-.02 1.07-.05c.32-2.43-2.58-2.36-5.5-6.25-1.21-1.62-2.32-2.46-3.38-2.9-.34.54-.54.85-.54.85s.2-.31.54-.85c-.87-.36-1.71-.44-2.54-.44-.67 0-1.34.05-2.01.05-.56 0-1.14-.04-1.73-.17-3.22-.74-9.9-4.95-20.05-15.35-10.15-10.4-6.44-17.82-5.2-22.53 1.05-3.98-1.09-4.77-4.62-4.77-.64 0-1.34.03-2.06.06-4.7.25-6.93 8.66-13.62 11.88-1.11.53-2.11.77-3.02.77-4.6 0-6.88-5.96-8.12-9.68-1.49-4.46-5.94-3.96-9.16-8.66s-9.9-2.48-16.59-4.7c-7.67-3.96-14.11-1.73-17.33-3.96-3.22-2.23-9.65-3.47-17.82-6.44s-9.9-6.68-12.38-8.86c-.79-.69-2.92-.93-5.45-.93Z" class="cls-4"/><path d="M410.71 425.6c-8.39 0-25.42-6.7-34.57-10.29-4.51-1.77-6.54-2.56-7.44-2.69-.41-.06-1.13-.33-1.89-.62-1.64-.63-3.88-1.49-6.29-1.49-3.92 0-7.13 2.25-9.53 6.68-2.36 4.35-4.67 4.91-6.43 4.91-1.54 0-3.21-.51-4.83-1-1.69-.51-3.44-1.04-5.16-1.04-4.31 0-8.11 1.84-9.93 2.89-.13-.09-.26-.17-.4-.25 2.13-8.41 7.51-14.11 10.79-17.58 1.13-1.2 2.02-2.14 2.6-2.97 1.29-1.86 1.56-4.24 1.82-6.55.26-2.31.51-4.5 1.67-6.09 1.11-1.51 3.19-3.48 5.59-5.75 3.13-2.95 7.02-6.62 10.68-11.07 1.69-2.05 2.37-3.94 2.09-5.79-.45-2.98-3.25-4.83-5.95-6.62-1.86-1.23-3.79-2.51-4.36-3.86-1.43-3.39-3.74-7.9-7.3-7.9-1.27 0-2.52.58-3.71 1.72-3.73 3.58-5.07 4.74-8.46 5.23-.16.02-.3.03-.44.03-1.66 0-1.75-2.07-1.75-2.48 0 0 .05-11.13.04-19.99 1.95-.57 3.33-1.37 4.12-2.4 3.33-4.33 2.82-14.63 2.41-22.91-.11-2.23-.21-4.34-.21-5.94 0-4.45 4.91-15.83 9.63-25.27 1.68-.26 3.27-1.56 5.27-3.18 2.79-2.27 6.26-5.08 10.47-5.08.97 0 1.96.15 2.95.44 1.43.43 2.71.9 3.95 1.35 2.94 1.08 5.71 2.1 9.44 2.1 5.61 0 12.9-2.42 23.63-7.86 7.06-3.57 12.53-8.9 15.2-11.81.19.3.4.58.62.86.5.66.88 1.35 1.25 2.01 1.18 2.14 2.4 4.36 7.05 4.81.86.08 1.93.15 3.12.22 4.62.28 14.23.87 14.96 4.02.14.48.11.63.11.63-.3.39-2.57.98-4.77 1.54l-.32.08c-1.38.36-3.26.57-5.24.8-5.59.64-11.93 1.36-12.73 5.97-.13.75-.29 1.46-.45 2.14-.85 3.75-1.74 7.63 4.68 11.11 1.35 1.67 1.04 4.07.53 5.81-.13.46-.69.8-1.58 1.3-1.67.94-4.45 2.51-2.58 7.11.64 1.57 1.48 3.25 3.38 3.25.71 0 1.39-.25 2.18-.54 1.31-.48 3.1-1.14 6.13-1.14.92 0 1.9.06 2.92.18 1.52.45 3.28 4.55 5.14 8.9 1.28 2.99 2.52 4.45 3.52 5.63 1.02 1.21 1.76 2.08 2.31 4.41l.03.11c1.57 4.92 5.75 8.31 11.46 9.29 4.37.75 4.93 1.66 4.99 1.83.07.19-.07.69-.69 1.5-.89 1.14-2.74 2.79-4.53 4.39-3.64 3.24-5.88 5.34-6.36 7.12-.63 2.35-1.8 6.72 5.19 9.05.88.29 1.74.56 2.54.81 4.35 1.34 6.52 2.12 7.21 4.82-.21 3.1-1.01 5.01-2.44 5.82-.68.37-3.63.56-8.76.56h-4.11c-2.99 0-5.05.04-6.12.29l-.58.14-.33.49c-.19.28-.34.56-.45.83-2.34 1.4-6.89 4.85-9.44 11.64-1.66 4.44-.63 8.84.19 12.38.52 2.23 1.01 4.34.46 5.22-.08.12-.3.49-1.31.71-6.18 1.4-12.33 3.23-13.68 8.91-.35 1.48-.19 3.39 0 5.6.56 6.46.52 11.12-5.13 12.33-.58.12-1.29.19-2.09.19Z" class="cls-3"/><path d="M414.27 254.83c.25.4.48.81.72 1.24 1.17 2.13 2.78 5.05 8.22 5.58.9.09 1.95.15 3.17.23 2.95.18 6.62.41 9.59 1.07 2.04.46 3.05.97 3.54 1.33-.83.26-1.99.56-3.12.85l-.32.08c-1.28.33-3.11.54-5.04.76-5.81.66-13.05 1.48-14.04 7.2-.12.7-.28 1.39-.43 2.07-.87 3.84-1.96 8.6 5.13 12.59.76 1.2.45 2.99.15 4.08-.19.15-.62.4-.92.57-1.53.86-5.6 3.16-3.24 8.98.51 1.25 1.7 4.19 4.77 4.19.98 0 1.81-.31 2.7-.63 1.27-.47 2.85-1.05 5.62-1.05.79 0 1.64.05 2.52.15 1.01.68 2.82 4.91 4.16 8.02 1.37 3.2 2.69 4.75 3.75 6.01.99 1.17 1.53 1.81 1.99 3.78l.03.12.04.11c1.74 5.47 6.35 9.23 12.64 10.31 1.82.31 2.85.64 3.41.87-.02.02-.03.04-.05.06-.8 1.03-2.6 2.64-4.35 4.19-3.83 3.41-6.21 5.62-6.81 7.85-.65 2.42-2.17 8.08 6.17 10.86.9.3 1.76.56 2.58.82 4.28 1.32 5.63 1.9 6.14 3.53-.19 2.28-.73 3.76-1.59 4.32-.86.27-3.58.41-8.1.41h-4.11c-3.17 0-5.25.06-6.46.34l-1.15.27-.66.99c-.14.21-.26.41-.37.62-2.6 1.64-7.11 5.31-9.68 12.16-1.82 4.86-.69 9.71.14 13.25.31 1.33.77 3.31.65 4.02-.07.03-.19.07-.37.11-6.64 1.5-13.26 3.51-14.81 10.02-.41 1.72-.23 3.74-.03 6.07.62 7.17.12 9.86-3.95 10.73-.48.1-1.08.15-1.78.15-8.11 0-24.97-6.63-34.02-10.19-4.95-1.95-6.72-2.63-7.77-2.78-.26-.04-1.01-.33-1.56-.54-1.75-.67-4.14-1.59-6.83-1.59-4.52 0-8.17 2.51-10.85 7.47-2.23 4.13-4.18 4.13-5.11 4.13-1.32 0-2.81-.45-4.39-.93-1.8-.54-3.65-1.11-5.6-1.11-3.09 0-5.91.85-8.03 1.76 2.35-6.51 6.6-11.01 9.58-14.17 1.17-1.24 2.1-2.22 2.74-3.14 1.51-2.17 1.8-4.74 2.08-7.24.24-2.11.47-4.1 1.39-5.37 1.03-1.4 3.06-3.32 5.41-5.54 3.16-2.98 7.09-6.69 10.81-11.21 1.94-2.37 2.76-4.71 2.42-6.96-.55-3.64-3.77-5.77-6.61-7.64-1.52-1.01-3.41-2.26-3.81-3.19-1.73-4.11-4.28-8.82-8.68-8.82-1.67 0-3.27.72-4.75 2.14-3.54 3.4-4.69 4.4-7.63 4.82-.09.01-.16.02-.23.02h-.02c-.11-.21-.22-.66-.23-.98 0-.11.04-10.34.04-18.91 1.71-.64 2.99-1.5 3.81-2.56 3.4-4.42 3.26-13.06 2.72-23.9-.11-2.21-.21-4.3-.21-5.87 0-3.41 3.57-12.73 9.16-23.98 1.76-.53 3.37-1.84 5.19-3.32 2.74-2.23 5.85-4.75 9.53-4.75.82 0 1.67.13 2.53.38 1.38.41 2.64.87 3.86 1.32 3.07 1.13 5.97 2.19 9.96 2.19 5.94 0 13.21-2.4 24.3-8.02 6.26-3.16 11.31-7.69 14.35-10.8m.78-5.35s-6.74 8.55-16.49 13.47c-11.59 5.87-18.13 7.7-22.95 7.7s-8.07-1.93-12.96-3.39c-1.18-.35-2.31-.51-3.38-.51-7.69 0-12.69 7.94-16.11 8.3-.19.02-.4.04-.61.07-2.48 4.92-10.16 20.62-10.16 26.67 0 7.22 1.99 22.9-1.88 27.94-.93 1.21-3.11 1.85-4.43 2.14 0 9.01-.04 21.15-.04 21.15s-.03 3.99 3.25 3.99c.21 0 .42-.02.65-.05 3.94-.56 5.63-2.11 9.29-5.63.94-.91 1.83-1.3 2.67-1.3 2.4 0 4.35 3.26 5.92 6.98 2.11 5.02 14.92 6.85 8.44 14.73-6.47 7.88-13.65 13.23-16.32 16.89s-1.27 9.43-3.52 12.67-11.41 10.07-13.94 22.48h.03c.89 0 1.49.41 1.9 1.1 0 0 4.69-3.32 10.18-3.32 3.08 0 6.56 2.04 9.99 2.04 2.68 0 5.34-1.25 7.75-5.7 2.49-4.6 5.45-5.89 8.21-5.89 3.32 0 6.36 1.86 7.97 2.1 2.75.39 30.23 13 42.22 13 .89 0 1.7-.07 2.4-.22 10.17-2.16 5.19-14.5 6.28-19.04 1.08-4.54 5.84-6.28 12.55-7.79 6.71-1.51-1.51-10.6 1.73-19.26 2.63-7 7.54-10.21 9.32-11.17.02-.31.17-.63.41-.99.96-.22 3.17-.26 5.78-.26h4.11c4.2 0 8.33-.08 9.51-.76 2.36-1.35 3.04-4.38 3.2-7.25-1.01-4.55-5.23-5.06-10.79-6.91-5.57-1.86-4.89-4.72-4.22-7.24s8.26-7.94 10.63-10.98c2.36-3.04.67-4.72-5.23-5.73-5.9-1.01-9.11-4.55-10.29-8.26-1.18-5.06-3.37-4.39-5.9-10.29-2.53-5.9-4.05-9.28-6.24-9.78-1.18-.15-2.24-.21-3.19-.21-4.99 0-7.01 1.68-8.31 1.68-.75 0-1.27-.56-1.99-2.32-2.19-5.4 3.37-4.55 4.22-7.42.84-2.87.67-5.57-1.01-7.42-6.75-3.54-4.55-6.91-3.71-11.81.84-4.89 11.64-4.22 16.87-5.57 5.23-1.35 6.75-1.69 6.07-4.05-1.18-5.06-14.17-4.89-19.4-5.4-5.23-.51-5.06-3.37-7.25-6.24-1.11-1.45-1.4-2.29-1.2-2.95Z" class="cls-4"/><path d="M508.45 718.74c-1.41 0-2.99-.15-4.85-.45-9.09-1.47-31.42-17.4-32.33-21.95-.27-1.34.09-4.66.46-8.18 1.08-10.13 2.56-24-5.59-26.26-9.44-2.62-14.13-6.18-11.92-17.48.72-3.69 2.37-6.53 3.97-9.27 3.49-6.01 6.79-11.68-3.85-22.13-2.38-2.24-4.59-4.23-6.54-5.98-9.62-8.67-13.61-12.25-10.47-19.12l.07-.16.03-.17c.57-2.83.94-6.41-1.19-9.01-1.65-2.01-4.4-2.99-8.41-2.99-1.04 0-2.19.07-3.4.2-1.94.22-4.09.49-6.34.77-6.39.81-13.64 1.72-19.04 1.72-6.45 0-7.08-1.32-7.13-1.47-.83-2.48-4.35-15.53 7.54-28.84l.23-.26.09-.34c.9-3.25-1.8-7.3-4.66-11.6-1.94-2.92-4.15-6.23-3.96-7.84.48-4.08 2.95-24.41 4.06-32.45.4-2.87-1.03-6.19-4.23-9.87-4.87-5.59-13.24-11.06-15.93-11.06-2.51 0-9.29-.63-18.11-6.51-1.91-1.27-3.79-2.39-5.6-3.48-7.07-4.21-11.01-6.84-10-11.75.89-3.77.72-6.48-.54-8.49-.96-1.53-2.53-2.55-4.66-3.02-1.37-.3-2.78-.41-4.14-.51-4.28-.31-5.78-.67-5.78-3.44 0-1.19.09-2.52.18-3.93.2-2.98.39-5.83-.18-7.92 1.56-.89 4.8-2.44 8.33-2.44 1.28 0 2.74.44 4.29.91 1.83.55 3.71 1.12 5.7 1.12 3.74 0 6.7-2.12 9.07-6.48 1.86-3.44 4.12-5.11 6.89-5.11 1.86 0 3.73.71 5.22 1.29.96.37 1.79.69 2.54.79.61.09 3.74 1.32 6.76 2.51 9.99 3.93 26.71 10.5 35.67 10.5 1.01 0 1.93-.08 2.72-.25 8.68-1.85 7.97-10.08 7.5-15.52-.16-1.87-.32-3.63-.08-4.64.86-3.62 4.84-5.19 11.42-6.67 1.48-.33 2.55-1.02 3.19-2.05 1.22-1.94.62-4.52-.08-7.5-.77-3.31-1.65-7.06-.31-10.65 1.97-5.26 5.28-8.2 7.4-9.63 1.27 1.01 3.58 1.45 5.93 1.8 1.45.21 2.84.4 4.22.59 4.08.56 7.93 1.09 12.55 2.09 2.96.64 7.19 3.59 11.27 6.45 4.03 2.82 7.84 5.48 10.78 6.19.54.13 1.13.2 1.75.2 6.39 0 15.1-7.1 16.75-8.91.63-.7 2.29-1.44 5.05-1.44 2.54 0 5.45.62 8.65 1.83 2.72 1.03 4.93 1.73 6.7 2.29 3.76 1.18 5.65 1.78 7.56 3.89.77.85 1.26 2.12 1.82 3.59 1.47 3.83 3.48 9.05 12.52 13.65.64.77 1.21 2.02 1.82 3.33 1.54 3.34 3.65 7.91 9.05 9.23 7.23 1.76 8.9 9.7 9.16 11.27.13.8.11 1.82.08 2.89-.09 3.88-.22 9.18 6.81 12.31 2.38 2.33 3.85 12.08 1.07 21.4-1.77 5.92-9.09 9.96-14.45 12.91-2.91 1.6-5 2.76-5.91 4.01-.08.11-8.03 11.51 2.61 30.45 4.38 7.8 9.76 16.85 14.07 24.11 3.86 6.5 7.19 12.1 7.97 13.75.46.96.83 2.56 1.22 4.25.98 4.22 2.2 9.48 6.09 11.89.91.56 1.84 1.21 2.84 1.89 4.06 2.8 9.12 6.28 15.76 6.28.27 0 .54 0 .81-.02h.36c.93 0 1.58.17 1.83.48.56.69.1 2.8-.26 4.49-.55 2.56-1.12 5.21.09 7.28 2.44 4.19 4.06 6.18 6.93 8.5.69.56 1.25 1.82.84 3.25-.62 2.22-3.27 3.81-7.26 4.37h-.23c-2.82 0-3.77-.73-4.97-1.65-1.47-1.13-3.13-2.41-7.45-2.41-1.85 0-4.05.23-6.73.7-2.71.48-4.66 1.62-5.78 3.39-2.3 3.62-.84 8.97.85 15.17 2.06 7.54 4.39 16.09-.22 22.15-3.76 4.94-6.22 7.05-8.01 8.59-3.66 3.14-5.08 4.8-8.25 16.17l-.5 1.79c-4.8 17.35-9.33 33.74-33.06 39.04-1.4.32-2.68.38-3.93.43-4.01.19-7.79.36-13.46 7.98-2.36 3.34-4.55 5.13-9.41 5.13Z" class="cls-3"/><path d="M442.56 373.49c1.76.91 4.06 1.25 5.64 1.48 1.45.21 2.85.41 4.24.6 4.05.56 7.88 1.08 12.43 2.07 2.66.58 6.95 3.57 10.73 6.21 4.15 2.9 8.08 5.64 11.29 6.42.66.16 1.37.24 2.1.24 7.46 0 16.79-8.23 17.86-9.4.24-.26 1.42-.95 3.94-.95 2.33 0 5.13.6 8.12 1.73 2.76 1.05 4.99 1.75 6.78 2.32 3.61 1.14 5.26 1.66 6.9 3.47.58.65 1 1.74 1.54 3.12 1.46 3.78 3.64 9.46 12.94 14.29.46.66.96 1.73 1.44 2.78 1.67 3.62 3.95 8.57 10.05 10.05 6.31 1.54 7.8 8.65 8.04 10.06.11.66.09 1.61.06 2.61-.09 3.77-.24 10.02 7.42 13.58 1.58 1.94 3.27 10.54.53 19.73-1.59 5.33-8.61 9.2-13.73 12.03-3.19 1.76-5.3 2.92-6.4 4.45-3.02 4.18-6.37 16.25 2.52 32.07 4.39 7.82 9.77 16.87 14.09 24.14 3.84 6.46 7.16 12.05 7.91 13.63.39.81.74 2.33 1.11 3.95 1.04 4.49 2.34 10.09 6.76 12.83.88.54 1.8 1.18 2.78 1.85 4.23 2.91 9.51 6.54 16.61 6.54.29 0 .58 0 .87-.02h.29c.26 0 .46.02.59.04.02.73-.29 2.19-.49 3.12-.58 2.71-1.24 5.78.26 8.35 2.52 4.32 4.29 6.48 7.28 8.91.28.22.57.9.35 1.68-.44 1.58-2.66 2.8-5.94 3.28h-.11c-2.31 0-2.93-.48-4.05-1.34-1.49-1.15-3.54-2.72-8.37-2.72-1.93 0-4.22.24-6.99.72-3.14.55-5.43 1.92-6.79 4.07-2.65 4.18-1.11 9.83.67 16.37 2.06 7.56 4.19 15.38.03 20.84-3.67 4.81-5.96 6.78-7.8 8.36-3.75 3.21-5.4 4.99-8.71 16.91l-.5 1.79c-4.88 17.64-9.09 32.87-31.95 37.98-1.26.29-2.43.34-3.66.4-4.98.23-8.94.98-14.59 8.59l-.02.03-.02.03c-2.14 3.03-3.9 4.47-8.16 4.47-1.32 0-2.83-.14-4.61-.43-3.63-.59-10.98-4.36-18.3-9.4-8.94-6.15-12.49-10.34-12.8-11.37-.22-1.12.15-4.63.48-7.72 1.14-10.66 2.7-25.26-6.68-27.87-8.95-2.49-12.86-5.48-10.85-15.75.67-3.44 2.26-6.17 3.8-8.81 4.32-7.43 6.56-13.5-4.1-23.95l-.02-.02-.02-.02c-2.37-2.23-4.59-4.23-6.54-5.99-9.93-8.94-12.67-11.77-10.11-17.38l.15-.32.07-.34c.58-2.91 1.06-7.13-1.51-10.26-1.92-2.35-5.14-3.54-9.56-3.54-1.1 0-2.3.07-3.57.21-1.96.22-4.1.49-6.37.77-6.35.8-13.55 1.71-18.85 1.71-4 0-5.4-.53-5.8-.74-.52-1.67-1.42-5.53-.73-10.56.81-5.88 3.53-11.44 8.06-16.51l.47-.52.19-.67c1.09-3.91-1.8-8.24-4.86-12.83-1.42-2.13-3.79-5.69-3.71-6.83.48-4.09 2.95-24.44 4.05-32.42.46-3.32-1.09-7.04-4.59-11.06-5.34-6.12-13.99-11.57-17.06-11.57-2.37 0-8.8-.61-17.28-6.26-1.94-1.29-3.84-2.42-5.67-3.52-7.34-4.38-10.06-6.39-9.3-10.12.62-2.66 1.21-6.53-.73-9.62-1.18-1.88-3.07-3.13-5.61-3.69-1.47-.33-2.94-.43-4.36-.54-4.39-.32-4.39-.6-4.39-1.95 0-1.14.09-2.45.18-3.83.17-2.6.34-5.11.02-7.23 1.59-.79 4.04-1.74 6.63-1.74 1.05 0 2.41.41 3.86.85 1.84.56 3.92 1.19 6.13 1.19 4.34 0 7.74-2.38 10.38-7.27 2.1-3.88 4.19-4.32 5.58-4.32 1.58 0 3.23.63 4.69 1.19 1.03.39 1.92.73 2.81.87.72.17 3.64 1.32 6.48 2.43 10.09 3.97 26.97 10.6 36.22 10.6 1.12 0 2.14-.1 3.03-.29 9.98-2.12 9.13-11.88 8.68-17.12-.14-1.59-.29-3.39-.11-4.17.6-2.52 3.29-3.98 10.29-5.56 1.88-.42 3.27-1.34 4.13-2.71 1.55-2.47.85-5.47.11-8.64-.72-3.1-1.55-6.62-.36-9.78 1.61-4.28 4.21-6.92 6.08-8.36m.42-3.85c-1.78.97-6.69 4.17-9.32 11.17-3.25 8.66 4.98 17.74-1.73 19.26-6.71 1.51-11.47 3.25-12.55 7.79s3.9 16.88-6.28 19.04c-.7.15-1.51.22-2.4.22-11.99 0-39.47-12.61-42.22-13-1.61-.23-4.65-2.1-7.97-2.1-2.76 0-5.72 1.29-8.21 5.89-2.41 4.45-5.06 5.7-7.75 5.7-3.43 0-6.91-2.04-9.99-2.04-5.49 0-10.18 3.32-10.18 3.32 1.41 2.42.35 8.3.35 12.47 0 5.95 6.22 4.33 11.1 5.41 4.87 1.08 5.14 5.14 4.06 9.74-1.62 7.85 7.31 10.83 16.24 16.78 8.93 5.95 15.97 6.77 18.94 6.77s19.76 11.37 18.67 19.22-3.52 27.88-4.06 32.48 10.01 14.34 8.66 19.22c-11.37 12.72-9.47 25.44-7.85 30.31.62 1.86 3.97 2.5 8.55 2.5 7.4 0 18.03-1.66 25.55-2.5 1.19-.13 2.27-.19 3.24-.19 8.98 0 9.1 5.32 8.13 10.21-4.33 9.47 3.52 13.8 17.32 26.79 14.34 14.07 1.89 17.59-.54 30.04s3.25 16.51 12.99 19.22c9.74 2.71 2.98 27.88 4.06 33.29 1.08 5.41 24.36 21.65 33.56 23.14 1.94.31 3.62.47 5.09.47 5.49 0 8.05-2.11 10.61-5.74 7.04-9.47 10.56-6.5 16.51-7.85 25.44-5.68 29.6-23.65 34.68-41.89 5.07-18.25 5.56-10.53 16.01-24.25s-11.13-37.44 4.22-40.14c2.74-.48 4.83-.68 6.47-.68 7.45 0 5.61 4.05 12.42 4.05h.34c9.95-1.35 9.95-8.1 7.25-10.29-2.7-2.19-4.22-4.05-6.58-8.1-2.32-3.98 4.47-13-2.96-13H607c-.25.01-.5.02-.74.02-7.7 0-13.07-5-17.81-7.94-4.89-3.04-5.06-11.97-6.75-15.52-1.69-3.54-13.66-22.94-22.09-37.95-8.43-15.01-4.89-25.8-2.7-28.84 2.19-3.04 17.71-7.76 20.58-17.37 2.87-9.61 1.52-20.41-1.69-23.11-8.26-3.54-5.57-10.12-6.24-14.17-.67-4.05-3.37-10.79-10.29-12.48-6.91-1.69-7.59-9.44-10.29-12.31-12.48-6.24-10.96-13.49-14.17-17.03-3.2-3.54-6.41-3.37-14.84-6.58-3.68-1.4-6.75-1.93-9.18-1.93-3.14 0-5.21.88-6.16 1.93-1.55 1.71-9.97 8.42-15.64 8.42-.49 0-.96-.05-1.4-.16-5.57-1.35-15.85-11.3-22.09-12.65-6.24-1.35-11.13-1.86-16.87-2.7-4.39-.65-5.71-1.39-5.64-2.38Z" class="cls-4"/><path d="M210.27 212.6c-.71-.15-1.35-.18-1.88-.18-.35 0-.71.01-1.06.03-.32.01-.63.03-.95.03-.56 0-.98-.04-1.39-.13-2.96-.68-9.58-4.96-19.32-14.94-8.51-8.71-6.63-14.97-5.27-19.54.16-.55.32-1.07.45-1.56.55-2.08.38-3.66-.5-4.81-1.25-1.62-3.52-1.84-5.57-1.84-.67 0-1.39.03-2.14.07-3.08.16-5.12 2.78-7.28 5.55-1.85 2.37-3.94 5.05-6.9 6.48-.85.41-1.65.62-2.37.62-3.42 0-5.46-4.94-6.69-8.65-.96-2.9-2.97-4.09-4.9-5.24-1.53-.91-3.12-1.86-4.44-3.79-2.39-3.5-6.2-3.8-10.24-4.11-2.29-.18-4.66-.37-7.01-1.13-4.59-2.34-8.69-2.6-11.98-2.82-2.25-.15-4.02-.26-5.07-.99-2.2-1.52-5.56-2.56-9.82-3.87-2.49-.77-5.3-1.64-8.35-2.74-5.93-2.16-8.24-4.69-10.09-6.73-.6-.66-1.17-1.29-1.81-1.85-.69-.61-2.05-1.3-6.44-1.3-2.87 0-6.22.29-8.79.58 4.6-6.69 9.14-12.19 13.81-16.76 13.71-13.39 15.81-15.1 24.95-15.1.47 0 .96 0 1.47.01h.29c7.78 0 12.71-4.79 18.96-10.86 3.06-2.97 6.52-6.34 10.87-9.69 17.28-13.34 40.01-22.29 69.5-27.37 3.17-.43 6.27-1.02 9.36-1.79-1.7 3.98-3.51 9.25-3.15 13 .3 3.08 1.8 4.32 3.01 5.31 1.36 1.12 2.54 2.09 2.36 6.53 0 1.36-.54 2.54-1.12 3.79-1.24 2.7-2.79 6.07 1.51 10.96l.09.11.11.09c1.6 1.23 3.34 2.07 4.88 2.8 3.39 1.62 5.63 2.69 5.63 6.75 0 3.68-1.26 6.6-2.48 9.42-1.06 2.46-2.06 4.78-2.15 7.38-.02.67-.08 1.58-.16 2.68l-.06.91c-.72 10.83-.91 24.66 4.06 35.61 6.19 13.67 3.55 24.29 1.01 28.41-2.37 3.84-9.86 15.79-12.93 20.69Z" class="cls-3"/><path d="M207.19 60.27c-1.36 3.65-2.5 7.82-2.18 11.04.36 3.7 2.28 5.28 3.55 6.32 1.22 1.01 1.96 1.61 1.81 5.31v.12c0 .97-.45 1.96-.98 3.11-1.27 2.77-3.2 6.95 1.75 12.58l.19.22.23.18c1.72 1.33 3.54 2.2 5.15 2.97 3.55 1.7 4.78 2.43 4.78 5.4 0 3.37-1.2 6.14-2.35 8.82-1.07 2.48-2.17 5.04-2.28 7.92-.02.64-.09 1.58-.16 2.66l-.06.88c-.73 11-.91 25.07 4.19 36.33 5.93 13.09 3.49 23.14 1.1 27.01-2.24 3.64-9.08 14.55-12.4 19.85-.43-.04-.81-.05-1.13-.05-.37 0-.75.01-1.12.03-.3.01-.59.02-.89.02-.44 0-.76-.03-1.05-.1-2.62-.61-9.06-4.77-18.58-14.52-7.89-8.08-6.24-13.61-4.91-18.06.17-.57.33-1.1.46-1.61.67-2.53.41-4.58-.77-6.11-1.66-2.15-4.48-2.42-6.76-2.42-.62 0-1.33.02-2.22.07-3.76.2-6.11 3.21-8.39 6.13-1.83 2.35-3.73 4.78-6.37 6.05-.65.31-1.23.47-1.72.47-2.73 0-4.64-5.74-5.27-7.63-1.14-3.42-3.59-4.88-5.56-6.06-1.52-.91-2.83-1.69-3.97-3.35-2.8-4.09-7.35-4.45-11.36-4.76-2.17-.17-4.41-.35-6.55-1.03-4.82-2.43-9.23-2.71-12.46-2.92-1.85-.12-3.61-.23-4.32-.72-2.39-1.65-5.85-2.72-10.23-4.07-2.47-.76-5.27-1.62-8.28-2.72-5.58-2.03-7.66-4.31-9.49-6.33-.63-.69-1.23-1.35-1.93-1.97-1.34-1.17-3.56-1.68-7.43-1.68-1.82 0-3.81.11-5.69.27 3.91-5.43 7.78-10 11.76-13.88 14.04-13.71 15.6-14.67 23.9-14.67.46 0 .95 0 1.45.01h.32c8.39 0 13.51-4.98 20-11.28 3.03-2.94 6.46-6.28 10.74-9.58 17.07-13.18 39.57-22.04 68.78-27.07 2.28-.31 4.5-.7 6.7-1.17m5.13-4.38c-3.52 1-7.55 1.92-12.29 2.57-36.26 6.24-56.84 17.37-70.16 27.66-13.21 10.2-18.13 20.24-28.91 20.24h-.27c-.52 0-1.01-.01-1.49-.01-9.67 0-12.02 1.87-26 15.53-6.25 6.11-11.46 13.07-15.85 19.73 1.95-.27 7.51-.97 11.87-.97 2.53 0 4.66.24 5.45.93 2.48 2.17 4.21 5.89 12.38 8.86 8.17 2.97 14.61 4.21 17.82 6.44 3.22 2.23 9.65 0 17.33 3.96 6.68 2.23 13.37 0 16.59 4.7s7.67 4.21 9.16 8.66c1.24 3.72 3.51 9.68 8.12 9.68.91 0 1.92-.23 3.02-.77 6.68-3.22 8.91-11.64 13.62-11.88.73-.04 1.42-.06 2.06-.06 3.53 0 5.67.79 4.62 4.77-1.24 4.7-4.95 12.13 5.2 22.53s16.83 14.61 20.05 15.35c.59.14 1.16.17 1.73.17.68 0 1.34-.05 2.01-.05.83 0 1.67.08 2.54.44 2.25-3.58 10.97-17.49 13.54-21.67 2.96-4.82 5.37-15.93-.93-29.82-5.26-11.61-4.45-27.08-3.93-34.89h-.78.78c.1-1.54.19-2.78.22-3.64.18-5.19 4.63-9.63 4.63-16.85s-6.3-7.04-11.09-10.74c-5.54-6.3-.02-8.89-.02-13.71.37-9.08-4.82-6.3-5.37-12.04-.45-4.61 2.96-12.27 4.33-15.12Z" class="cls-4"/><path d="M300.97 433.82c-3 0-5.09-.61-6.21-1.82-1.43-1.55-1.23-4.06-1.07-6.09.07-.84.12-1.57.07-2.21l-.04-.5c-.15-1.96-.42-5.62-4.71-5.62-1.72 0-4.03.61-7.07 1.88-.83.34-1.59.67-2.31.97-2.72 1.16-4.87 2.07-5.96 2.07-.59 0-1.15-.72-1.3-5.97.26-4.96-7.62-10.95-17.66-13.39-11.95-2.91-21.32-7.62-21.32-10.72 0-.79.11-1.37.21-1.88.15-.77.31-1.64-.27-2.47-.77-1.08-1.94-1.26-6.87-2.02-1.73-.26-3.94-.6-6.76-1.07-4.21-.7-10.74-7.14-12.53-11.42-.45-1.08-.43-1.63-.38-1.8.25-.21.5-.41.76-.62 2.13-1.69 4.78-3.79 6.05-10.66.7-2.02 1.81-3.77 2.89-5.47 1.71-2.7 3.48-5.5 3.1-8.98-.11-.96-.19-1.87-.27-2.74-.26-2.76-.47-5.08-1.16-7.26 2.96.01 7.29.35 11.45 1.86 1.63.59 2.87.87 3.9.87 3.85 0 4.18-3.48 4.55-7.52.13-1.42.28-3.03.56-4.84.83-5.27 3.46-7.32 6.26-9.5 1.07-.83 2.17-1.69 3.16-2.73.96.52 2.44 1.08 4.28 1.08 1.11 0 2.24-.21 3.35-.61 1.06-.39 1.92-.8 2.67-1.16 1.15-.56 1.91-.92 2.77-.92 1.02 0 2.36.54 4.21 1.69 2.11 1.32 3.96 1.94 5.82 1.94s3.47-.65 5-1.29c.92-.38 1.86-.77 2.91-1.04 2.21-.58 4.51-.88 6.63-.88 2.49 0 4.67.43 6.3 1.24 1.94.97 4.1 1.46 6.41 1.46 1.61 0 3.31-.24 5.06-.72.33-.09.67-.13 1.03-.13 1.81 0 3.96 1.19 6.03 3.35 1.29 1.34 3.69 1.99 7.33 1.99.98 0 2.02-.05 3.09-.15.61-.06 1.1-.09 1.53-.09 1.21 0 2.01 0 2.08 3.27.03 1.3.04 4.21.04 8.66 0 9-.04 21.14-.04 21.14 0 .26.02 2.67 1.57 4.23.82.83 1.92 1.26 3.17 1.26.27 0 .56-.02.87-.06 4.51-.64 6.5-2.56 10.12-6.03.61-.59 1.16-.88 1.63-.88.74 0 2.31.79 4.53 6.06.92 2.19 3.24 3.72 5.47 5.2 2.16 1.43 4.39 2.9 4.64 4.56.14.94-.34 2.1-1.44 3.44-3.54 4.3-7.35 7.9-10.42 10.79-2.62 2.47-4.69 4.42-5.96 6.16-1.63 2.23-1.95 5.04-2.23 7.52-.23 2.03-.45 3.94-1.31 5.17-.45.65-1.31 1.56-2.32 2.63-3.54 3.76-9.39 9.96-11.63 19.38-.25.06-.51.14-.79.24-2.67.97-3.82 2.82-4.93 4.6-1.72 2.76-3.5 5.62-12.02 6.41-.9.08-1.74.12-2.52.12Z" class="cls-3"/><path d="M261.1 314.09c.71 0 1.86.49 3.41 1.46 2.33 1.46 4.5 2.16 6.62 2.16s3.9-.71 5.57-1.4c.91-.37 1.77-.73 2.72-.98 2.09-.55 4.26-.84 6.26-.84 2.26 0 4.21.37 5.63 1.08 2.15 1.07 4.53 1.62 7.08 1.62 1.74 0 3.58-.26 5.46-.77.2-.05.41-.08.63-.08 1.38 0 3.19 1.05 4.95 2.89 1.59 1.65 4.34 2.45 8.42 2.45 1.03 0 2.11-.05 3.23-.15.57-.05 1.02-.09 1.4-.09.16 0 .28 0 .36.01.08.24.19.77.21 1.79.03 1.31.04 4.21.04 8.63h1.89-1.89c0 8.9-.04 21.01-.04 21.12 0 .54.07 3.35 2.01 5.31 1.11 1.12 2.57 1.71 4.24 1.71.35 0 .71-.03 1.08-.08 4.99-.71 7.23-2.87 10.94-6.44.29-.28.48-.4.58-.44.29.16 1.43 1.01 3.16 5.12 1.1 2.61 3.6 4.27 6.03 5.87 1.62 1.07 3.83 2.53 3.98 3.53.07.47-.35 1.32-1.12 2.26-3.47 4.23-7.25 7.79-10.29 10.65-2.68 2.52-4.79 4.52-6.14 6.37-1.87 2.55-2.21 5.57-2.51 8.24-.21 1.83-.4 3.56-1.05 4.49-.39.56-1.22 1.43-2.18 2.45-3.54 3.76-9.33 9.89-11.79 19.22-.02 0-.03.01-.05.02-3.16 1.15-4.56 3.41-5.69 5.22-1.6 2.56-3.1 4.99-10.88 5.71-.85.08-1.65.12-2.38.12-2.53 0-4.3-.46-5.11-1.34-.98-1.07-.81-3.22-.68-4.95.07-.87.13-1.69.07-2.46l-.04-.48c-.14-1.92-.52-7.01-6.21-7.01-1.95 0-4.38.63-7.64 1.99-.83.35-1.6.67-2.32.98-1.84.78-3.73 1.59-4.79 1.86-.14-.64-.3-1.9-.37-4.36.25-5.82-7.78-12.18-18.8-14.86-13.08-3.18-19.98-7.66-20.17-9.26 0-.65.09-1.13.18-1.6.16-.85.43-2.27-.52-3.61-1.14-1.6-2.7-1.84-7.87-2.63-1.75-.27-3.93-.6-6.74-1.07-4.48-.75-10.91-8.29-11.62-11.06l.15-.12c2.19-1.74 5.19-4.11 6.57-11.45.65-1.82 1.69-3.46 2.7-5.06 1.85-2.92 3.77-5.95 3.33-9.95-.1-.96-.19-1.86-.27-2.71-.19-1.98-.36-3.81-.71-5.57 2.62.14 5.87.58 9 1.72 1.8.66 3.2.96 4.41.96 5.22 0 5.68-4.92 6.04-8.88.13-1.4.28-2.99.55-4.74.74-4.68 2.92-6.39 5.7-8.55.85-.66 1.71-1.34 2.54-2.11 1.05.43 2.39.78 3.97.78 1.29 0 2.59-.24 3.86-.7 1.14-.41 2.06-.86 2.81-1.22 1.05-.51 1.62-.77 2.12-.77m-.03-3c-1.92 0-3.27 1.2-5.95 2.18-1.03.37-1.98.52-2.84.52-2.81 0-4.56-1.56-4.56-1.56-3.33 4.32-9.26 5.32-10.61 13.97-1.09 6.93-.24 11.09-3.63 11.09-.84 0-1.93-.25-3.38-.78-4.51-1.64-9.19-1.95-12.12-1.95-.83 0-1.52.03-2.02.05 1.58 3.22 1.59 6.72 2.13 11.61.54 4.93-4.06 8.33-5.95 13.91-1.35 7.47-4.33 8.77-6.5 10.66-2.44 2.98 7.31 14.61 13.8 15.7 16.05 2.68 12.45 1.08 12.45 5.95s12.45 9.74 22.46 12.18c10.01 2.44 16.78 8.12 16.51 11.91.15 5.5.71 7.49 2.8 7.49 1.71 0 4.45-1.33 8.84-3.16 3.02-1.26 5.08-1.76 6.49-1.76 3.14 0 3.07 2.5 3.25 4.74.25 3.03-2.8 11.5 8.71 11.5.81 0 1.7-.04 2.66-.13 14.61-1.35 11.37-8.93 17.32-11.1.58-.21 1.08-.31 1.51-.31 2.53-12.42 11.69-19.25 13.94-22.48 2.25-3.24.84-9.01 3.52-12.67 2.67-3.66 9.85-9.01 16.32-16.89 6.47-7.88-6.33-9.71-8.44-14.73-1.57-3.72-3.52-6.98-5.92-6.98-.83 0-1.72.4-2.67 1.3-3.66 3.52-5.35 5.07-9.29 5.63-.23.03-.45.05-.65.05-3.28 0-3.25-3.99-3.25-3.99s.05-12.14.04-21.15c-.64.14-1.09.2-1.09.2s.44-.06 1.09-.2c0-3.89-.01-7.2-.04-8.68-.08-3.98-1.43-4.74-3.58-4.74-.51 0-1.07.04-1.67.1-.9.08-1.92.14-2.95.14-2.52 0-5.11-.34-6.25-1.53-2.4-2.5-4.88-3.81-7.11-3.81-.49 0-.96.06-1.42.19-1.27.35-2.89.67-4.67.67s-3.79-.33-5.74-1.3c-1.99-.99-4.44-1.4-6.96-1.4-2.38 0-4.82.36-7.01.93-2.93.76-4.93 2.28-7.53 2.28-1.42 0-3.01-.45-5.03-1.71-2.26-1.41-3.75-1.92-5-1.92Z" class="cls-4"/><path d="M233.51 335.78c-.65 0-1.61-.23-2.87-.69-4.65-1.69-9.44-2.04-12.64-2.04-.43 0-.83 0-1.18.02-2.71-4.2-10.65-9.92-22.9-9.92-1.07 0-2.17.04-3.27.13-2.12.16-2.87 1.41-3.36 2.23-.51.86-.96 1.6-4.01 1.6-.41 0-.86-.02-1.35-.05-8.67-.56-22.42-4.18-25.38-6.68-1.33-1.13-1.54-4.02-1.73-6.58-.22-3.13-.44-6.09-2.79-6.95-.64-.23-1.5-.33-2.91-.33-1.03 0-2.25.05-3.65.11-1.8.08-3.83.16-6.02.16-6.87 0-12.19-.94-16.25-2.87-1.28-.61-2.51-1.2-3.68-1.76-8.87-4.26-14.72-7.07-21-7.32-2.7-.11-4.81-1.02-6.28-2.71-2.02-2.33-2.82-6.22-2.31-11.27.24-1.17.54-2.37.86-3.63 1.12-4.42 2.4-9.43 1.3-15.8-.14-.8-.25-1.61-.36-2.42-.27-1.96-.55-3.96-1.19-5.95 6.03-1.89 12.86-4.41 14.31-6.49.81-1.16 1.48-2.86 2.13-4.51.6-1.53 1.61-4.09 2.27-4.42.62-.31 2.47-.65 4.11-.95 3.16-.58 6.42-1.18 8.03-2.43.43-.34 1.02-.85 1.75-1.51 2.24-1.99 6.9-6.14 9.2-6.14.32 0 .42.1.48.14 2.91 2.67 19.54 12.81 23.71 12.81.26 0 .5-.03.73-.09 1.79-.49 2.71-2 3.44-3.22.75-1.25 1.1-1.69 1.6-1.72 2.11 1.38 4 2.04 5.76 2.04 3.74 0 5.86-3.06 7.12-4.88.12-.18.64-.39 1.71-.39 2.76 0 7.36 1.37 11.43 2.59 2.5.75 4.86 1.45 6.86 1.88 1.04.22 2.22.33 3.5.33 7.72 0 18.51-3.96 21.4-9.25.4-.72.69-1.36.89-1.93 2.77-.11 7.71-.28 11.58-.28 3.57 0 4.62.15 4.9.21 1.65 1.28 10.58 14.09 12.47 32.93.39 3.94.91 7.61 1.41 11.16 2.06 14.56 3.68 26.06-4.85 42.42-.95 1.2-2.17 2.15-3.46 3.15-2.98 2.32-6.36 4.96-7.37 11.4-.3 1.9-.45 3.56-.59 5.03-.4 4.35-.65 4.79-1.56 4.79Z" class="cls-3"/><path d="M232.55 226.19c2.47 0 3.66.07 4.2.12 1.86 2.06 9.88 13.74 11.67 31.67.4 3.97.92 7.65 1.42 11.22 2.02 14.25 3.61 25.52-4.62 41.39-.82 1.01-1.89 1.84-3.11 2.79-3.04 2.37-6.83 5.32-7.93 12.35-.31 1.95-.46 3.64-.6 5.13-.11 1.2-.24 2.64-.43 3.4-.38-.06-1-.2-2-.57-4.85-1.76-9.83-2.14-13.15-2.14h-.4c-1.33-1.77-3.55-3.89-6.73-5.71-4.79-2.75-10.65-4.2-16.95-4.2-1.11 0-2.24.04-3.38.13-2.89.22-4 2.07-4.53 2.96-.34.56-.52.87-2.73.87-.38 0-.8-.01-1.25-.04-8.9-.57-22-4.21-24.51-6.33-.85-.72-1.06-3.62-1.2-5.54-.24-3.31-.51-7.06-3.77-8.25-.82-.3-1.81-.42-3.42-.42-1.06 0-2.29.05-3.72.11-1.78.08-3.8.16-5.95.16-6.65 0-11.75-.89-15.61-2.72-1.28-.61-2.5-1.19-3.67-1.75-9.04-4.34-15-7.2-21.59-7.47-2.27-.09-4.02-.83-5.2-2.19-1.73-2-2.41-5.48-1.96-10.06.23-1.12.52-2.27.83-3.48 1.16-4.56 2.47-9.73 1.32-16.42-.13-.77-.24-1.54-.35-2.37-.22-1.56-.44-3.15-.83-4.76 11.72-3.79 13.14-5.82 13.7-6.62.91-1.3 1.61-3.09 2.29-4.82.46-1.17 1.21-3.07 1.69-3.68.67-.23 2.38-.54 3.55-.76 3.97-.73 6.92-1.35 8.68-2.72.47-.37 1.07-.9 1.83-1.58 4.04-3.59 6.72-5.52 7.98-5.74 3.34 2.73 19.55 12.93 24.4 12.93.39 0 .77-.05 1.12-.14 2.38-.65 3.55-2.6 4.33-3.89.12-.2.27-.45.41-.67 2.01 1.16 3.87 1.73 5.66 1.73 4.3 0 6.76-3.24 8.14-5.22.13-.02.35-.05.69-.05 2.54 0 7.03 1.34 11 2.52 2.53.76 4.92 1.47 6.97 1.91 1.14.24 2.42.37 3.82.37 8.15 0 19.49-4.12 22.71-10.03.23-.42.43-.81.6-1.19 2.84-.1 7.13-.24 10.56-.24m.02-2.99c-4.48 0-10.37.22-12.75.32-.09.66-.4 1.5-1.04 2.67-2.56 4.7-12.85 8.47-20.08 8.47-1.16 0-2.23-.1-3.19-.3-5.34-1.15-13.93-4.5-18.6-4.5-1.39 0-2.43.3-2.94 1.03-1.47 2.12-3.15 4.24-5.89 4.24-1.42 0-3.13-.57-5.25-2.01-.16-.02-.31-.04-.46-.04-2.77 0-2.9 4.28-5.48 4.99-.09.03-.2.04-.33.04-3.56 0-19.82-9.79-22.69-12.42-.41-.37-.91-.54-1.49-.54-3.61 0-9.96 6.47-11.88 7.96-2.23 1.73-9.9 2.23-11.88 3.22-1.98.99-3.22 6.93-4.95 9.41-1.52 2.17-12.38 5.58-15.04 6.38 1.33 3.1 1.48 6.41 2.03 9.59 1.35 7.85-1.08 13.53-2.17 18.95-1.08 10.56 3.25 15.43 10.01 15.7s13.26 3.79 24.09 8.93c5.24 2.49 11.5 3.01 16.89 3.01 3.91 0 7.37-.27 9.67-.27 1.08 0 1.9.06 2.39.24 2.98 1.08.54 10.28 4.06 13.26 3.52 2.98 17.86 6.5 26.25 7.04.52.03 1 .05 1.44.05 6.6 0 4.19-3.58 7.49-3.84 1.09-.08 2.14-.12 3.15-.12 13.37 0 20.51 6.85 22.02 9.87.01.03.02.06.04.09.51-.03 1.19-.05 2.02-.05 2.93 0 7.61.31 12.12 1.95 1.45.53 2.54.78 3.38.78 3.39 0 2.54-4.15 3.63-11.09 1.36-8.65 7.29-9.64 10.61-13.97 10.97-20.95 5.65-34.59 3.66-54.54-2-19.95-11.63-33.39-13.33-34.16-.55-.25-2.77-.33-5.53-.33Z" class="cls-4"/><path d="M384.09 228.13v1.93h-16.7v-1.88c.65.04.71-.35.7-.88-.02-1.52 0-3.04 0-4.56v-.6h15.28c.01.2.03.38.03.57v4.62c0 .47-.06.97.7.81Zm-8.56.95v-4.62h-2.14v4.62h2.14Zm2.74 0v-4.61h-2.16v4.61h2.16ZM386.88 218.24c-.57 1.08-.66 2.29-1.8 2.88-.53.28-1.03.48-1.65.48-5.16-.02-10.32 0-15.49 0-1.37 0-2.55-.97-2.86-2.3-.07-.32-.29-.61-.36-1 .12.07.25.15.36.23 1.08.72 2.24 1.13 3.55.96.28-.03.55-.12.82-.2.45-.15.69-.43.63-.95-.05-.51-.03-1.03 0-1.54.01-.17.15-.44.28-.47.18-.04.4.1.59.18.17.07.33.24.49.24 2.85.02 5.69.02 8.54 0 .17 0 .33-.17.5-.24.19-.08.42-.22.59-.18.13.03.27.3.28.47.04.53.05 1.06 0 1.59-.04.48.18.73.58.88 1.16.44 2.3.3 3.4-.18.48-.21.92-.51 1.52-.84ZM402.52 246.05v1.93h-16.7v-1.88c.65.04.71-.35.7-.88-.02-1.52 0-3.04 0-4.56v-.6h15.28c.01.2.03.38.03.57v4.62c0 .47-.06.97.7.81Zm-8.57.94v-4.62h-2.14v4.62h2.14Zm2.75 0v-4.61h-2.16v4.61h2.16ZM405.31 236.16c-.57 1.08-.66 2.29-1.8 2.88-.53.28-1.03.48-1.65.48-5.16-.02-10.32 0-15.49 0-1.37 0-2.55-.97-2.86-2.3-.07-.32-.29-.61-.36-1 .12.07.25.15.36.23 1.08.72 2.24 1.13 3.55.96.28-.03.55-.12.82-.2.45-.15.69-.43.63-.95-.05-.51-.03-1.03 0-1.54.01-.17.15-.44.28-.47.18-.04.4.1.59.18.17.07.33.24.49.24 2.85.02 5.69.02 8.54 0 .17 0 .33-.17.5-.24.19-.08.42-.22.59-.18.13.03.27.3.28.47.04.53.05 1.06 0 1.59-.04.48.18.73.58.88 1.16.44 2.3.3 3.4-.18.48-.21.92-.51 1.52-.84ZM371.77 316.03v1.93h-16.7v-1.88c.65.04.71-.35.7-.88-.02-1.52 0-3.04 0-4.56v-.6h15.28c.01.2.03.38.03.57v4.62c0 .47-.06.97.7.81Zm-8.56.94v-4.62h-2.14v4.62h2.14Zm2.75 0v-4.61h-2.16v4.61h2.16ZM374.57 306.14c-.57 1.08-.66 2.29-1.8 2.88-.53.28-1.03.48-1.65.48-5.16-.02-10.32 0-15.49 0-1.37 0-2.55-.97-2.86-2.3-.07-.32-.29-.61-.36-1 .12.07.25.15.36.23 1.08.72 2.24 1.13 3.55.96.28-.03.55-.12.82-.2.45-.15.69-.43.63-.95-.05-.51-.03-1.03 0-1.54.01-.17.15-.44.28-.47.18-.04.4.1.59.18.17.07.33.24.49.24 2.85.02 5.69.02 8.54 0 .17 0 .33-.17.5-.24.19-.08.42-.22.59-.18.13.03.27.3.28.47.04.53.05 1.06 0 1.59-.04.48.18.73.58.88 1.16.44 2.3.3 3.4-.18.48-.21.92-.51 1.52-.84ZM385.95 54.63v1.93h-16.7v-1.88c.65.04.71-.35.7-.88-.02-1.52 0-3.04 0-4.56v-.6h15.28c.01.2.03.38.03.57v4.62c0 .47-.06.97.7.81Zm-8.56.94v-4.62h-2.14v4.62h2.14Zm2.75.01v-4.61h-2.16v4.61h2.16ZM388.75 44.74c-.57 1.08-.66 2.29-1.8 2.88-.53.28-1.03.48-1.65.48-5.16-.02-10.32 0-15.49 0-1.37 0-2.55-.97-2.86-2.3-.07-.32-.29-.61-.36-1 .12.07.25.15.36.23 1.08.72 2.24 1.13 3.55.96.28-.03.55-.12.82-.2.45-.15.69-.43.63-.95-.05-.51-.03-1.03 0-1.54.01-.17.15-.44.28-.47.18-.04.4.1.59.18.17.07.33.24.49.24 2.85.02 5.69.02 8.54 0 .17 0 .33-.17.5-.24.19-.08.42-.22.59-.18.13.03.27.3.28.47.04.53.05 1.06 0 1.59-.04.48.18.73.58.88 1.16.44 2.3.3 3.4-.18.48-.21.92-.51 1.52-.84ZM404.38 72.54v1.93h-16.7v-1.88c.65.04.71-.35.7-.88-.02-1.52 0-3.04 0-4.56v-.6h15.28c.01.2.03.38.03.57v4.62c0 .47-.06.97.7.81Zm-8.56.95v-4.62h-2.14v4.62h2.14Zm2.74 0v-4.61h-2.16v4.61h2.16ZM407.17 62.65c-.57 1.08-.66 2.29-1.8 2.88-.53.28-1.03.48-1.65.48-5.16-.02-10.32 0-15.49 0-1.37 0-2.55-.97-2.86-2.3-.07-.32-.29-.61-.36-1 .12.07.25.15.36.23 1.08.72 2.24 1.13 3.55.96.28-.03.55-.12.82-.2.45-.15.69-.43.63-.95-.05-.51-.03-1.03 0-1.54.01-.17.15-.44.28-.47.18-.04.4.1.59.18.17.07.33.24.49.24 2.85.02 5.69.02 8.54 0 .17 0 .33-.17.5-.24.19-.08.42-.22.59-.18.13.03.27.3.28.47.04.53.05 1.06 0 1.59-.04.48.18.73.58.88 1.16.44 2.3.3 3.4-.18.48-.21.92-.51 1.52-.84ZM292.76 65.67v1.93h-16.7v-1.88c.65.04.71-.35.7-.88-.02-1.52 0-3.04 0-4.56v-.6h15.28c.01.2.03.38.03.57v4.62c0 .47-.06.97.7.81Zm-8.56.95V62h-2.14v4.62h2.14Zm2.74 0v-4.61h-2.16v4.61h2.16ZM295.55 55.78c-.57 1.08-.66 2.29-1.8 2.88-.53.28-1.03.48-1.65.48-5.16-.02-10.32 0-15.49 0-1.37 0-2.55-.97-2.86-2.3-.07-.32-.29-.61-.36-1 .12.07.25.15.36.23 1.08.72 2.24 1.13 3.55.96.28-.03.55-.12.82-.2.45-.15.69-.43.63-.95-.05-.51-.03-1.03 0-1.54.01-.17.15-.44.28-.47.18-.04.4.1.59.18.17.07.33.24.49.24 2.85.02 5.69.02 8.54 0 .17 0 .33-.17.5-.24.19-.08.42-.22.59-.18.13.03.27.3.28.47.04.53.05 1.06 0 1.59-.04.48.18.73.58.88 1.16.44 2.3.3 3.4-.18.48-.21.92-.51 1.52-.84ZM270.61 94.9v1.93h-16.7v-1.88c.65.04.71-.35.7-.88-.02-1.52 0-3.04 0-4.56v-.6h15.28c.01.2.03.38.03.57v4.62c0 .47-.06.97.7.81Zm-8.56.94v-4.62h-2.14v4.62h2.14Zm2.74 0v-4.61h-2.16v4.61h2.16ZM273.4 85.01c-.57 1.08-.66 2.29-1.8 2.88-.53.28-1.03.48-1.65.48-5.16-.02-10.32 0-15.49 0-1.37 0-2.55-.97-2.86-2.3-.07-.32-.29-.61-.36-1 .12.07.25.15.36.23 1.08.72 2.24 1.13 3.55.96.28-.03.55-.12.82-.2.45-.15.69-.43.63-.95-.05-.51-.03-1.03 0-1.54.01-.17.15-.44.28-.47.18-.04.4.1.59.18.17.07.33.24.49.24 2.85.02 5.69.02 8.54 0 .17 0 .33-.17.5-.24.19-.08.42-.22.59-.18.13.03.27.3.28.47.04.53.05 1.06 0 1.59-.04.48.18.73.58.88 1.16.44 2.3.3 3.4-.18.48-.21.92-.51 1.52-.84ZM319.67 217.03v1.93h-16.7v-1.88c.65.04.71-.35.7-.88-.02-1.52 0-3.04 0-4.56v-.6h15.28c.01.2.03.38.03.57v4.62c0 .47-.06.97.7.81Zm-8.56.95v-4.62h-2.14v4.62h2.14Zm2.74 0v-4.61h-2.16v4.61h2.16ZM322.46 207.14c-.57 1.08-.66 2.29-1.8 2.88-.53.28-1.03.48-1.65.48-5.16-.02-10.32 0-15.49 0-1.37 0-2.55-.97-2.86-2.3-.07-.32-.29-.61-.36-1 .12.07.25.15.36.23 1.08.72 2.24 1.13 3.55.96.28-.03.55-.12.82-.2.45-.15.69-.43.63-.95-.05-.51-.03-1.03 0-1.54.01-.17.15-.44.28-.47.18-.04.4.1.59.18.17.07.33.24.49.24 2.85.02 5.69.02 8.54 0 .17 0 .33-.17.5-.24.19-.08.42-.22.59-.18.13.03.27.3.28.47.04.53.05 1.06 0 1.59-.04.48.18.73.58.88 1.16.44 2.3.3 3.4-.18.48-.21.92-.51 1.52-.84ZM183.94 112.11v1.93h-16.7v-1.88c.65.04.71-.35.7-.88-.02-1.52 0-3.04 0-4.56v-.6h15.28c.01.2.03.38.03.57v4.62c0 .47-.06.97.7.81Zm-8.56.94v-4.62h-2.14v4.62h2.14Zm2.74 0v-4.61h-2.16v4.61h2.16ZM186.73 102.21c-.57 1.08-.66 2.29-1.8 2.88-.53.28-1.03.48-1.65.48-5.16-.02-10.32 0-15.49 0-1.37 0-2.55-.97-2.86-2.3-.07-.32-.29-.61-.36-1 .12.07.25.15.36.23 1.08.72 2.24 1.13 3.55.96.28-.03.55-.12.82-.2.45-.15.69-.43.63-.95-.05-.51-.03-1.03 0-1.54.01-.17.15-.44.28-.47.18-.04.4.1.59.18.17.07.33.24.49.24 2.85.02 5.69.02 8.54 0 .17 0 .33-.17.5-.24.19-.08.42-.22.59-.18.13.03.27.3.28.47.04.53.05 1.06 0 1.59-.04.48.18.73.58.88 1.16.44 2.3.3 3.4-.18.48-.21.92-.51 1.52-.84ZM161.79 141.33v1.93h-16.7v-1.88c.65.04.71-.35.7-.88-.02-1.52 0-3.04 0-4.56v-.6h15.28c.01.2.03.38.03.57v4.62c0 .47-.06.97.7.81Zm-8.56.94v-4.62h-2.14v4.62h2.14Zm2.74.01v-4.61h-2.16v4.61h2.16ZM164.58 131.44c-.57 1.08-.66 2.29-1.8 2.88-.53.28-1.03.48-1.65.48-5.16-.02-10.32 0-15.49 0-1.37 0-2.55-.97-2.86-2.3-.07-.32-.29-.61-.36-1 .12.07.25.15.36.23 1.08.72 2.24 1.13 3.55.96.28-.03.55-.12.82-.2.45-.15.69-.43.63-.95-.05-.51-.03-1.03 0-1.54.01-.17.15-.44.28-.47.18-.04.4.1.59.18.17.07.33.24.49.24 2.85.02 5.69.02 8.54 0 .17 0 .33-.17.5-.24.19-.08.42-.22.59-.18.13.03.27.3.28.47.04.53.05 1.06 0 1.59-.04.48.18.73.58.88 1.16.44 2.3.3 3.4-.18.48-.21.92-.51 1.52-.84Z" class="cls-2"/><path d="M400.33 322.38c-9.19 0-16.64 7.45-16.64 16.64 0 5.31 5.55 17.88 10.24 27.55 2.59 5.34 10.2 5.34 12.79 0 4.69-9.67 10.24-22.24 10.24-27.55 0-9.19-7.45-16.64-16.64-16.64Zm0 26.98c-5.74 0-10.39-4.65-10.39-10.39s4.65-10.39 10.39-10.39 10.39 4.65 10.39 10.39-4.65 10.39-10.39 10.39Z" style="stroke-width:0;fill:url(#_未命名漸層_200)"/><path d="M407.17 140.94c-9.19 0-16.64 7.45-16.64 16.64 0 5.31 5.55 17.88 10.24 27.55 2.59 5.34 10.2 5.34 12.79 0 4.69-9.67 10.24-22.24 10.24-27.55 0-9.19-7.45-16.64-16.64-16.64Zm0 26.99c-5.74 0-10.39-4.65-10.39-10.39s4.65-10.39 10.39-10.39 10.39 4.65 10.39 10.39-4.65 10.39-10.39 10.39Z" style="fill:url(#_未命名漸層_200-2);stroke-width:0"/><path d="M373.38 96.81c-9.19 0-16.64 7.45-16.64 16.64 0 5.31 5.55 17.88 10.24 27.55 2.59 5.34 10.2 5.34 12.79 0 4.69-9.67 10.24-22.24 10.24-27.55 0-9.19-7.45-16.64-16.64-16.64Zm0 26.98c-5.74 0-10.39-4.65-10.39-10.39s4.65-10.39 10.39-10.39 10.39 4.65 10.39 10.39-4.65 10.39-10.39 10.39Z" style="fill:url(#_未命名漸層_200-3);stroke-width:0"/><path d="M98.83 163.01c-9.19 0-16.64 7.45-16.64 16.64 0 5.31 5.55 17.88 10.24 27.55 2.59 5.34 10.2 5.34 12.79 0 4.69-9.67 10.24-22.24 10.24-27.55 0-9.19-7.45-16.64-16.64-16.64Zm0 26.99c-5.74 0-10.39-4.65-10.39-10.39s4.65-10.39 10.39-10.39 10.39 4.65 10.39 10.39S104.57 190 98.83 190Z" style="fill:url(#_未命名漸層_200-4);stroke-width:0"/><path d="M280.45 151.69c-9.19 0-16.64 7.45-16.64 16.64 0 5.31 5.55 17.88 10.24 27.55 2.59 5.34 10.2 5.34 12.79 0 4.69-9.67 10.24-22.24 10.24-27.55 0-9.19-7.45-16.64-16.64-16.64Zm0 26.98c-5.74 0-10.39-4.65-10.39-10.39s4.65-10.39 10.39-10.39 10.39 4.65 10.39 10.39-4.65 10.39-10.39 10.39Z" style="fill:url(#_未命名漸層_200-5);stroke-width:0"/></svg>