<svg xmlns="http://www.w3.org/2000/svg" xml:space="preserve" style="enable-background:new 0 0 218.1 315.8" viewBox="0 0 218.1 315.8"><linearGradient id="a" x1="109.05" x2="109.05" y1="-200.38" y2="327.06" gradientTransform="matrix(1 0 0 -1 0 318)" gradientUnits="userSpaceOnUse"><stop offset="0" style="stop-color:#ff8c55"/><stop offset="1" style="stop-color:#d5433c"/></linearGradient><path d="M109 0C48.8 0 0 48.8 0 109.1c0 34.8 36.4 117.2 67.1 180.5 17 35 66.8 35 83.8 0 30.7-63.4 67.1-145.7 67.1-180.5C218.1 48.8 169.3 0 109 0zm0 176.8c-37.6 0-68.1-30.5-68.1-68.1 0-37.6 30.5-68.1 68.1-68.1 37.6 0 68.1 30.5 68.1 68.1 0 37.7-30.5 68.1-68.1 68.1z" style="fill:url(#a)"/><circle cx="109" cy="108.8" r="68.1" style="fill:#fff"/></svg>