<?xml version="1.0" encoding="UTF-8"?>
<svg xmlns="http://www.w3.org/2000/svg" xmlns:xlink="http://www.w3.org/1999/xlink" viewBox="0 0 1080 1080">
  <defs>
    <style>
      .cls-1 {
        fill: #ffdf9c;
        mix-blend-mode: color-dodge;
      }

      .cls-1, .cls-2, .cls-3, .cls-4, .cls-5, .cls-6, .cls-7, .cls-8, .cls-9, .cls-10, .cls-11, .cls-12, .cls-13, .cls-14, .cls-15, .cls-16, .cls-17, .cls-18, .cls-19 {
        stroke-width: 0px;
      }

      .cls-2 {
        fill: url(#_未命名漸層_7);
      }

      .cls-20 {
        mix-blend-mode: soft-light;
      }

      .cls-3 {
        fill: url(#_未命名漸層_7-5);
      }

      .cls-4 {
        fill: url(#_未命名漸層_7-3);
      }

      .cls-5 {
        fill: url(#_未命名漸層_7-4);
      }

      .cls-6 {
        fill: url(#_未命名漸層_7-2);
      }

      .cls-7 {
        fill: url(#_未命名漸層_200);
      }

      .cls-21 {
        isolation: isolate;
      }

      .cls-8 {
        fill: #f3f1e0;
      }

      .cls-9 {
        fill: #b43929;
      }

      .cls-10 {
        fill: #fff;
      }

      .cls-11 {
        fill: #edcc78;
      }

      .cls-12 {
        fill: url(#_未命名漸層_200-8);
      }

      .cls-13 {
        fill: url(#_未命名漸層_200-5);
      }

      .cls-14 {
        fill: url(#_未命名漸層_200-3);
      }

      .cls-15 {
        fill: url(#_未命名漸層_200-2);
      }

      .cls-16 {
        fill: url(#_未命名漸層_200-7);
      }

      .cls-17 {
        fill: url(#_未命名漸層_200-4);
      }

      .cls-18 {
        fill: url(#_未命名漸層_200-6);
      }

      .cls-19 {
        fill: url(#_未命名漸層_200-9);
      }
    </style>
    <linearGradient id="_未命名漸層_200" data-name="未命名漸層 200" x1="1555.68" y1="816.73" x2="1403.92" y2="891.54" gradientTransform="translate(1998.67 -365.06) rotate(169.87) scale(1 -1)" gradientUnits="userSpaceOnUse">
      <stop offset="0" stop-color="#ff8c55"/>
      <stop offset="1" stop-color="#d5433c"/>
    </linearGradient>
    <linearGradient id="_未命名漸層_200-2" data-name="未命名漸層 200" x1="-2056.98" y1="1046.93" x2="-2138.68" y2="1087.2" gradientTransform="translate(2577.46 -368.64) rotate(-1.18)" xlink:href="#_未命名漸層_200"/>
    <linearGradient id="_未命名漸層_200-3" data-name="未命名漸層 200" x1="-1881.02" y1="1426.85" x2="-1881.02" y2="1144.1" gradientTransform="translate(2680.76 -351.04) rotate(12.55)" xlink:href="#_未命名漸層_200"/>
    <linearGradient id="_未命名漸層_7" data-name="未命名漸層 7" x1="-2160.17" y1="1037.67" x2="-1998.64" y2="1037.67" gradientTransform="translate(2644.59 -367.46) rotate(5.69)" gradientUnits="userSpaceOnUse">
      <stop offset="0" stop-color="#edcc78"/>
      <stop offset="1" stop-color="#dc8f1b"/>
    </linearGradient>
    <linearGradient id="_未命名漸層_7-2" data-name="未命名漸層 7" x1="-1780.19" y1="1165.97" x2="-1911.83" y2="1325.32" gradientTransform="translate(2680.76 -351.04) rotate(12.55)" xlink:href="#_未命名漸層_7"/>
    <linearGradient id="_未命名漸層_7-3" data-name="未命名漸層 7" x1="-1904.69" y1="1345.29" x2="-1893.17" y2="1262.08" gradientTransform="translate(2680.76 -351.04) rotate(12.55)" xlink:href="#_未命名漸層_7"/>
    <linearGradient id="_未命名漸層_7-4" data-name="未命名漸層 7" x1="-1831.87" y1="1351.78" x2="-1902.92" y2="1282.64" gradientTransform="translate(2680.76 -351.04) rotate(12.55)" xlink:href="#_未命名漸層_7"/>
    <linearGradient id="_未命名漸層_7-5" data-name="未命名漸層 7" x1="-1792.84" y1="1411.21" x2="-1983.39" y2="1225.8" gradientTransform="translate(2680.76 -351.04) rotate(12.55)" xlink:href="#_未命名漸層_7"/>
    <linearGradient id="_未命名漸層_200-4" data-name="未命名漸層 200" x1="1800.33" y1="-1101.26" x2="1703.1" y2="-1114.08" gradientTransform="translate(2752.29 211.66) rotate(-156.66)" xlink:href="#_未命名漸層_200"/>
    <linearGradient id="_未命名漸層_200-5" data-name="未命名漸層 200" x1="1790.39" y1="-856.3" x2="1790.39" y2="-947.16" gradientTransform="translate(2432.05 -400.11) rotate(138.84) scale(1 -1)" xlink:href="#_未命名漸層_200"/>
    <linearGradient id="_未命名漸層_200-6" data-name="未命名漸層 200" x1="-2159.77" y1="1135.55" x2="-2365.57" y2="1090.58" gradientTransform="translate(2680.76 -351.04) rotate(12.55)" xlink:href="#_未命名漸層_200"/>
    <linearGradient id="_未命名漸層_200-7" data-name="未命名漸層 200" x1="1929.74" y1="605.16" x2="1929.74" y2="451.64" gradientTransform="translate(2615.35 -346.75) rotate(176.91) scale(1 -1)" xlink:href="#_未命名漸層_200"/>
    <linearGradient id="_未命名漸層_200-8" data-name="未命名漸層 200" x1="1564.33" y1="780.96" x2="1564.33" y2="194.61" xlink:href="#_未命名漸層_200"/>
    <linearGradient id="_未命名漸層_200-9" data-name="未命名漸層 200" x1="1603.66" y1="364.48" x2="1838.81" y2="364.48" xlink:href="#_未命名漸層_200"/>
  </defs>
  <g class="cls-21">
    <g id="_圖層_1" data-name="圖層 1">
      <g>
        <g>
          <path class="cls-8" d="M352.62,675.27c-13.8-15.01-41.88-6.54-46.21,13.95-4.33,20.48,17.48,41.63,35.9,34.8-23.41-9.56-48.83-16.07-73.31-11-24.48,5.07-47.64,24.02-52.69,50.33-1.34,6.96-1.21,14.85,2.9,20.46,3.17,4.33,8.15,6.56,12.94,8.46,30.87,12.22,63.93,17.84,96.7,16.46-18.65-4.6-38.22,10.87-43.06,30.74-4.85,19.86,3.01,41.72,16.57,56.33,26.99,29.08,76.27,28.5,102.22-1.19-8.34,17.03,1.25,39.31,16.35,49.84,15.11,10.53,33.91,12.16,51.83,12.77,35.78,1.22,80.29-7.09,90.47-43.99-2.54,33.18,28.41,58.74,58.26,67.62,47.39,14.09,100.51,2.7,138.96-29.8,20.83-17.6,38.35-46,30.59-73.46,16.39,33.77,58.46,49.96,90.7,34.9,32.24-15.06,49.73-59.08,37.7-94.89-3.81-11.35-14.17-23.28-24.45-18.66,23.08,3.58,46.98.34,68.42-9.28,15.14-6.79,30.41-18.94,32.39-36.52,2.32-20.58-15.66-38.8-34.6-42.74-18.94-3.94-38.18,2.51-56.46,8.88,19.25-24.74-1.89-66.54-31.15-74.34s-59.26,7.84-83.6,26.66c12.17-24.28-2.93-56.75-26.04-69.05-23.11-12.3-50.7-8.91-75.21-.84-17.3,5.69-35.97,15.94-40.48,34.82-4.39-30.87-30.6-56.64-59.5-58.5-28.9-1.86-57.41,20.39-64.71,50.51-9.6-23.14-35.06-37.31-57.99-32.28-22.94,5.03-40.97,28.74-41.08,54-9.87-17.57-31.97-25.85-49.67-18.61-17.7,7.24-28.98,29.16-25.34,49.28l2.65-5.65Z"/>
          <g>
            <g>
              <path class="cls-7" d="M632.43,638.7c3.96-7.62,13.7-9.97,22.26-11.49l.36.43c1.17-.28,2.37-.41,3.59-.36,9.01.34,14.85,9.11,19.13,16.88,22.17,40.2,44.34,80.4,66.51,120.6.95,1.72,1.9,3.47,2.79,5.26.2.28.4.56.6.84,4.38,4.33,9.34,8.4,12.01,13.94,5.68,11.81-.78,25.62-7.16,37.17-4.43,8.01-9.18,16.34-16.33,21.98-1.65,1.3-4.09.65-4.75-1.31-.27-.79-.54-1.58-.81-2.37-.65-1.92-3.04-2.62-4.67-1.36-1.06.82-2.13,1.63-3.19,2.45-1.55,1.19-3.81.63-4.58-1.14-.28-.65-.57-1.3-.85-1.94-.76-1.74-2.97-2.31-4.53-1.18-.99.72-1.98,1.45-2.97,2.17-1.64,1.2-3.98.48-4.62-1.41-.28-.82-.56-1.65-.84-2.47-.58-1.71-2.57-2.48-4.22-1.66-.44.22-.87.45-1.3.69-1.85,1.04-4.17.02-4.5-2.04-.18-1.13-.35-2.27-.53-3.4-.36-2.28-3.16-3.31-4.91-1.76-.07.06-.14.13-.22.19-1.48,1.34-3.86,1.06-4.75-.7-2.9-5.69-2.47-12.98.33-18.9,2.14-4.52,5.43-8.35,9.23-11.71,1.11-.98,1.3-2.61.47-3.81-28.8-41.55-52.41-87.05-62.25-136.33-1.15-5.75-2.04-12.02.69-17.25Z"/>
              <path class="cls-15" d="M448.05,660.63c-1.05,18.7-2.1,37.5-.05,56.12,2.05,18.62,7.37,37.21,18.05,52.6,8.4,12.1,19.78,21.79,29.09,33.2,8.14,9.97,14.84,22.12,15.18,34.78.07,2.48,2.74,4.02,4.97,2.93l1.55-.76c-.21,3.72,2.37,7.55,6.01,8.34,3.64.8,7.79-1.94,8.11-5.66.12,5.2,3.32,10.51,8.3,11.99,4.99,1.47,11.17-2.14,11.37-7.34-.66,4.65,5.59,7.95,9.86,6,4.27-1.96,6.27-7.02,6.52-11.71.09-1.67.2-3.68,1.66-4.49,1.4-.77,3.09.09,4.65.42,6.14,1.31,10.93-6.48,9.54-12.6-1.39-6.12-6.4-10.62-10.75-15.14-4.85-5.03-9.17-10.57-12.88-16.49-2.38-3.81-4.59-7.87-8.08-10.69-3.77-3.05-8.63-4.32-13.08-6.25-11.41-4.94-20.31-14.28-28.07-23.99-4.81-6.02-9.35-12.34-12.39-19.42-13.38-31.13,5.04-67.58-2.47-100.62-2.12-9.31-7.72-19.52-19.58-17.3-3.01.57-5.81,1.98-8.23,3.86-13.39,10.4-14.83,14.79-19.35,30.19l.05,12.02Z"/>
              <path class="cls-14" d="M480.81,371.12s-45.52,12.68-67.37,66.85c-21.85,54.17-20.27,99.14-4.53,133.88,27.61,60.94,129.46,65.55,223.01,31.84,37.08-13.36,87.5-17.54,84.77-36-5.43-36.68,4.88-276.33-235.88-196.57Z"/>
              <g>
                <path class="cls-2" d="M407.57,414.01s-26.6,29.19-9.35,54.99c17.25,25.79,149.67,36.66,149.67,36.66,0,0,4.9-8.26-1.85-16.51-6.76-8.25-113.89-27.1-105.82-61.27,0,0-21.94-18.18-32.64-13.87Z"/>
                <path class="cls-6" d="M664.59,384.72s33.55,20.83,23.99,50.35c-9.56,29.52-134,76.09-134,76.09,0,0-6.97-6.61-2.72-16.39,4.25-9.78,102.19-57.13,85.11-87.81,0,0,16.15-23.47,27.62-22.25Z"/>
                <path class="cls-4" d="M556.17,510.15c.25-1.92-.41-3.83-2.2-4.78-.09-.05-.19-.08-.29-.12.23-1.45-.28-3.06-1.32-4.02-1.84-1.71-4.4-1.35-6.14.23-7.25,6.59-14.19,13.6-20.45,21.14-3.3,3.97-5.2,8.15-5.77,13.3-.57,5.16-.94,10.34-1.4,15.51-.33,3.74,3.04,6.56,6.57,4.61,4.27-2.36,8.49-4.82,12.64-7.39,4.15-2.57,7.46-5.14,9.42-9.77,3.88-9.2,7.62-18.76,8.94-28.71ZM531.77,529s-.02,0-.03-.01c.07-.08.13-.17.2-.25-.06.09-.12.18-.17.27Z"/>
                <path class="cls-5" d="M564.55,542.13c1.72,4.72,4.91,7.45,8.93,10.22,4.02,2.77,8.11,5.43,12.27,8,3.43,2.12,6.94-.53,6.79-4.28-.21-5.18-.32-10.38-.64-15.56-.32-5.17-2.01-9.44-5.12-13.57-5.89-7.83-12.47-15.18-19.39-22.11-1.66-1.67-4.2-2.15-6.12-.53-1.09.91-1.67,2.5-1.51,3.95-.1.04-.2.06-.29.11-1.84.86-2.59,2.74-2.43,4.67.83,10,4.1,19.73,7.53,29.11ZM580.31,532.78c.06.09.12.18.19.26,0,0-.02,0-.03.01-.05-.09-.11-.18-.16-.28Z"/>
                <path class="cls-11" d="M540.35,487.43c-3.15,3.6-4.39,8.43-5.18,13.03-.45,2.63-.97,5.33-.03,7.92,1.03,2.82,3.86,4.42,6.73,4.63,2.85,3.22,6.45,5.91,10.86,6.36,10.13,1.03,15.39-10.42,17.41-18.59.62-2.5.63-5.09-.6-7.42-1.11-2.09-2.76-3.69-4.54-5.21-3.45-2.94-7.62-5.62-12.24-6.06-4.9-.47-9.24,1.73-12.41,5.35Z"/>
              </g>
              <g>
                <path class="cls-9" d="M401.35,554.4s-87.27,62.05-66.71,179.59c25.64,10.76,140.1,11.89,163.75-144l-97.05-35.6Z"/>
                <path class="cls-11" d="M344.86,727.52c-1.27-.26-2.24-1.29-2.41-2.57-5.97-43.2,2.43-83.27,24.99-119.08,12.73-20.23,26.88-33.74,34.18-39.99.84-.72,2-.93,3.03-.55l81.13,29.76c1.4.51,2.22,1.96,1.95,3.42-9.52,51.56-30.47,88.74-62.25,110.52-14.77,10.11-30.46,15.73-44.82,18.3-13.83,2.47-26.44,2.11-35.79.21ZM404.24,571.67c-7.34,6.46-20.08,19.08-31.64,37.44-21.38,33.96-29.58,71.91-24.39,112.81,15.28,2.46,45.87,1.2,73.83-17.95,29.88-20.47,49.8-55.47,59.22-104.06l-77.01-28.25Z"/>
                <path class="cls-9" d="M714.47,528.54s96.4,46.62,95.74,165.94c-23.49,14.89-136.16,35.11-185.49-114.65l89.75-51.29Z"/>
                <path class="cls-11" d="M739.57,692.82h0c-31.77-7.07-75.42-31.27-102.9-106.38-.51-1.4.06-2.96,1.35-3.7l75.02-42.88c.95-.54,2.13-.54,3.08.03,8.24,4.95,24.45,15.91,40.38,33.73,28.21,31.56,43.19,69.67,44.5,113.26.04,1.29-.74,2.47-1.95,2.94-4.1,1.59-9.17,3.02-14.96,4.05-12.37,2.21-28.03,2.62-44.53-1.05ZM751.95,577.69c-14.47-16.18-29.14-26.49-37.45-31.64l-71.21,40.7c26.57,70.63,67.66,93.44,97.6,100.11h0c21.65,4.82,41.64,2.24,53.93-1.99-1.7-41.2-16.12-77.25-42.88-107.18ZM740.2,689.84h.03s-.03,0-.03,0Z"/>
                <path class="cls-9" d="M498.4,590s-78.78,132.71,79.81,198.81c24.68-7.89,116.23-102.19,46.52-208.97,0,0-46.03,23.51-126.33,10.17Z"/>
                <path class="cls-11" d="M576.8,778.29c-44.23-19.46-72.29-46.21-83.4-79.5-13.55-40.61,1.83-81.17,9.08-96.73.57-1.21,1.86-1.92,3.18-1.74,56.15,7.78,94.94-1.81,113.08-8.22,1.39-.49,2.93.08,3.66,1.36,20.85,36.35,24.56,74.1,11.02,112.21-13.2,37.16-40.02,64.15-53.81,72.44-.32.19-.67.32-1.04.39-.59.11-1.2.04-1.76-.21ZM507.07,606.67c-7.22,16.17-20.2,53.31-7.89,90.19,10.42,31.22,36.86,56.51,78.59,75.19,10-6.65,36.34-30.29,49.89-68.42,12.65-35.59,9.51-70.88-9.32-104.93-19.29,6.46-57.41,15.06-111.27,7.98Z"/>
                <path class="cls-3" d="M400.1,540.04s65.13,50.07,160.98,43.16c95.85-6.91,150.94-69.79,150.94-69.79l2.73,18.46s-79.12,77.92-182.4,63.42c-103.28-14.49-130.78-38.53-131-40.88-.22-2.36-1.24-14.36-1.24-14.36Z"/>
              </g>
              <path class="cls-11" d="M488.77,795.25c-1.57,1.95-2.31,3.25-2.11,5.77-.01-.14-.4-.28,0,.05.12.11.8.79,1.12,1.06.48.42.28.26.74.58.24.15.48.28.73.4-.56-.27-.39-.37.52-.28,3.03-.71,6.09-.98,9.1-1.86,2.97-.86,5.9-1.93,8.65-3.35,5.63-2.9,10.72-6.92,14.4-12.12,1.74-2.47,3.24-5.25,4.22-8.11.38-1.11.97-3.04,1.05-3.84,0-.11-.1-1.56-.06-1.59-.33.31,1.43.97.99.84-2.26-.66-3.84-2.77-3.3-5.18.49-2.19,2.93-3.95,5.18-3.3,9.07,2.65,5.48,13.99,2.62,20.03-6.26,13.21-19.28,21.95-33.18,25.46-3.44.87-7.33,1.89-10.9,1.77-3.23-.1-6.11-2.22-8.17-4.57-4.81-5.48-2.61-14.13,1.44-19.15l3.04,3.24,3.92,4.15Z"/>
              <path class="cls-11" d="M690.92,787.49q.25,1.17.65,3.98c-.02-.16-.52-.32,0,.05.17.12,1.07.89,1.48,1.2.64.47.37.3.98.66.31.17.63.33.96.46-.73-.32-.51-.42.65-.3,3.83-.73,7.73-.97,11.53-1.88,3.74-.9,7.44-2.03,10.87-3.55,7.04-3.12,13.32-7.48,17.75-13.2,2.1-2.71,3.86-5.78,4.96-8.94.43-1.23,1.08-3.37,1.13-4.26,0-.12-.21-1.74-.17-1.77-.41.34,1.88,1.11,1.31.96-2.92-.78-5.04-3.16-4.48-5.85.51-2.42,3.53-4.35,6.45-3.56,11.72,3.14,7.73,15.71,4.39,22.37-7.31,14.59-23.48,24.05-41.04,27.67-4.35.9-9.26,1.94-13.82,1.74-4.13-.18-7.92-2.6-10.68-5.27-6.43-6.21-5.25-15.88-.34-21.4l3.35,4.89,4.06,5.99Z"/>
            </g>
            <g>
              <path class="cls-17" d="M649.73,418.44c1.72,6.51,17.46,21.8,24.98,27.66.24.19.42.4.56.63l36.83,64.94c6.68,11.77,3.66,24.5-7.62,32.14l-35.31,23.92c-.24.16-.54.28-.86.35-15.05,2.91-31.67,2.69-47.55-1.07-1.8-.43-3.22.71-2.66,2.08,1.92,4.67.05,9.92-4.99,12.31-1.46.69-3.22,1.24-3.94,2.44-1.51,2.52,2.26,4.99,6.25,6.4,1.37.49,2.01,1.7,1.37,2.61-1.31,1.83-2.29,3.82-2.93,5.89-.24.8.38,1.69,1.42,2.12,1.47.6,2.94,1.21,4.41,1.81,1.39.57,1.89,1.9,1.04,2.75-1.2,1.19-2.4,2.38-3.6,3.57-1.08,1.07.05,2.77,1.97,2.97,2.2.23,4.4.61,6.55,1.15,1.42.35,2.25,1.56,1.75,2.53-.75,1.46-1.49,2.92-2.24,4.37-.66,1.29,1.01,2.81,2.87,2.61,10.45-1.11,19.13-6.19,27.14-11.07,3.83-2.34,7.66-4.68,11.48-7.01.18-.11.38-.19.6-.25,25.83-6.53,61.45-22.66,80.07-36.89,7.62-5.83,14.65-12.46,17.4-20.66,2.62-7.83,1.15-16.48-.61-24.88-9.44-45.05-28.19-92.07-70.55-127.72-5.76-4.84-13.87-9.91-21.3-8.25-3.7.83-16.09,2.86-18,5.33-8.09,10.46-7.92,14.35-4.52,27.24Z"/>
              <path class="cls-11" d="M687.82,602.44s-1.53-.25-1.64-.28c-.81-.22-2.71-1.06-3.79-1.57-2.8-1.32-5.44-3.01-7.73-4.83-4.83-3.84-8.26-8.49-10.47-13.33-1.08-2.36-1.78-4.8-2.26-7.21-.49-2.45-.36-4.82-.68-7.25.21-.67.14-.82-.22-.45.16-.17.33-.32.51-.47.39-.29.2-.17.69-.44.32-.18,1.11-.55,1.23-.63.39-.23.2.03.05.01,2.61.36,3.83,1.18,5.62,2.77l4.78-2.11,3.73-1.63c-4.6-4.08-13.16-7.5-19.42-4.99-2.69,1.08-5.24,2.82-5.78,5.23-.6,2.67-.08,5.81.34,8.58,1.72,11.19,8.91,22.8,21.59,30.21,5.8,3.39,19.54,7.16,23.48.85,0,0,2.54-5.07-3.7-9.47l-7.23,2.72s4.15,3.83.88,4.28Z"/>
            </g>
            <g class="cls-20">
              <path class="cls-8" d="M323.52,723.07c18.39-22.66,36.53-45.47,52.94-69.63,7.47-11,14.48-22.32,20.75-34.05,7.44-13.92,13.42-28.35,18.79-43.18,9.72-26.85,14.8-55.83,13.48-84.43-1.18-25.64-7.56-50.98-15.07-75.43-7.79-25.39-16.82-50.49-21.64-76.68.47,2.59.94,5.17,1.41,7.76-3.2-17.79-4.05-35.75-2.52-53.76-.23,2.71-.46,5.42-.7,8.13,2.04-22.61,7.53-44.71,15.3-66.01-.94,2.55-1.88,5.1-2.82,7.66,9.14-24.77,20.89-49.43,36.15-71.05-1.52,2.14-3.05,4.28-4.57,6.42,5.71-7.97,12.1-15.4,19.63-21.71-1.99,1.66-3.99,3.32-5.98,4.97,5.42-4.44,11.3-8.13,17.61-11.18-2.35,1.1-4.69,2.2-7.04,3.3,10.39-4.87,21.45-7.87,32.71-9.97-2.59.47-5.17.94-7.76,1.41,20.76-3.77,41.92-4.78,62.95-3.03-2.71-.23-5.42-.46-8.13-.7,20.44,1.8,40.6,6.16,59.9,13.17-2.55-.94-5.1-1.88-7.66-2.82,12.85,4.74,25.21,10.73,36.45,18.6-2.14-1.52-4.28-3.05-6.42-4.57,7.77,5.53,14.85,11.89,20.99,19.2-1.66-1.99-3.32-3.99-4.97-5.98,5.63,6.84,10.3,14.33,14.11,22.33-1.1-2.35-2.2-4.69-3.3-7.04,5.22,11.18,8.67,23.03,10.9,35.14-.47-2.59-.94-5.17-1.41-7.76,4.28,23.99,3.93,48.54,1.89,72.74.23-2.71.46-5.42.7-8.13-2.9,33.57-8.36,67.02-8.56,100.78-.11,17.84,1.85,35.37,5.58,52.81,3.71,17.34,10.51,33.51,18.14,49.44,13,27.14,30.02,52.6,48.35,76.41,19.48,25.29,40.85,49.2,64.38,70.8,26.1,23.96,54.84,45.29,85.18,63.59,6.53,3.94,16.43,4.38,23.54,2.1,6.96-2.23,14.4-7.99,17.59-14.7,3.42-7.21,4.95-15.83,2.1-23.54-2.83-7.67-7.66-13.34-14.7-17.59-10.44-6.3-20.65-12.99-30.6-20.04,2.14,1.52,4.28,3.05,6.42,4.57-35.56-25.32-67.65-55.29-95.58-88.83,1.66,1.99,3.32,3.99,4.97,5.98-23.43-28.25-45.04-59.13-60.8-92.37,1.1,2.35,2.2,4.69,3.3,7.04-7.01-14.96-12.45-30.55-15.43-46.83.47,2.59.94,5.17,1.41,7.76-4.14-23.45-3.51-47.33-1.53-70.97-.23,2.71-.46,5.42-.7,8.13,4.78-55.53,15.94-111.88-.26-166.68-8.19-27.69-24.46-53.72-47.78-71.1-12.37-9.21-25.24-16.99-39.55-22.76-15.15-6.1-30.71-11.17-46.73-14.41-30.17-6.11-61.89-7.28-92.32-2.43-14.96,2.38-30.12,5.2-44.03,11.45-8.12,3.65-16.14,7.44-23.29,12.79-6.9,5.16-13.55,10.88-19.33,17.29-10.39,11.51-18.98,24.84-26.55,38.34-6.92,12.35-13.18,25.08-18.63,38.15-6.38,15.3-12.03,31.03-16.22,47.08-4.25,16.25-6.48,32.64-7.81,49.37-2.31,29.02,2.44,57.87,10.12,85.82,6.76,24.63,15.75,48.6,22.05,73.36,1.55,6.12,2.93,12.27,4.08,18.48-.47-2.59-.94-5.17-1.41-7.76,2.95,16.29,4.03,32.72,2.64,49.23.23-2.71.46-5.42.7-8.13-1.68,18.54-6.12,36.65-12.49,54.11.94-2.55,1.88-5.1,2.82-7.66-10.31,27.87-25.41,53.51-42.54,77.69,1.52-2.14,3.05-4.28,4.57-6.42-13.36,18.76-27.85,36.67-42.35,54.54-5.18,6.38-8.5,13.79-8.08,22.21.36,7.31,4.03,15.95,9.69,20.78,6.08,5.17,14.02,8.86,22.21,8.08,7.59-.72,15.81-3.57,20.78-9.69h0Z"/>
            </g>
            <g>
              <path class="cls-13" d="M540.05,116.4s-60.9,1.39-73.08,10.84c-12.18,9.45-5.69-68.57,11.69-77.47,17.38-8.9,63.7,41.35,61.39,66.63Z"/>
              <path class="cls-18" d="M349.31,247.75s3.3-32.87-21.34-38.91c-11.99-2.94-24.35,2.62-31.22,12.88-24.34,36.36,24.69,61.47,10.64,79.21-34.51,43.57-2.05,64.49,16.05,63.05,18.1-1.44,44.58-40.58,25.87-116.23Z"/>
              <path class="cls-16" d="M694.66,242.71s2.15-32.97,27.44-34.88c12.31-.93,23.59,6.58,28.68,17.83,18.04,39.86-34.46,56.58-23.51,76.39,26.88,48.65-8.57,63.95-26.19,59.56-17.61-4.39-37.31-47.35-6.42-118.9Z"/>
              <path class="cls-12" d="M389.75,389.49c45.52,63.85,193.54,96.54,269.53-5.45,53.84-73.43,42.09-111.97,38.64-151.89-.03-.34-.06-.67-.09-1.01-4-43.42-29.17-82.2-67.11-103.68-45.9-25.99-119.93-47.44-213.67-3.89-25.66,11.92-46.68,32.12-59.03,57.57-20.65,42.53-34.51,115.45,31.73,208.35Z"/>
              <path class="cls-10" d="M476.06,271.31c-9.57-4.53-20.35-6.1-30.86-6.02-2.99.02-5.71,3.01-5.43,6,.3,3.19,2.79,5.45,6,5.43,1.3-.01,2.59,0,3.88.05.55.02,1.1.05,1.65.08.21.01,2.41.2,1.19.08,2.29.22,4.57.54,6.84.97,2.14.41,4.26.92,6.34,1.56.54.16,1.07.34,1.6.52.22.08.45.15.67.23-.71-.26-.75-.28-.13-.04.97.39,1.93.8,2.88,1.25,2.7,1.28,6.37.51,7.74-2.37,1.28-2.69.52-6.37-2.37-7.74h0Z"/>
              <path class="cls-10" d="M545.65,285.94c.9-.52,1.81-.98,2.73-1.46.67-.35-1,.45-.3.14.23-.1.46-.21.7-.31.47-.21.95-.41,1.43-.6,2.14-.87,4.33-1.59,6.55-2.21,1.1-.3,2.2-.58,3.31-.83.56-.13,1.13-.25,1.7-.36.36-.07.71-.15,1.07-.21-.43.07-.82.14-.16.04,2.51-.4,5.02-.71,7.56-.89,2.98-.22,5.72-2.88,5.43-6-.29-3.03-2.8-5.66-6-5.43-10.43.75-21.04,3.21-30.15,8.48-2.6,1.5-3.47,5.44-1.76,7.9,1.84,2.63,5.12,3.36,7.9,1.76h0Z"/>
              <path class="cls-11" d="M351.01,214.69c22.23-.99,44.48-2.06,66.44-5.88,11.06-1.93,22.03-4.31,33.05-6.4,9.94-1.89,20.27-3.03,30.45-4.3,10.05-1.26,20.56-3.26,29.01-9.2,8.38-5.89,14.67-14.83,15.05-25.31.18-4.94-1.27-10.22-4.21-14.22-3.54-4.82-8.65-7.46-14.22-9.26-9.64-3.11-21.52-4.05-30.13,2.26-4.56,3.34-8.17,8.18-8.87,13.91-.74,6.1,1.54,12.31,6.11,16.46,9.04,8.23,24.3,5.07,29.4-6.07,1.42-3.09.61-7.24-2.7-8.81-3.04-1.44-7.3-.61-8.81,2.7-.13.29-1.3,2.15-.56,1.21-.31.4-.66.75-1.01,1.11-.69.73.72-.48-.1.1-.33.24-.66.46-1.01.67-.14.08-1.26.64-.59.34.81-.36-1.04.33-.94.29-1.05.42.23.05-.4.12-.4.04-.8.08-1.2.09-.2,0-1.42-.13-.63,0,.96.16-.97-.26-.91-.25.26.06,1.12.56-.06-.03-.36-.18-.71-.37-1.06-.57-.25-.14-.88-.75-.1-.07-.3-.27-.59-.54-.89-.81-1.09-1,.27.7-.48-.58-.2-.35-.43-.68-.64-1.03-.13-.23-.4-1.08-.06-.13-.15-.42-.57-2.4-.44-1.25-.04-.39.08-2.52-.13-1.27.07-.41.18-.82.24-1.23.23-1.38-.37.44.25-.69,1.32-2.42,3.08-4.06,5.85-5.02,3.43-1.19,7.11-1.02,10.61-.37,4.25.79,7.35,1.54,10.76,3.68.6.38.69.51,1.45,1.23.98.93.48.52.27.24.26.34.51.71.73,1.07-.08-.13.88,1.7.56.97-.27-.62.22.63.26.76.14.41.27.83.38,1.25.09.33.24,1.46.13.59.12.97.14,1.93.14,2.91,0,1.08.14-.9,0,.17-.06.42-.12.84-.2,1.25-.18.93-.42,1.86-.73,2.76.1-.29.46-1.04-.09.14-.22.48-.45.97-.69,1.44-.45.86-.94,1.69-1.48,2.5.58-.88-.86,1.07-.99,1.23-.57.67-1.17,1.32-1.8,1.94-.31.31-.64.61-.96.92-1.41,1.38.82-.55-.75.65-1.41,1.08-2.88,2.07-4.43,2.93-.38.21-.77.42-1.16.62.93-.47-.47.21-.69.31-1.02.43-2.05.83-3.1,1.19-4.07,1.4-7.84,2.18-11.67,2.73-4.31.62-8.65,1.03-12.97,1.52-18.68,2.15-37.15,6.84-55.51,9.92-21.29,3.58-42.88,4.58-64.42,5.54-3.52.16-6.36,3.33-6.18,6.84.17,3.54,3.31,6.34,6.84,6.18h0Z"/>
              <path class="cls-11" d="M690.44,196.06c-18.85.14-38.13.36-56.71-1.39-19.59-1.84-38.92-5.78-58.54-7.43-9.46-.79-18.7-.62-27.92-2.85-3.76-.91-6.94-2.13-10.27-4.21-.36-.22-.71-.45-1.05-.69.24.16.86.68-.15-.12-.66-.52-1.31-1.04-1.93-1.6-.62-.55-1.22-1.13-1.79-1.73-.29-.3-.56-.6-.84-.91.79.9-.43-.58-.48-.64-.48-.65-.93-1.33-1.35-2.03-.2-.34-1.13-2.22-.68-1.17-.32-.73-.6-1.48-.84-2.24-.12-.38-.21-.77-.32-1.15-.49-1.62,0,1-.13-.7-.25-3.28-.07-6.34,2.06-8.46.32-.32.62-.66.96-.97-.61.56.22-.16.31-.22.76-.52,1.53-.99,2.33-1.44.6-.34.65-.34,1.64-.74,1.1-.43,2.21-.82,3.34-1.18,1.59-.5,3.92-1.14,5.09-1.33,1.01-.17,2.03-.27,3.05-.33.64-.04,1.27-.05,1.91-.04.19,0,1.66.1.92.02,1.17.12,2.31.4,3.44.71.25.07,1.15.49.09.02.47.21.94.42,1.39.66s.9.5,1.33.77c-.78-.48.02,0,.36.28.31.26.62.53.91.81s.93,1,.36.28c.25.31.48.64.7.97.08.12.9,1.74.42.6.16.37.26.75.41,1.13.52,1.36.12-.74.16.67.01.38.02.78.04,1.16-.05-.92.06-.34-.06.28-.07.38-.21.75-.27,1.13-.1.69.45-.79-.11.27-.18.34-.38.69-.54,1.04-.6,1.25.5-.4-.37.53-.26.28-.53.57-.79.86-.94,1.03.71-.25-.52.4-.34.18-.66.41-1,.59.81-.43.08-.07-.38.07-.35.11-1.54.22-.33.11-.48.04-.98.01-1.45.07-.94.11.92.24,0,0-.47-.12-.96-.19-1.43-.3-1.2-.27-.3-.09-.02.03-.54-.24-1.04-.51-1.57-.78-.25-.13-.95-.72-.07,0-.46-.37-.87-.76-1.29-1.17.21.2.61.98-.04-.07-.31-.5-.62-.98-.89-1.51-1.63-3.12-6.21-3.78-9-2-3.18,2.03-3.63,5.86-2,9,4.77,9.16,17.2,12.49,25.98,7.26,8.91-5.31,11.74-17.39,6.3-26.13-5.66-9.09-16.99-12.01-27.03-10.32-10.69,1.8-22.03,6.22-26.05,17.15-3.6,9.79.05,20.06,6.66,27.55,6.67,7.56,16.41,11.57,26.15,13.26,10.84,1.88,22,1.67,32.82,2.88,11.34,1.27,22.59,3.15,33.89,4.7,25.21,3.47,50.47,3.73,75.87,3.55,3.52-.03,6.35-3.43,6.18-6.84-.18-3.65-3.3-6.21-6.84-6.18h0Z"/>
              <path class="cls-10" d="M482.16,234.71c-12.5-6.19-23.24-6.89-37.01-4.44-3.26.58-6.83,1.53-8.41,4.76-1.78,3.63.39,7.39,3.87,8.85,3.13,1.31,7.01,1.38,10.35,1.83,3.75.5,7.5.96,11.26,1.39,7.61.87,16.38,3.17,23.04-1.75.95-.7,1.38-1.84,1.4-3,.02-.04.08-.05.08-.1.23-5.14-2.46-6.48-4.58-7.53Z"/>
              <path class="cls-10" d="M525.74,244.56s.06.05.09.08c.18,1.15.77,2.21,1.81,2.77,7.29,3.92,15.65.41,23.05-1.54,3.66-.96,7.31-1.94,10.95-2.97,3.24-.92,7.07-1.54,9.99-3.28,3.24-1.94,4.85-5.97,2.58-9.31-2.02-2.97-5.69-3.4-9-3.51-13.98-.46-24.51,1.76-36,9.66-1.94,1.34-4.42,3.04-3.46,8.1Z"/>
              <path class="cls-10" d="M499.99,285.83c-9.21-.76-16.31,7.64-16.01,16.45.3,8.54,6.6,15.42,14.06,18.83,2.71,1.24,6.36.53,7.74-2.37,1.26-2.66.54-6.41-2.37-7.74-.65-.3-1.3-.61-1.92-.96-.56-.31-1.23-.94-1.83-1.13.5.15.81.61.11.05-.26-.2-.51-.41-.75-.62-.54-.47-1.02-1-1.53-1.49s.68.93.06.08c-.23-.31-.46-.62-.67-.94s-.97-1.25-.94-1.64c.32.7.4.85.24.46-.07-.17-.14-.35-.21-.53-.11-.3-.2-.6-.29-.9-.02-.07-.29-.88-.23-.91.13.78.17.96.1.53-.03-.19-.05-.37-.07-.56-.02-.24.09-1.76-.03-1.87-.08.84-.09,1.04-.03.6.03-.19.06-.37.09-.55.06-.29.15-.57.21-.86.15-.7-.56,1.25-.13.31.14-.31.28-.62.45-.92.14-.25.3-.49.44-.73.36-.59-.82.99-.14.25.23-.25.46-.5.7-.75.69-.72-.78.54-.22.16.23-.16.46-.33.7-.48.14-.09.29-.17.44-.25.38-.2.19-.12-.57.25.18.04.62-.23.79-.29,1.03-.32-.04.13-.21-.02.05.04,1.2-.1,1.3-.1.44,0,.87.02,1.3.06,1.32.11,3.05-.9,3.91-1.82.97-1.04,1.66-2.74,1.52-4.18-.14-1.45-.68-2.94-1.82-3.91-1.26-1.07-2.55-1.39-4.18-1.52h0Z"/>
              <g>
                <path class="cls-10" d="M461.16,358.58c8.34,3.12,17.22,5.11,25.95,6.75,18.06,3.38,36.91,4.24,55.06.99,11.8-2.11,23.31-6.09,33.64-12.19,2.68-1.58,4.16-4.56,2.81-7.59-1.16-2.6-4.93-4.37-7.59-2.81-29.35,17.32-66.87,15.52-97.89,6.66-2.69-.77-5.39-1.57-8.01-2.55-6.9-2.58-10.88,8.15-3.97,10.73h0Z"/>
                <path class="cls-10" d="M466.4,355.62l13.76-21.04,4.14,22.62s-11.93,9.36-17.9-1.58Z"/>
                <path class="cls-10" d="M570.02,352.2l-16.83-18.67-.61,22.99s13.22,7.41,17.44-4.31Z"/>
              </g>
            </g>
            <g>
              <path class="cls-19" d="M252.93,303.44c-2.94,10.94,1.45,21.69,6.12,31.44,4.18,8.73,8.7,17.28,13.81,25.5,18.81,30.25,44.23,56.09,73.82,75.85,7.2,4.81,14.66,9.23,22.35,13.22,7.7,4,16.08,8.63,24.6,10.55,9.29,2.1,19.23-1.43,23.07-10.61,3.4-8.13,2.03-17.31-.23-25.56-.48-1.74-1.36-3-2.46-3.84-.39-.59-.85-1.18-1.47-1.72-11.42-9.81-23.43-18.88-35.47-27.91-.64-.84-1.43-1.6-2.34-2.23-9.32-6.44-17.94-14.23-25.21-22.92-12.87-15.38-21.88-34.41-23.23-54.57-1.38-20.57,4.67-41.52,18.86-56.77.58-.63.99-1.29,1.32-1.95,27.64-27.67,59.34-51.59,97.31-62.67,3.47-.18,7.01-.38,10.36-1.22,4.24-1.06,7.64-4.34,9.46-8.23,1.05-2.24,1.97-4.6,1.95-7.12-.03-3.64-2.33-6.55-5.25-8.46-.47-.31-.96-.58-1.46-.81.97-2.26,1.9-4.63,1.8-6.98-.2-4.62-3.91-8.36-8.46-8.84-.14-.01-.27-.01-.41-.02.96-4.05,1.5-8.22-.05-11.48-2.83-5.99-7.98-5.71-12.95-4.07-2.37-3.36-5.44-6.16-9.16-8.33-2.81-1.64-7.06-.91-9.17,1.55-.44.52-.89,1.03-1.33,1.55-1.01-1.43-2.03-2.87-3.04-4.3-2.99-4.22-8.33-4.54-12.03-1.1-5.47,5.1-4.87,13.64-11.15,17.87-7.1,4.79-14.94,8.35-22.01,13.26-26.28,18.23-51.45,39.83-72.25,64.16-21.44,25.09-38.34,54.38-45.7,86.75ZM295.11,309.21c.11.02.14.07.14.14-.06-.08-.11-.14-.14-.14Z"/>
              <path class="cls-11" d="M411.49,212.86c-.07-.05-2.93.14-3.14.13-1.58-.09-5.43-.91-7.63-1.43-5.69-1.35-11.24-3.45-16.19-5.93-10.43-5.22-18.58-12.49-24.56-20.58-2.92-3.95-5.16-8.18-6.99-12.45-1.87-4.34-2.54-8.77-4.08-13.14.13-1.32-.06-1.57-.57-.75.23-.37.48-.72.76-1.07.6-.68.3-.38,1.1-1.09.52-.46,1.83-1.46,2.03-1.64.64-.57.38-.02.1,0,4.96-.36,7.55.69,11.48,2.92l8.03-5.77,6.27-4.47c-10.1-5.75-27.27-8.74-37.87-1.66-4.55,3.04-8.6,7.26-8.66,11.94-.06,5.17,2.11,10.78,3.98,15.74,7.54,20.04,25.38,38.7,51.73,47.48,12.05,4.01,38.95,5.62,43.77-7.57,0,0,2.73-10.37-10.54-16.08l-12.69,6.85s9.56,6.47,3.67,8.57Z"/>
            </g>
          </g>
        </g>
        <path class="cls-1" d="M312.07,111.32c-22.89,7.04-31.05,15.73-37.67,40.08-1.04,3.82-6.16,3.82-7.19,0-6.62-24.35-14.78-33.04-37.67-40.08-3.59-1.1-3.59-6.55,0-7.65,22.89-7.04,31.05-15.73,37.67-40.08,1.04-3.82,6.16-3.82,7.19,0,6.62,24.35,14.78,33.04,37.67,40.08,3.59,1.1,3.59,6.55,0,7.65Z"/>
        <path class="cls-1" d="M225.19,176.4c-14.01,4.31-19,9.62-23.05,24.53-.64,2.34-3.77,2.34-4.4,0-4.05-14.9-9.05-20.21-23.05-24.53-2.2-.68-2.2-4.01,0-4.68,14.01-4.31,19-9.62,23.05-24.53.64-2.34,3.77-2.34,4.4,0,4.05,14.9,9.05,20.21,23.05,24.53,2.2.68,2.2,4.01,0,4.68Z"/>
      </g>
    </g>
  </g>
</svg>