<?xml version="1.0" encoding="UTF-8"?>
<svg xmlns="http://www.w3.org/2000/svg" xmlns:xlink="http://www.w3.org/1999/xlink" viewBox="0 0 1080 1080">
  <defs>
    <style>
      .cls-1 {
        mix-blend-mode: color-dodge;
      }

      .cls-2 {
        fill: url(#_未命名漸層_7);
      }

      .cls-2, .cls-3, .cls-4, .cls-5, .cls-6, .cls-7, .cls-8, .cls-9, .cls-10, .cls-11, .cls-12, .cls-13, .cls-14, .cls-15, .cls-16, .cls-17, .cls-18, .cls-19, .cls-20, .cls-21 {
        stroke-width: 0px;
      }

      .cls-22 {
        mix-blend-mode: soft-light;
      }

      .cls-3 {
        fill: url(#_未命名漸層_7-5);
      }

      .cls-4 {
        fill: url(#_未命名漸層_7-3);
      }

      .cls-5 {
        fill: url(#_未命名漸層_7-4);
      }

      .cls-6 {
        fill: url(#_未命名漸層_7-2);
      }

      .cls-7 {
        fill: url(#_未命名漸層_472);
      }

      .cls-23 {
        isolation: isolate;
      }

      .cls-8 {
        fill: url(#_未命名漸層_472-10);
      }

      .cls-9 {
        fill: #f3f1e0;
      }

      .cls-10 {
        fill: #50606e;
      }

      .cls-11 {
        fill: #fff;
      }

      .cls-12 {
        fill: #edcc78;
      }

      .cls-13 {
        fill: #ffdf9c;
      }

      .cls-14 {
        fill: url(#_未命名漸層_472-4);
      }

      .cls-15 {
        fill: url(#_未命名漸層_472-8);
      }

      .cls-16 {
        fill: url(#_未命名漸層_472-7);
      }

      .cls-17 {
        fill: url(#_未命名漸層_472-6);
      }

      .cls-18 {
        fill: url(#_未命名漸層_472-5);
      }

      .cls-19 {
        fill: url(#_未命名漸層_472-9);
      }

      .cls-20 {
        fill: url(#_未命名漸層_472-2);
      }

      .cls-21 {
        fill: url(#_未命名漸層_472-3);
      }
    </style>
    <linearGradient id="_未命名漸層_472" data-name="未命名漸層 472" x1="-481.02" y1="-286.14" x2="-583.96" y2="-299.72" gradientTransform="translate(196.34 259.97) rotate(-136.49) scale(1 -1)" gradientUnits="userSpaceOnUse">
      <stop offset="0" stop-color="#34957a"/>
      <stop offset=".62" stop-color="#4fa95f"/>
    </linearGradient>
    <linearGradient id="_未命名漸層_472-2" data-name="未命名漸層 472" x1="-578.22" y1="423.61" x2="-655.75" y2="461.83" gradientTransform="translate(-2.94 262.86) rotate(-177.92) scale(1 -1)" xlink:href="#_未命名漸層_472"/>
    <linearGradient id="_未命名漸層_472-3" data-name="未命名漸層 472" x1="-406.38" y1="307.86" x2="-483.91" y2="346.07" gradientTransform="translate(49.4 312.36) rotate(-169.09) scale(1 -1)" xlink:href="#_未命名漸層_472"/>
    <linearGradient id="_未命名漸層_472-4" data-name="未命名漸層 472" x1="-591.15" y1="474.57" x2="-591.15" y2="206.24" gradientTransform="translate(-106.5 278.84) rotate(168.35) scale(1 -1)" xlink:href="#_未命名漸層_472"/>
    <linearGradient id="_未命名漸層_7" data-name="未命名漸層 7" x1="-757.69" y1="254.69" x2="-604.4" y2="254.69" gradientTransform="translate(-70.07 262.99) rotate(175.2) scale(1 -1)" gradientUnits="userSpaceOnUse">
      <stop offset="0" stop-color="#edcc78"/>
      <stop offset="1" stop-color="#dc8f1b"/>
    </linearGradient>
    <linearGradient id="_未命名漸層_7-2" data-name="未命名漸層 7" x1="-495.46" y1="227" x2="-620.38" y2="378.22" gradientTransform="translate(-106.5 278.84) rotate(168.35) scale(1 -1)" xlink:href="#_未命名漸層_7"/>
    <linearGradient id="_未命名漸層_7-3" data-name="未命名漸層 7" x1="622.79" y1="395.59" x2="632.98" y2="321.97" gradientTransform="translate(-121.53 281.94) rotate(-11.65)" xlink:href="#_未命名漸層_7"/>
    <linearGradient id="_未命名漸層_7-4" data-name="未命名漸層 7" x1="603.22" y1="386.56" x2="573.91" y2="358.03" gradientTransform="translate(-121.53 281.94) rotate(-11.65)" xlink:href="#_未命名漸層_7"/>
    <linearGradient id="_未命名漸層_7-5" data-name="未命名漸層 7" x1="-507.46" y1="459.72" x2="-688.29" y2="283.78" gradientTransform="translate(-106.5 278.84) rotate(168.35) scale(1 -1)" xlink:href="#_未命名漸層_7"/>
    <linearGradient id="_未命名漸層_472-5" data-name="未命名漸層 472" x1="715.02" y1="67.26" x2="622.75" y2="55.09" gradientTransform="translate(-186.83 840.35) rotate(-22.44) scale(1 -1)" xlink:href="#_未命名漸層_472"/>
    <linearGradient id="_未命名漸層_472-6" data-name="未命名漸層 472" x1="-791.76" y1="48.36" x2="-791.76" y2="-37.87" gradientTransform="translate(-106.5 278.84) rotate(168.35) scale(1 -1)" xlink:href="#_未命名漸層_472"/>
    <linearGradient id="_未命名漸層_472-7" data-name="未命名漸層 472" x1="350.17" y1="-282.51" x2="350.17" y2="-368.74" gradientTransform="translate(80.76 294.05) rotate(20.94)" xlink:href="#_未命名漸層_472"/>
    <linearGradient id="_未命名漸層_472-8" data-name="未命名漸層 472" x1="-855.67" y1="198.13" x2="-1050.97" y2="155.45" gradientTransform="translate(-106.5 278.84) rotate(168.35) scale(1 -1)" xlink:href="#_未命名漸層_472"/>
    <linearGradient id="_未命名漸層_472-9" data-name="未命名漸層 472" x1="441.13" y1="49.22" x2="441.13" y2="-96.47" gradientTransform="translate(-41.17 284.16) rotate(3.99)" xlink:href="#_未命名漸層_472"/>
    <linearGradient id="_未命名漸層_472-10" data-name="未命名漸層 472" x1="-626.55" y1="373.33" x2="-716.52" y2="-29.18" gradientTransform="translate(-106.5 278.84) rotate(168.35) scale(1 -1)" xlink:href="#_未命名漸層_472"/>
  </defs>
  <g class="cls-23">
    <g id="_圖層_1" data-name="圖層 1">
      <g>
        <g>
          <path class="cls-9" d="M762.73,671.7c14.26-17.04,40.24-5.97,42.77,18.22,2.52,24.19-19.81,48.1-36.76,39.36,22.96-10.26,47.58-16.87,70.42-9.94,22.84,6.93,43.34,30.09,46.1,61.15.73,8.21,0,17.46-4.34,23.87-3.34,4.95-8.24,7.37-12.94,9.4-30.24,13.08-62.04,18.34-93.03,15.38,18.05-4.64,35.42,14.29,38.48,37.78,3.06,23.49-6.08,48.8-20.08,65.38-27.86,33-74.58,30.34-96.9-5.53,6.59,20.3-4.23,46.04-19.38,57.78-15.15,11.73-33.12,12.89-50.17,12.88-34.05-.01-75.63-11.56-82.44-55.24-.16,39-31.51,67.73-60.52,76.93-46.06,14.6-95.58-.9-129.55-40.56-18.4-21.48-32.83-55.49-23.34-87.37-18.17,38.94-59.34,56.22-88.77,37.25-29.42-18.97-42.61-71.28-28.42-112.79,4.5-13.16,15.25-26.73,24.65-20.9-22.17,3.26-44.6-1.5-64.2-13.64-13.84-8.58-27.38-23.44-27.9-44.14-.61-24.23,17.86-44.87,36.14-48.72s36.03,4.49,52.89,12.7c-16.35-29.78,6.95-77.95,35.32-85.9,28.36-7.96,55.62,11.58,77.26,34.64-9.67-28.96,7.18-66.42,30.06-79.92,22.88-13.49,48.8-8.39,71.43,2.06,15.98,7.38,32.9,20.14,35.71,42.47,6.55-36.02,33.42-65.17,60.99-66.19,27.57-1.01,52.89,26.23,57.49,61.84,10.9-26.74,36.15-42.33,57.53-35.5,21.37,6.82,36.65,35.35,34.8,64.98,10.72-20.2,32.34-29.02,48.57-19.82,16.24,9.2,25.24,35.37,20.23,58.81l-2.08-6.74Z"/>
          <g>
            <g>
              <path class="cls-7" d="M636.27,427.68c8.22-2.19,31.29,3.69,40.61,7.33.3.12.6.17.92.16l88.33-3.33c16.01-.6,30.04-10.9,35.42-25.99l16.85-47.27c.12-.32.16-.67.13-1.01-1.4-15.88-6.99-31.41-16.52-44.16-1.08-1.45-.2-3.45,1.59-3.72,6.12-.92,11.7-5.76,12.91-11.9.35-1.79.43-3.76,1.61-5.14,2.48-2.89,6.6-.79,9.55,2.14,1.01,1,2.65.9,3.51-.24,1.74-2.3,3.76-4.39,6.01-6.21.86-.7,2.11-.63,2.95.1,1.18,1.03,2.37,2.06,3.55,3.09,1.12.97,2.85.67,3.57-.63,1.02-1.83,2.04-3.66,3.05-5.49.92-1.65,3.28-1.57,4.13.12.97,1.94,2.13,3.78,3.46,5.5.87,1.13,2.56,1.2,3.54.17,1.48-1.56,2.96-3.11,4.43-4.67,1.31-1.38,3.63-.69,4,1.18,2.04,10.49-1.15,21.65-4.34,32.05-1.53,4.97-3.05,9.95-4.58,14.92-.07.23-.1.47-.1.71.6,28.15-6.97,71.15-17.77,97.02-4.42,10.59-9.97,21.09-18.75,28.48-8.39,7.06-19.05,10.73-29.51,13.99-56.1,17.49-117.52,27.35-173.12,8.32-7.55-2.59-16.13-7.27-16.56-15.24-.21-3.97-1.79-16.83.51-20.07,9.73-13.74,14.36-15.87,30.63-20.2Z"/>
              <path class="cls-12" d="M865.27,355.83s-.78-1.3-.85-1.38c-.52-.63-2.12-1.93-3.07-2.65-2.45-1.86-5.3-3.36-8.17-4.45-6.07-2.3-12.65-2.81-19.06-2.06-3.13.37-6.22,1.13-9.22,2.09-3.05.97-5.79,2.49-8.75,3.6-.72.59-.92.61-.6.06-.14.24-.27.5-.39.76-.21.53-.13.28-.3.91-.11.4-.3,1.37-.34,1.53-.14.5.1.17.03.04,1.26,2.25,2.62,2.92,5.06,3.68l-.95,5.74-.73,4.47c-6.28-1.95-13.06-8.01-12.11-15.37.41-3.16,1.64-6.59,4.31-8.51,2.95-2.13,6.82-3.48,10.22-4.7,13.74-4.93,29.72-4.95,42.52,2.65,5.85,3.48,14.7,14.22,8.54,21.62,0,0-5.16,5.36-12.35,2.06l.88-8.4s5.85,1.67,5.32-1.68Z"/>
            </g>
            <g>
              <path class="cls-20" d="M650.08,651.72c.72,17.76,1.43,35.62-.79,53.25-2.22,17.64-7.54,35.2-17.9,49.64-8.15,11.35-19.09,20.38-28.09,31.07-7.87,9.34-14.41,20.77-14.92,32.78-.1,2.35-2.66,3.78-4.76,2.71l-1.46-.75c.15,3.54-2.36,7.12-5.83,7.83-3.47.7-7.36-1.96-7.61-5.49-.19,4.93-3.31,9.93-8.06,11.25-4.75,1.32-10.56-2.2-10.68-7.13.56,4.42-5.42,7.46-9.45,5.54-4.02-1.92-5.84-6.75-6.02-11.21-.06-1.59-.14-3.49-1.51-4.28-1.32-.75-2.93.04-4.42.33-5.84,1.15-10.28-6.31-8.87-12.1,1.41-5.79,6.23-9.98,10.43-14.2,4.68-4.7,8.86-9.89,12.47-15.46,2.32-3.58,4.47-7.4,7.83-10.02,3.63-2.84,8.25-3.97,12.51-5.73,10.9-4.51,19.48-13.25,26.99-22.35,4.65-5.64,9.06-11.57,12.05-18.24,13.16-29.34-3.78-64.2,3.84-95.44,2.15-8.81,7.62-18.41,18.84-16.12,2.85.58,5.48,1.96,7.75,3.78,12.55,10.07,13.85,14.25,17.91,28.93l-.23,11.41Z"/>
              <path class="cls-21" d="M488.14,650.69c-2.02,17.66-4.06,35.41-8.96,52.5-4.9,17.08-12.86,33.63-25.32,46.3-9.79,9.97-21.99,17.21-32.53,26.38-9.21,8.02-17.43,18.31-19.78,30.1-.46,2.31-3.21,3.32-5.12,1.94l-1.33-.96c-.4,3.52-3.43,6.68-6.96,6.84-3.54.16-6.97-3.07-6.68-6.6-.95,4.84-4.79,9.3-9.69,9.88-4.9.58-10.1-3.79-9.46-8.69-.12,4.46-6.51,6.54-10.19,4.03-3.68-2.51-4.74-7.57-4.22-12,.18-1.58.4-3.47-.84-4.46-1.19-.95-2.9-.41-4.42-.35-5.95.24-9.19-7.82-6.9-13.32,2.28-5.5,7.69-8.91,12.48-12.43,5.34-3.93,10.28-8.41,14.69-13.36,2.84-3.18,5.55-6.62,9.27-8.7,4.02-2.25,8.76-2.66,13.24-3.74,11.47-2.79,21.29-10.1,30.1-17.94,5.46-4.86,10.73-10.04,14.71-16.17,17.5-26.97,6.12-64.02,18.45-93.72,3.48-8.37,10.35-17.02,21.09-13.04,2.72,1.01,5.12,2.78,7.08,4.93,10.85,11.88,11.5,16.21,13.26,31.34l-1.98,11.24Z"/>
              <path class="cls-14" d="M623.29,376.53s43,12.71,62.93,64.44c19.93,51.72,17.76,94.37,2.31,127.1-27.11,57.41-123.82,60.28-212.08,26.9-34.98-13.23-82.77-17.95-79.9-35.42,5.69-34.73-.52-262.27,226.74-183.01Z"/>
              <g>
                <path class="cls-2" d="M692.16,418.32s24.8,28.09,8.05,52.31c-16.75,24.22-142.56,32.57-142.56,32.57,0,0-4.53-7.91,2-15.64,6.53-7.73,108.47-24.02,101.32-56.56,0,0,21.09-16.92,31.18-12.68Z"/>
                <path class="cls-6" d="M448.71,386.71s-32.14,19.27-23.51,47.42c8.63,28.15,126.01,74.19,126.01,74.19,0,0,6.71-6.16,2.82-15.51-3.89-9.34-96.11-55.72-79.45-84.58,0,0-14.97-22.51-25.88-21.52Z"/>
                <path class="cls-4" d="M557.78,534.7c1.78,4.42,4.89,6.91,8.79,9.41,3.9,2.5,7.87,4.89,11.89,7.2,3.32,1.91,6.57-.73,6.3-4.28-.36-4.91-.63-9.83-1.1-14.74-.46-4.9-2.2-8.89-5.28-12.71-5.83-7.24-12.31-14.01-19.09-20.36-1.63-1.53-4.05-1.91-5.82-.31-1,.9-1.5,2.42-1.31,3.8-.09.04-.19.07-.27.11-1.72.87-2.37,2.68-2.16,4.5,1.1,9.46,4.51,18.59,8.06,27.37ZM572.43,525.33c.06.08.12.16.19.24,0,0-.02,0-.03.01-.05-.09-.11-.17-.16-.26Z"/>
                <path class="cls-5" d="M548.87,510.04c.18-1.83-.51-3.62-2.24-4.47-.09-.04-.18-.07-.28-.11.17-1.38-.36-2.89-1.38-3.77-1.8-1.57-4.21-1.14-5.82.41-6.67,6.48-13.03,13.35-18.73,20.7-3.01,3.87-4.68,7.89-5.06,12.8-.38,4.91-.56,9.84-.84,14.75-.2,3.55,3.09,6.13,6.38,4.16,3.98-2.37,7.9-4.84,11.76-7.41,3.86-2.57,6.92-5.11,8.62-9.56,3.39-8.85,6.64-18.03,7.57-27.51ZM526.32,528.7s-.02,0-.03-.01c.06-.08.12-.16.18-.25-.05.09-.11.17-.16.26Z"/>
                <path class="cls-12" d="M553.38,480.74c-4.39.35-8.39,2.83-11.7,5.57-1.71,1.42-3.3,2.91-4.39,4.88-1.21,2.2-1.23,4.65-.68,7.03,1.79,7.78,6.62,18.73,16.24,17.9,4.19-.36,7.65-2.85,10.4-5.87,2.73-.16,5.44-1.63,6.46-4.29.93-2.45.48-5.01.09-7.52-.68-4.37-1.79-8.98-4.73-12.44-2.96-3.48-7.04-5.64-11.69-5.26Z"/>
              </g>
              <g>
                <path class="cls-10" d="M695.97,551.62s81.89,60.18,60.62,171.4c-24.49,9.83-133.12,9.2-153.24-139.07l92.61-32.33Z"/>
                <path class="cls-12" d="M746.99,716.72c-18.15,3.39-49.01.51-76.22-18.76-29.83-21.13-49.15-56.72-57.43-105.79-.23-1.39.57-2.75,1.9-3.21l77.42-27.03c1-.35,2.09-.13,2.87.57,6.84,6.05,20.06,19.08,31.84,38.46,20.86,34.32,28.24,72.46,21.94,113.36-.18,1.2-1.09,2.15-2.28,2.39h-.05ZM619.48,593.62c8.22,46.25,26.6,79.75,54.65,99.62,26.24,18.58,55.25,20.23,69.79,18.13,5.53-38.73-1.69-74.86-21.47-107.41-10.69-17.59-22.6-29.76-29.47-36l-73.49,25.66Z"/>
                <path class="cls-10" d="M399.25,522.43s-92.17,42.8-93.31,156.04c22.06,14.48,128.67,35.33,177.7-106.03l-84.4-50Z"/>
                <path class="cls-12" d="M316.59,674.2c-1.14-.46-1.86-1.59-1.81-2.82,1.9-41.35,16.67-77.28,43.91-106.81,15.38-16.67,30.92-26.83,38.81-31.41.91-.53,2.02-.52,2.93.01l70.55,41.8c1.21.72,1.73,2.21,1.23,3.53-27.2,70.86-68.97,93.17-99.22,99.41-23.05,4.75-44.25,1.19-56.4-3.73ZM398.96,539.04c-7.96,4.76-22.04,14.33-36,29.46-25.83,28-40.05,61.99-42.28,101.06,11.6,4.2,30.53,6.94,51.15,2.69,28.52-5.88,67.84-26.92,94.1-93.54l-66.97-39.68Z"/>
                <path class="cls-10" d="M603.36,583.96s72.78,127.09-78.68,187.45c-23.3-7.85-108.77-98.69-41.03-198.98,0,0,43.32,22.99,119.72,11.52Z"/>
                <path class="cls-12" d="M523.52,761.24c-12.97-8.07-38.01-34.09-49.99-69.54-12.28-36.36-8.2-72.12,12.12-106.3.72-1.2,2.18-1.72,3.5-1.23,17.11,6.35,53.79,16.03,107.17,9.48,1.26-.16,2.48.53,3,1.69,6.64,14.87,20.64,53.59,7.17,91.92-11.04,31.43-38.06,56.39-80.32,74.19-.18.07-.36.13-.54.17-.72.15-1.48.02-2.11-.38ZM489.42,590.42c-18.37,32.03-21.88,65.48-10.41,99.43,12.29,36.38,36.93,59.2,46.32,65.66,39.87-17.1,65.33-40.7,75.69-70.17,12.23-34.81.46-70.24-6.15-85.69-51.2,5.92-87.25-2.81-105.46-9.22Z"/>
                <path class="cls-3" d="M697.36,538.01s-62.54,46.54-153.38,38.56c-90.85-7.98-142.18-68.47-142.18-68.47l-2.87,17.47s73.92,75.11,172.13,62.89c98.21-12.22,124.66-34.61,124.91-36.85.25-2.23,1.39-13.61,1.39-13.61Z"/>
              </g>
              <path class="cls-12" d="M609.44,778.85c1.47,1.88,2.15,3.12,1.91,5.51.01-.13.38-.26,0,.05-.12.1-.78.73-1.07.99-.46.39-.27.24-.71.54-.23.14-.46.26-.7.37.54-.25.37-.34-.49-.27-2.86-.72-5.76-1.02-8.61-1.9-2.8-.86-5.57-1.92-8.16-3.31-5.3-2.84-10.06-6.72-13.48-11.72-1.62-2.37-2.99-5.03-3.88-7.75-.34-1.06-.88-2.9-.94-3.66,0-.1.12-1.48.09-1.51.31.3-1.37.9-.96.79,2.16-.59,3.68-2.57,3.21-4.87-.43-2.08-2.72-3.8-4.87-3.21-8.65,2.38-5.41,13.19-2.78,18.96,5.75,12.63,17.97,21.11,31.1,24.65,3.25.88,6.92,1.9,10.31,1.84,3.06-.05,5.83-2.01,7.82-4.21,4.64-5.13,2.69-13.36-1.08-18.2l-2.93,3.03-3.78,3.88Z"/>
              <path class="cls-12" d="M430.78,768.25c1.12,2.1,1.59,3.44.95,5.75.04-.13.42-.19,0,.05-.14.08-.89.59-1.23.79-.52.3-.3.19-.79.41-.25.1-.5.18-.75.25.57-.15.43-.27-.44-.35-2.7-1.2-5.5-1.99-8.16-3.34-2.61-1.33-5.16-2.84-7.48-4.65-4.74-3.7-8.77-8.34-11.29-13.84-1.19-2.61-2.09-5.46-2.5-8.3-.16-1.1-.37-3.01-.3-3.77,0-.1.37-1.44.34-1.47.26.35-1.51.65-1.08.61,2.22-.22,4.06-1.9,3.99-4.25-.07-2.12-2.04-4.2-4.25-3.99-8.92.87-7.57,12.08-5.97,18.21,3.52,13.42,14.12,23.86,26.45,29.58,3.06,1.42,6.5,3.05,9.85,3.57,3.03.47,6.09-.99,8.43-2.82,5.45-4.26,4.92-12.71,2.03-18.11l-3.41,2.49-4.39,3.18Z"/>
            </g>
            <g>
              <path class="cls-18" d="M462.31,418.92c-1.73,6.15-16.89,20.42-24.11,25.88-.23.17-.41.37-.54.59l-35.91,61.07c-6.51,11.07-3.84,23.19,6.75,30.61l33.15,23.22c.23.16.5.28.81.34,14.24,2.98,30.01,3.03,45.13-.31,1.72-.38,3.04.72,2.49,2.01-1.89,4.4-.2,9.41,4.55,11.76,1.38.68,3.04,1.22,3.7,2.37,1.39,2.41-2.22,4.7-6.02,5.98-1.31.44-1.93,1.58-1.34,2.45,1.21,1.76,2.12,3.65,2.69,5.64.22.76-.38,1.6-1.38,1.99-1.4.55-2.81,1.1-4.21,1.65-1.33.52-1.83,1.78-1.03,2.59,1.12,1.15,2.24,2.3,3.37,3.44,1.01,1.03-.09,2.63-1.91,2.79-2.09.18-4.18.51-6.23.99-1.35.32-2.15,1.45-1.7,2.37.69,1.39,1.37,2.79,2.06,4.18.61,1.24-1,2.65-2.76,2.43-9.89-1.21-18.06-6.15-25.59-10.91-3.6-2.27-7.2-4.55-10.79-6.82-.17-.11-.36-.19-.57-.24-24.41-6.58-57.97-22.41-75.42-36.2-7.15-5.64-13.72-12.04-16.2-19.86-2.37-7.47-.84-15.65.95-23.6,9.62-42.61,28.12-86.94,68.84-120.14,5.53-4.51,13.31-9.2,20.34-7.51,3.5.84,15.22,2.95,17,5.33,7.52,10.05,7.3,13.74,3.89,25.91Z"/>
              <path class="cls-12" d="M423.44,592.94s1.46-.21,1.56-.24c.77-.2,2.59-.97,3.62-1.44,2.67-1.21,5.21-2.78,7.41-4.47,4.64-3.57,7.96-7.93,10.13-12.49,1.06-2.23,1.76-4.52,2.25-6.81.5-2.32.41-4.57.75-6.86-.19-.64-.12-.78.21-.42-.15-.16-.31-.31-.48-.45-.36-.28-.19-.16-.65-.43-.3-.18-1.04-.54-1.16-.61-.37-.22-.19.03-.05.01-2.48.3-3.66,1.06-5.38,2.54l-4.51-2.07-3.52-1.6c4.43-3.8,12.6-6.92,18.5-4.45,2.53,1.06,4.93,2.76,5.41,5.05.53,2.54,0,5.51-.45,8.14-1.8,10.6-8.8,21.5-20.94,28.35-5.55,3.13-18.65,6.5-22.29.46,0,0-2.34-4.85,3.65-8.93l6.82,2.69s-4,3.57-.89,4.05Z"/>
            </g>
            <g class="cls-22">
              <path class="cls-9" d="M767.32,712.82c-17.11-21.77-33.99-43.69-49.2-66.85-6.92-10.55-13.41-21.39-19.18-32.61-6.85-13.32-12.31-27.1-17.19-41.25-8.83-25.63-13.21-53.19-11.53-80.31,1.5-24.31,7.94-48.26,15.42-71.35,7.77-23.98,16.71-47.65,21.68-72.43-.49,2.45-.97,4.89-1.46,7.34,3.3-16.83,4.38-33.86,3.19-50.97.18,2.57.36,5.15.54,7.72-1.6-21.48-6.48-42.53-13.54-62.86.85,2.44,1.71,4.87,2.56,7.31-8.31-23.64-19.09-47.21-33.24-67.95,1.41,2.05,2.83,4.11,4.24,6.16-5.3-7.65-11.25-14.79-18.3-20.9,1.87,1.6,3.73,3.21,5.6,4.81-5.08-4.29-10.6-7.89-16.54-10.87,2.21,1.08,4.42,2.16,6.63,3.24-9.79-4.78-20.24-7.79-30.89-9.95,2.45.49,4.89.97,7.34,1.46-19.65-3.89-39.71-5.16-59.69-3.81,2.57-.18,5.15-.36,7.72-.54-19.43,1.4-38.62,5.24-57.03,11.6,2.44-.85,4.87-1.71,7.31-2.56-12.27,4.31-24.08,9.81-34.87,17.1,2.05-1.41,4.11-2.83,6.16-4.24-7.46,5.13-14.27,11.06-20.2,17.91,1.6-1.87,3.21-3.73,4.81-5.6-5.44,6.41-9.98,13.45-13.72,20.97,1.08-2.21,2.16-4.42,3.24-6.63-5.12,10.53-8.57,21.72-10.87,33.18.49-2.45.97-4.89,1.46-7.34-4.42,22.7-4.45,46-2.88,69-.18-2.57-.36-5.15-.54-7.72,2.25,31.9,6.93,63.72,6.62,95.75-.16,16.93-2.28,33.53-6.08,50.03-3.77,16.4-10.47,31.64-17.95,46.64-12.74,25.56-29.26,49.46-47.01,71.78-18.86,23.71-39.49,46.08-62.14,66.22-25.13,22.35-52.71,42.16-81.76,59.08-6.26,3.64-15.65,3.91-22.37,1.64-6.57-2.22-13.55-7.79-16.47-14.21-3.14-6.9-4.46-15.09-1.64-22.37,2.8-7.23,7.46-12.54,14.21-16.47,10-5.82,19.78-12.02,29.33-18.56-2.05,1.41-4.11,2.83-6.16,4.24,34.12-23.5,65.01-51.45,92.01-82.86-1.6,1.87-3.21,3.73-4.81,5.6,22.65-26.46,43.62-55.44,59.06-86.74-1.08,2.21-2.16,4.42-3.24,6.63,6.88-14.09,12.27-28.8,15.34-44.21-.49,2.45-.97,4.89-1.46,7.34,4.28-22.19,4.04-44.86,2.5-67.32.18,2.57.36,5.15.54,7.72-3.71-52.77-13.46-106.39,2.73-158.16,8.18-26.15,24.01-50.61,46.4-66.75,11.87-8.56,24.2-15.75,37.87-21.01,14.47-5.57,29.31-10.14,44.55-12.98,28.72-5.35,58.84-5.99,87.64-.93,14.16,2.48,28.51,5.38,41.61,11.52,7.65,3.58,15.2,7.3,21.91,12.48,6.47,5,12.69,10.52,18.08,16.69,9.68,11.08,17.64,23.85,24.62,36.77,6.38,11.82,12.13,23.99,17.11,36.47,5.82,14.61,10.95,29.62,14.69,44.92,3.79,15.48,5.66,31.07,6.68,46.96,1.76,27.57-3.18,54.87-10.87,81.28-6.78,23.27-15.67,45.88-22.01,69.28-1.57,5.78-2.96,11.6-4.15,17.47.49-2.45.97-4.89,1.46-7.34-3.05,15.41-4.31,30.99-3.23,46.68-.18-2.57-.36-5.15-.54-7.72,1.32,17.61,5.27,34.86,11.05,51.53-.85-2.44-1.71-4.87-2.56-7.31,9.36,26.6,23.31,51.15,39.21,74.34-1.41-2.05-2.83-4.11-4.24-6.16,12.39,18,25.88,35.21,39.38,52.38,4.82,6.13,7.86,13.21,7.34,21.19-.45,6.93-4.06,15.08-9.51,19.57-5.84,4.82-13.43,8.19-21.19,7.34-7.19-.79-14.95-3.62-19.57-9.51h0Z"/>
            </g>
            <g>
              <path class="cls-17" d="M702.84,161.32s-50.95-27.32-65.42-25.21c-14.48,2.11,27.35-59.29,45.86-58.52,18.51.77,33.28,63.92,19.56,83.72Z"/>
              <path class="cls-16" d="M485.75,146.53s54.69-18.74,68.63-14.32c13.95,4.42-17.42-62.92-35.82-65.15-18.4-2.23-43.16,57.71-32.81,79.47Z"/>
              <path class="cls-15" d="M749.91,261.42s-2.64-31.24,20.83-36.61c11.42-2.61,23.06,2.85,29.43,12.68,22.56,34.86-24.34,57.96-11.27,75.01,32.1,41.86.99,61.22-16.16,59.59-17.15-1.64-41.7-39.17-22.82-110.67Z"/>
              <path class="cls-19" d="M422.29,251.51s-1.55-31.31-25.52-33.5c-11.67-1.07-22.48,5.9-27.48,16.49-17.71,37.56,31.86,54.19,21.17,72.83-26.23,45.77,7.19,60.81,23.96,56.9,16.78-3.91,36.11-44.38,7.86-112.73Z"/>
              <path class="cls-8" d="M709.42,395.32c-44.14,59.91-185.08,88.73-255.67-9.18-50-70.48-38.28-106.87-34.41-144.7.03-.32.07-.64.1-.96,4.44-41.14,28.9-77.56,65.22-97.38,43.94-23.98,114.5-43.23,202.8-.51,24.17,11.69,43.81,31.17,55.16,55.5,18.96,40.66,31.03,110.06-33.2,197.22Z"/>
              <path class="cls-11" d="M623.36,270.11c9.15-4.15,19.4-5.49,29.37-5.25,2.84.07,5.37,2.94,5.06,5.77-.33,3.02-2.73,5.13-5.77,5.06-1.23-.03-2.46-.04-3.69,0-.52.01-1.04.03-1.57.05-.2,0-2.29.15-1.13.06-2.18.18-4.35.44-6.5.82-2.04.36-4.06.81-6.04,1.39-.51.15-1.02.3-1.52.47-.21.07-.43.14-.64.21.67-.24.72-.25.13-.04-.93.36-1.85.73-2.75,1.14-2.58,1.17-6.05.39-7.31-2.36-1.17-2.57-.4-6.05,2.36-7.31h0Z"/>
              <path class="cls-11" d="M557.62,283.86c-.84-.5-1.71-.96-2.57-1.42-.63-.34.95.44.29.14-.22-.1-.44-.21-.66-.31-.45-.2-.9-.4-1.35-.59-2.02-.85-4.09-1.58-6.19-2.19-1.04-.3-2.08-.58-3.13-.84-.53-.13-1.07-.25-1.61-.37-.34-.07-.68-.15-1.02-.21.41.07.78.15.15.04-2.37-.42-4.75-.75-7.16-.96-2.83-.25-5.39-2.81-5.06-5.77.32-2.87,2.74-5.33,5.77-5.06,9.88.87,19.91,3.36,28.48,8.49,2.44,1.46,3.22,5.21,1.55,7.52-1.78,2.47-4.91,3.11-7.52,1.55h0Z"/>
              <path class="cls-12" d="M748.78,230.03c-21.07-1.27-42.18-2.62-62.95-6.57-10.46-1.99-20.83-4.42-31.27-6.57-9.4-1.94-19.19-3.18-28.83-4.54-9.52-1.34-19.46-3.4-27.39-9.16-7.87-5.72-13.7-14.29-13.91-24.24-.1-4.69,1.36-9.68,4.21-13.43,3.43-4.52,8.32-6.95,13.63-8.57,9.19-2.81,20.48-3.52,28.56,2.59,4.28,3.24,7.63,7.88,8.21,13.33.61,5.8-1.65,11.65-6.04,15.53-8.7,7.67-23.13,4.45-27.81-6.2-1.3-2.95-.47-6.88,2.69-8.32,2.9-1.32,6.93-.47,8.32,2.69.12.28,1.2,2.06.51,1.15.29.38.62.72.94,1.07.65.7-.68-.47.09.1.31.23.62.45.95.65.13.08,1.19.62.55.33-.77-.35.98.33.89.29.99.41-.22.05.38.12.38.05.76.09,1.14.1.19,0,1.35-.11.6,0-.91.14.92-.24.87-.22-.25.06-1.07.52.05-.02.35-.17.68-.34,1.02-.52.24-.13.84-.7.09-.06.29-.25.57-.5.86-.76,1.05-.93-.27.66.46-.54.2-.33.42-.64.62-.97.13-.21.4-1.02.06-.12.15-.39.57-2.27.44-1.18.05-.37-.03-2.39.14-1.2-.06-.39-.15-.78-.21-1.17-.2-1.31.34.43-.22-.66-1.21-2.32-2.86-3.9-5.48-4.85-3.23-1.18-6.73-1.08-10.06-.51-4.05.69-7,1.35-10.27,3.33-.57.35-.66.47-1.39,1.15-.95.87-.46.48-.26.23-.25.32-.49.66-.71,1.01.08-.12-.86,1.6-.54.92.27-.58-.21.6-.26.72-.14.39-.27.78-.38,1.18-.09.31-.25,1.38-.13.55-.13.92-.16,1.83-.17,2.76-.01,1.03-.12-.86,0,.16.05.4.1.8.17,1.19.16.89.37,1.77.65,2.63-.09-.28-.42-.99.08.13.21.46.41.93.63,1.38.41.82.87,1.62,1.37,2.39-.54-.84.8,1.03.93,1.18.53.65,1.09,1.27,1.68,1.87.29.3.6.59.9.88,1.32,1.33-.77-.53.71.63,1.32,1.04,2.7,2.01,4.16,2.84.36.21.73.41,1.1.6-.87-.46.44.21.65.3.96.43,1.94.82,2.93,1.18,3.84,1.39,7.41,2.18,11.03,2.76,4.08.65,8.19,1.1,12.29,1.64,17.7,2.31,35.15,7.04,52.52,10.24,20.15,3.71,40.62,4.98,61.04,6.21,3.33.2,5.98,3.26,5.77,6.58-.22,3.36-3.23,5.97-6.58,5.77h0Z"/>
              <path class="cls-12" d="M426.99,207.31c17.89.41,36.18.91,53.83-.47,18.62-1.46,37.02-4.91,55.66-6.18,8.98-.61,17.75-.31,26.54-2.29,3.58-.81,6.62-1.91,9.81-3.84.34-.21.68-.42,1.01-.64-.23.15-.82.63.15-.11.63-.48,1.26-.97,1.86-1.49.6-.52,1.18-1.05,1.73-1.62.28-.28.54-.56.81-.85-.77.84.42-.54.46-.6.47-.61.9-1.25,1.31-1.9.2-.32,1.11-2.09.66-1.1.31-.69.59-1.4.83-2.12.12-.36.21-.73.32-1.09.49-1.53-.01.95.14-.66.29-3.11.16-6.01-1.83-8.06-.3-.31-.58-.63-.9-.93.57.54-.2-.15-.29-.21-.71-.5-1.44-.96-2.19-1.4-.56-.33-.61-.34-1.54-.72-1.03-.43-2.09-.81-3.15-1.16-1.5-.5-3.71-1.14-4.81-1.34-.95-.17-1.93-.29-2.89-.36-.6-.04-1.21-.07-1.81-.07-.18,0-1.58.07-.87,0-1.11.1-2.2.35-3.27.63-.24.06-1.1.44-.09.02-.45.19-.9.38-1.33.6-.44.22-.86.46-1.28.71.74-.44-.02,0-.34.26-.3.24-.59.49-.87.76s-.9.94-.34.26c-.24.29-.47.6-.68.91-.07.11-.88,1.64-.4.56-.16.35-.26.71-.4,1.06-.51,1.28-.1-.7-.16.63-.02.36-.03.74-.06,1.1.06-.87-.05-.33.05.27.06.36.19.72.24,1.08.09.66-.41-.76.1.26.16.32.35.66.5.99.55,1.2-.47-.39.34.51.25.27.5.55.74.82.87.99-.67-.25.49.39.32.18.62.4.94.58-.76-.42-.08-.07.36.07.33.11,1.45.23.31.11.45.05.93.03,1.38.09.89.12-.87.22,0,0,.44-.11.91-.17,1.36-.26,1.14-.24.29-.08.02.03.52-.22,1-.47,1.5-.72.23-.12.91-.67.07,0,.44-.35.84-.71,1.25-1.09-.2.18-.59.92.04-.06.3-.47.6-.92.87-1.42,1.59-2.94,5.94-3.49,8.57-1.77,2.99,1.97,3.36,5.62,1.77,8.57-4.66,8.62-16.5,11.59-24.76,6.5-8.38-5.17-10.89-16.67-5.59-24.88,5.51-8.54,16.3-11.14,25.8-9.39,10.12,1.86,20.81,6.23,24.47,16.66,3.27,9.34-.34,19.03-6.73,26.04-6.44,7.07-15.74,10.74-25.01,12.19-10.31,1.62-20.9,1.26-31.18,2.25-10.78,1.04-21.48,2.65-32.23,3.96-23.97,2.92-47.94,2.79-72.04,2.24-3.34-.08-5.98-3.35-5.77-6.58.22-3.46,3.23-5.84,6.58-5.77h0Z"/>
              <path class="cls-11" d="M621.78,244.15s.05.06.07.09c0,1.1.39,2.19,1.28,2.87,6.25,4.77,14.6,2.72,21.83,2.01,3.57-.35,7.14-.73,10.71-1.15,3.18-.38,6.86-.39,9.85-1.58,3.33-1.33,5.44-4.87,3.81-8.34-1.45-3.08-4.82-4.04-7.91-4.64-13.03-2.53-23.24-2.02-35.18,3.67-2.02.96-4.6,2.19-4.45,7.07Z"/>
              <path class="cls-11" d="M567.41,239.04c-10.79-7.66-20.75-9.93-34.02-9.7-3.14.06-6.63.42-8.59,3.2-2.21,3.13-.74,6.99,2.31,8.87,2.74,1.69,6.36,2.34,9.43,3.26,3.44,1.03,6.89,2.02,10.34,2.98,7,1.96,14.87,5.42,21.85,1.8.99-.51,1.57-1.52,1.76-2.6.03-.03.08-.04.09-.08.99-4.78-1.34-6.44-3.16-7.74Z"/>
              <path class="cls-11" d="M602.19,282.67c8.75-.58,15.37,7.49,14.94,15.85-.41,8.1-6.49,14.53-13.62,17.66-2.59,1.14-6.04.41-7.31-2.36-1.16-2.55-.42-6.09,2.36-7.31.62-.27,1.24-.56,1.84-.88.54-.29,1.18-.88,1.76-1.04-.48.14-.78.56-.1.05.25-.19.49-.38.72-.58.52-.44.98-.93,1.48-1.39s-.66.87-.06.08c.22-.29.45-.58.65-.88.21-.31.94-1.17.91-1.54-.32.66-.39.8-.23.43.07-.16.14-.33.2-.5.11-.28.2-.56.29-.85.02-.06.29-.83.23-.86-.14.74-.17.91-.11.5.03-.18.05-.35.07-.53.03-.23-.06-1.68.06-1.77.07.8.07.99.02.57-.02-.18-.05-.35-.08-.53-.05-.28-.14-.55-.19-.82-.13-.66.51,1.19.12.3-.13-.3-.26-.59-.41-.88-.13-.24-.27-.47-.41-.7-.33-.57.77.95.13.24-.22-.24-.43-.48-.65-.72-.64-.69.74.52.21.16-.22-.15-.43-.32-.65-.47-.13-.09-.27-.17-.41-.25-.36-.2-.18-.12.53.25-.17.03-.58-.23-.75-.29-.97-.32.04.13.2-.01-.05.04-1.14-.11-1.23-.11-.41-.01-.83,0-1.24.04-1.26.08-2.88-.9-3.68-1.79-.9-1-1.53-2.62-1.38-3.99.15-1.37.69-2.78,1.79-3.68,1.21-.99,2.44-1.28,3.99-1.38h0Z"/>
              <g>
                <path class="cls-11" d="M632.86,353.26c-8.27,1.73-16.89,2.34-25.31,2.62-17.43.59-35.24-1.3-51.8-6.94-10.76-3.67-20.99-9.04-29.82-16.24-2.29-1.87-3.25-4.87-1.55-7.52,1.46-2.27,5.25-3.4,7.52-1.55,25.06,20.44,60.52,24.12,90.89,20.25,2.63-.34,5.28-.7,7.88-1.25,6.84-1.43,9.04,9.2,2.19,10.63h0Z"/>
                <path class="cls-11" d="M628.36,349.74l-9.9-21.71-7.12,20.63s9.85,10.48,17.02,1.08Z"/>
                <path class="cls-11" d="M531.64,331.72l18.46-15.11-2.71,21.65s-13.46,5.06-15.75-6.54Z"/>
              </g>
            </g>
          </g>
        </g>
        <g class="cls-1">
          <path class="cls-13" d="M889.49,118.42c-.78,10.02-1.63,20.09-5.04,29.63-2.9,8.11-8.08,15.33-14.07,21.43-13.56,13.81-31.54,22.01-49.04,29.62-3.58,1.56-4.4,6.81-2.6,9.9,2.16,3.7,6.3,4.16,9.9,2.6,19.36-8.42,38.97-17.85,53.57-33.56,6.92-7.45,12.43-15.97,15.96-25.52,4.02-10.86,4.89-22.65,5.79-34.1.31-3.9-3.55-7.24-7.24-7.24-4.17,0-6.93,3.32-7.24,7.24h0Z"/>
        </g>
        <g class="cls-1">
          <path class="cls-13" d="M843.2,259.81c48.87-8.36,102.27-19.45,132.89-62.45,2.27-3.19.56-8.05-2.6-9.9-3.63-2.12-7.63-.6-9.9,2.6-27.99,39.31-79.97,48.22-124.24,55.8-3.86.66-6.02,5.4-5.05,8.9,1.12,4.08,5.04,5.72,8.9,5.05h0Z"/>
        </g>
      </g>
    </g>
  </g>
</svg>