<svg data-name="圖層 2" xmlns="http://www.w3.org/2000/svg" viewBox="0 0 37.72 493.03"><defs><linearGradient id="b" data-name="未命名漸層 200" x1="18.86" y1="139.47" x2="18.86" y2="14.02" gradientUnits="userSpaceOnUse"><stop offset="0" stop-color="#ff8c55"/><stop offset="1" stop-color="#d5433c"/></linearGradient><linearGradient id="c" data-name="未命名漸層 70" x1="18.83" y1="254.74" x2="18.83" y2="871.92" gradientUnits="userSpaceOnUse"><stop offset="0" stop-color="#ffdf9c"/><stop offset=".53" stop-color="#edcc78"/><stop offset=".66" stop-color="#e9b96d"/><stop offset=".87" stop-color="#e4a15f"/><stop offset="1" stop-color="#e3995a"/></linearGradient><filter id="a" filterUnits="userSpaceOnUse"><feOffset dx="1" dy="7"/><feGaussianBlur result="blur" stdDeviation="3"/><feFlood flood-color="#6b2525" flood-opacity=".75"/><feComposite in2="blur" operator="in"/><feComposite in="SourceGraphic"/></filter></defs><g style="filter:url(#a)"><path d="M29.45 51.58c4.99 2.77 8.27 7.44 8.27 12.73s-2.96 9.49-7.53 12.3c4.57 2.81 7.53 7.27 7.53 12.3 0 5.9-4.07 11.02-10.04 13.6 4.44 2.9 7.4 7.91 7.4 13.59v17.64H2.64V116.1c0-5.67 2.95-10.69 7.39-13.59C4.06 99.93 0 94.81 0 88.91c0-5.03 2.96-9.49 7.52-12.3C2.95 73.8 0 69.34 0 64.31c0-5.29 3.27-9.96 8.27-12.73C3.29 48.17 0 42.45 0 36V11.16C0 5.02 5.02 0 11.16 0h15.41c6.14 0 11.16 5.02 11.16 11.16V36c0 6.45-3.29 12.18-8.27 15.58Z" style="fill:url(#b);stroke-width:0"/><path d="M35.07 455.75c0 .26-.01.52-.02.78.11 4.11.1 23.49-9.05 32.99-1.65 2.14-4.23 3.53-7.14 3.53s-5.33-1.29-6.98-3.31c-10.5-10.56-9.23-33.98-9.23-33.98V133.75h32.43v322Z" style="stroke-width:0;fill:url(#c)"/></g></svg>