<svg xmlns="http://www.w3.org/2000/svg" data-name="圖層 2" viewBox="0 0 45.72 501.03"><defs><linearGradient id="b" x1="22.86" x2="22.86" y1="143.47" y2="18.02" data-name="未命名漸層 200" gradientUnits="userSpaceOnUse"><stop offset="0" stop-color="#ff8c55"/><stop offset="1" stop-color="#d5433c"/></linearGradient><linearGradient id="c" x1="22.83" x2="22.83" y1="258.74" y2="875.92" data-name="未命名漸層 70" gradientUnits="userSpaceOnUse"><stop offset="0" stop-color="#ffdf9c"/><stop offset=".53" stop-color="#edcc78"/><stop offset=".66" stop-color="#e9b96d"/><stop offset=".87" stop-color="#e4a15f"/><stop offset="1" stop-color="#e3995a"/></linearGradient><filter id="a" filterUnits="userSpaceOnUse"><feOffset dx="1" dy="7"/><feGaussianBlur result="blur" stdDeviation="3"/><feFlood flood-color="#6b2525" flood-opacity=".75"/><feComposite in2="blur" operator="in"/><feComposite in="SourceGraphic"/></filter></defs><g style="filter:url(#a)"><path d="M45.72 15.16C45.72 6.8 38.92 0 30.56 0H15.15C6.8 0 0 6.8 0 15.16V40c0 5.7 2.14 11.13 5.9 15.29C2.14 58.81 0 63.42 0 68.31c0 4.52 1.87 8.87 5.18 12.3C1.88 84.04 0 88.39 0 92.91c0 5.53 2.71 10.65 7.33 14.26-3 3.59-4.69 8.13-4.69 12.93v339.54c-.1 2.08-.93 25.32 10.27 36.77 2.48 2.94 6.1 4.62 9.95 4.62s7.68-1.78 10.17-4.9c9.83-10.39 10.18-29.65 10.03-35.58.01-.27.02-.54.02-.81V120.11c0-4.8-1.69-9.34-4.69-12.93 4.63-3.61 7.34-8.73 7.34-14.26 0-4.53-1.87-8.87-5.18-12.3 3.3-3.43 5.18-7.78 5.18-12.3 0-4.89-2.14-9.5-5.9-13.02 3.76-4.16 5.9-9.59 5.9-15.29V15.16Z" style="fill:#fff;stroke-width:0"/><path d="M33.45 55.58c4.99 2.77 8.27 7.44 8.27 12.73s-2.96 9.49-7.53 12.3c4.57 2.81 7.53 7.27 7.53 12.3 0 5.9-4.07 11.02-10.04 13.6 4.44 2.9 7.4 7.91 7.4 13.59v17.64H6.64V120.1c0-5.67 2.95-10.69 7.39-13.59C8.06 103.93 4 98.81 4 92.91c0-5.03 2.96-9.49 7.52-12.3C6.95 77.8 4 73.34 4 68.31c0-5.29 3.27-9.96 8.27-12.73C7.29 52.18 4 46.45 4 40V15.16C4 9.02 9.02 4 15.16 4h15.41c6.14 0 11.16 5.02 11.16 11.16V40c0 6.45-3.29 12.18-8.27 15.58Z" style="fill:url(#b);stroke-width:0"/><path d="M39.07 459.75c0 .26-.01.52-.02.78.11 4.11.1 23.49-9.05 32.99-1.65 2.14-4.23 3.53-7.14 3.53s-5.33-1.29-6.98-3.31c-10.5-10.56-9.23-33.98-9.23-33.98V137.75h32.43v322Z" style="stroke-width:0;fill:url(#c)"/></g></svg>