<svg id="_圖層_1" data-name="圖層 1" xmlns="http://www.w3.org/2000/svg" viewBox="0 0 1040 1040"><defs><style>.cls-2{stroke-width:0;fill:#7e2114}</style></defs><path class="cls-2" d="M372.4 720.42c14.22-3.63 31.94-3.75 46.41-6.28 160.88-14.77 262.66-146.97 365.07-258.08 22.77-24.18 44.81-48.34 70.98-70.69 19-17.73 49.33-16.21 65.99 3.93 5.52 6.62 8.85 14.54 10.03 22.48 5.34 36.69 5.25 72.52 1.44 108.13-7.6 73.95-30.74 143.3-68.63 208.55-43.53 71.28-105.74 134.79-187.29 168.91-104.22 45.38-237.78 26.56-315.83-58.83-15.2-16.52-26.31-33.61-36.7-53.95-9.03-16.09-3.31-36.45 12.78-45.48.25-.14.49-.27.74-.4l35.02-18.31Z"/><path d="M388.53 354.36c-146.05 33.51-222.21 91.14-253.94 121.48 9.11 3.28 19.26 3.86 29.18.65 17.09-5.33 33.65-11.98 48.68-18.09 38.19-14.83 74.99-29.98 113.23-42.01 137.44-47.27 282.62-37.62 425.55-69.16 4.54-1.77 23.23-8.68 26.98-11.14 1.89-1.15 3.54-2.52 5.19-3.9-76.94-15.48-228.54-16-394.87 22.17Z" style="stroke-width:0;fill:#b43929"/><path class="cls-2" d="M623.67 139.97c-157.15-57.94-356.13 6.51-453.95 141.15-21.64 28.33-38.31 59.52-50.84 92.72-6.54 23.5-18.5 48.68-12.11 73.5 4.48 13.87 15.09 23.92 27.82 28.51 31.73-30.35 107.89-87.97 253.94-121.48 166.33-38.17 317.93-37.65 394.87-22.17 15.68-13.15 19.99-36.02 9.06-54.08-5.57-9.63-10.03-17.2-15.9-25.86-37.49-52.8-92.34-90.32-152.89-112.28Z"/></svg>