<svg id="_圖層_1" data-name="圖層 1" xmlns="http://www.w3.org/2000/svg" viewBox="0 0 1040 1040"><defs><style>.cls-1{fill:#b43929;stroke-width:0}</style></defs><path class="cls-1" d="M160.69 393.73c10.29 10.46 19.31 25.72 28.78 36.95 93.73 131.58 259.19 153 406.75 185.57 32.35 7.5 64.33 14.39 96.81 25.76 24.88 7.5 38.83 34.47 29.81 59-2.94 8.1-8.1 14.96-14.38 19.98-29.02 23.08-60.02 41.04-92.72 55.67-67.73 30.65-139.3 45.56-214.76 45.65-83.51-1.74-169.69-23.53-240.22-76.82-91.67-67.22-142.62-192.1-108.12-302.52 6.63-21.45 15.8-39.65 28.15-58.87 9.36-15.9 29.83-21.21 45.73-11.85.24.14.48.29.72.44l33.45 21.04ZM678.84 440.95C569.8 338.18 479.56 306.89 436.7 297.39c2.33 9.39 7.5 18.15 15.68 24.62 13.93 11.25 28.66 21.31 42.1 30.41 33.55 23.51 66.61 45.68 97.87 70.77 115.69 87.98 188.37 214.02 294.04 315.3 4 2.79 20.13 14.49 24.26 16.24 2 .94 4.07 1.54 6.12 2.14-29.9-72.56-113.74-198.87-237.92-315.92Z"/><path d="M987.76 517.24c-39.19-162.84-203.37-292.42-369.67-298.9-35.58-2.24-70.77 1.24-105.33 9.28-23.17 7.62-50.75 11.68-67.83 30.79-9.04 11.44-11.49 25.84-8.23 38.97 42.86 9.5 133.1 40.79 242.14 143.56 124.18 117.05 208.03 243.35 237.92 315.92 19.65 5.73 41.06-3.41 49.99-22.53 4.91-9.98 8.73-17.89 12.66-27.59 23.05-60.51 23.75-126.96 8.35-189.5Z" style="fill:#7e2114;stroke-width:0"/></svg>