<svg id="_圖層_1" data-name="圖層 1" xmlns="http://www.w3.org/2000/svg" viewBox="0 0 1040 1040"><defs><style>.cls-1{fill:#b43929;stroke-width:0}</style></defs><path class="cls-1" d="M339.05 401.26c14.65-.85 31.58-6.11 46.13-8.09 157.78-34.69 294.85 60.42 426.13 135.27 29.02 16.14 57.36 32.48 89.07 45.84 23.48 11.14 51.92.49 61.69-23.75 3.25-7.98 4.03-16.53 2.75-24.46-6.03-36.58-16.98-70.7-31.41-103.48-29.66-68.16-72.73-127.24-128.63-177.93-63.09-54.73-141.62-96.39-229.68-104.19-113.07-11.65-234.64 46.78-283.14 151.8-9.47 20.35-14.89 40.01-18.62 62.54-3.73 18.07 7.9 35.74 25.96 39.47.28.06.55.11.83.16l38.92 6.83ZM361.13 669.63c-147.27-27.65-225.68-82.18-258.59-111.23 8.97-3.65 19.09-4.62 29.13-1.82 17.29 4.64 34.1 10.63 49.36 16.13 38.75 13.29 76.13 26.95 114.82 37.45 139.22 41.74 283.9 26.29 427.97 52.09 4.61 1.59 23.56 7.75 27.41 10.05 1.94 1.07 3.64 2.38 5.34 3.69-76.26 18.55-227.72 25.12-395.44-6.37Z"/><path d="M604.65 874.45c-154.71 64.18-356.1 7.74-459.23-122.89-22.75-27.45-40.66-57.94-54.5-90.61-7.47-23.22-20.43-47.9-15.04-72.96 3.92-14.04 14.13-24.5 26.66-29.6 32.91 29.06 111.32 83.59 258.59 111.23 167.72 31.49 319.18 24.91 395.44 6.37 16.2 12.51 21.42 35.2 11.22 53.67-5.18 9.84-9.33 17.59-14.86 26.48-35.35 54.25-88.65 93.94-148.27 118.31Z" style="fill:#7e2114;stroke-width:0"/></svg>